<?xml version="1.0" standalone="no"?>
<!DOCTYPE svg PUBLIC "-//W3C//DTD SVG 1.1//EN" "http://www.w3.org/Graphics/SVG/1.1/DTD/svg11.dtd" >
<svg xmlns="http://www.w3.org/2000/svg">
<metadata>
This is a custom SVG webfont generated by Font Squirrel.
Copyright   : C Eduardo Recife 2001  wwwmisprintedtypecom 
</metadata>
<defs>
<font id="webfontKoEy74Pk" horiz-adv-x="711" >
<font-face units-per-em="2048" ascent="1638" descent="-410" />
<missing-glyph horiz-adv-x="499" />
<glyph unicode=" "  horiz-adv-x="499" />
<glyph unicode="&#x09;" horiz-adv-x="499" />
<glyph unicode="&#xa0;" horiz-adv-x="499" />
<glyph unicode="!" horiz-adv-x="645" d="M749 817q-7 -13 -24 -37l-447 -509l-87 -90q-3 19 7 19l388 547q59 82 142 82q21 0 21 -9v-3zM184 94q0 -31 -40.5 -62.5t-72.5 -31.5q-12 0 -12 9v19q0 80 82 80h17q26 0 26 -14z" />
<glyph unicode="&#x22;" horiz-adv-x="346" d="M572 977q-2 -13 -136 -124l-29 -35q-19 -22 -37 -22l-17 -9l106 167q24 38 80 38q33 0 33 -15zM384 977q-117 -116 -219 -193h-7l106 170q23 38 89 38h17z" />
<glyph unicode="#" horiz-adv-x="857" d="M907 697q-11 -21 -50 -68l-125 -158v-14h144l-19 -14h-150l-125 -153v-17h174v-12h-200q-111 -140 -238 -282v9l181 252v17q-20 0 -59 1t-59 1q-52 0 -127 -7l-214 -257q0 -6 -12 -17t-19 -11q0 23 92.5 137.5t96.5 135.5l-3 14h-117l-19 10v7l19 9h150l109 142v21h-158 l-7 9l14 10h181q91 113 139 179q33 44 66 44q22 0 22 -7q-14 -28 -158 -200v-12q82 -7 190 -7h36l7 7q15 15 93 123q67 93 95 108q13 7 33 7q17 0 17 -7zM638 422v18h-226q-5 -3 -120 -143v-19h233q53 49 113 144z" />
<glyph unicode="$" horiz-adv-x="615" d="M466 751q-2 -2 -4 -2h-1q-2 0 -2 2v1l1 2h2q3 -1 4 -3zM650 608q0 -36 -36 -67.5t-72 -31.5q-11 0 -32 7t-32 7h-21q-4 -4 -30 -42t-29 -45q0 -27 10 -27q2 0 4 1q-1 -12 -1 -25q0 -26 10 -79.5t10 -79.5q0 -78 -64 -129v4l15 26l-3 7v5h-12q-89 -64 -212 -80 q-7 -15 -30 -33q-21 -32 -57 -71v10q45 75 45 84v5q-1 10 -45 46t-44 77q0 30 19.5 59.5t48.5 29.5q14 0 29.5 -14t15.5 -28q0 -20 -20 -45t-20 -45q0 -4 1 -12.5t1 -13.5q14 -19 35 -19q14 0 21 12q57 86 57 90l-2 14q-39 0 -52 48.5t-59 55.5q106 0 125 -76q19 0 56.5 54 t37.5 76q0 37 -25 107t-25 107q0 80 50 115q0 -18 -6 -55t-6 -58q0 -14 12 -14q7 0 53 50q52 55 79 59q88 11 115 51q14 23 47 62q2 -3 3 -7q0 -22 -20 -46.5t-20 -36.5q0 -3 37.5 -30.5t37.5 -58.5zM596 645q0 29 -28 29q-43 0 -43 -69q0 -33 24 -33h9q2 9 20 37.5t18 35.5 zM528 681q-64 0 -109 -46t-45 -110v-30q0 -24 12 -24q11 0 19 12q122 175 123 198zM356 265q0 65 -26 65l-156 -229q-7 -10 -7 -26q77 0 130 41q59 44 59 119v30z" />
<glyph unicode="%" horiz-adv-x="883" d="M834 290q0 -87 -103.5 -185t-191.5 -98q-82 0 -82 73q0 77 98 175t175 98h2q-72 -44 -139 -130q-75 -96 -75 -169q0 -23 14 -33q2 0 6 -1t6 -1q71 0 152 98q74 91 86 168q2 16 2 71q50 0 50 -66zM857 730l-758 -810h-12l601 695q-28 0 -80.5 -18t-79.5 -18q-26 0 -48 7 q179 7 262 83q75 68 111 68l4 -2v-5zM469 589h-19q-5 -106 -100 -213q-98 -110 -202 -110q-75 0 -75 76q0 79 93.5 177t172.5 98h5q-72 -41 -138 -128q-72 -95 -72 -169q0 -3 1.5 -11t1.5 -12l11 -12q14 -2 19 -2q84 0 163 128q73 117 73 208h4z" />
<glyph unicode="&#x26;" horiz-adv-x="1204" d="M765 805l-25 24l4 2q8 -5 21 -21v-5zM776 797v-1q-1 -2 -3 -5q-4 1 -5 3q0 4 4 4h1q3 0 3 -1zM735 836h-8q-4 0 -11 7h6q10 0 13 -7zM784 765v-25q0 -40 -11 -55v14q0 14 2 43.5t2 44.5q7 -12 7 -22zM709 848q-61 -3 -125 -31h-7q19 33 99 33h16q3 0 8.5 -1t8.5 -1z M546 780l-7 -7v7l7 7v-7zM584 466l-5 -2l-2 2l2 3q4 -1 5 -3zM1345 657q0 -34 -22.5 -63t-55.5 -29q-31 0 -31 26v76l-18 18q-109 0 -109 -26q0 -6 16.5 -19t16.5 -37q0 -45 -42 -45q-5 0 -10 3h-4q-16 14 -47 44q-38 0 -172 -134q-24 -9 -109 -132q1 7 -11 7h-7 q-52 -42 -99 -94q0 -24 4 -27q12 -7 14 -11q0 -16 8 -23q68 -163 68 -222q0 -204 -290 -376q-83 -50 -207 -50h-61q-11 1 -53 19q-124 55 -124 172v42q14 -195 207 -195h31q45 0 45 7v12q-50 16 -64 37h7q50 -19 104 -19h47q105 45 177 130q80 95 80 200q0 45 -18 132 q-22 104 -44 104q-8 0 -19 -7q-75 -53 -233 -144v-9q10 -1 28.5 -2.5t28.5 -1.5q27 0 65.5 19.5t56.5 19.5h3q-97 -52 -236 -52q-78 0 -98 5q-55 14 -55 70q0 15 7.5 35.5t8 69.5t10.5 72q38 90 130 151q59 39 183 87l7 7l24 132q16 73 45 125q0 -21 -14.5 -60t-14.5 -60h10 q70 77 132 77q39 0 54 -37q3 -8 14 -71q-29 -32 -80 -101l-3 2q0 2 2 8q7 10 20 23q-2 3 -5 11h-14q-116 -47 -116 -54q0 -59 32 -59h8q-21 -11 -21 -23q0 -20 83 -153h19l313 315q1 2 33 24q95 67 126 84q78 43 142 43q97 0 97 -73zM540 85q0 -3 -3 -5q-2 1 -3 5q0 2 2 2h2 q2 0 2 -2zM158 -87q-4 -3 -7 -5q-3 2 -7 5l-1 2q1 2 4 2l3 1q5 0 8 -5zM132 -92q-4 -3 -12 -7h-6q4 0 11 7h7zM11 -210q-1 -2 -3 -2h-2q-3 1 -4 5q2 2 5 2q2 -2 4 -5zM685 638q0 47 -51 47q-54 0 -89 -55q-32 -48 -32 -105q55 0 158 59q14 42 14 54zM471 398q0 26 -12 80 q-59 0 -150.5 -81t-91.5 -138h21l195 115q38 22 38 24zM558 212v9l-49 99q-3 12 -10 33q-9 26 -23 26q-13 0 -24 -7q-106 -69 -146 -104q-87 -76 -87 -153v-26q24 -25 59 -25q86 0 250 113q30 21 30 35z" />
<glyph unicode="'" horiz-adv-x="346" d="M384 977q-117 -116 -219 -193h-7l106 170q23 38 89 38h17z" />
<glyph unicode="(" horiz-adv-x="674" d="M810 1062q-1 -3 -5 -5q-2 2 -2 5l2 3q4 -1 5 -3zM1079 1119q-283 -97 -508 -312q-215 -205 -345 -487q-71 -153 -71 -268q0 -86 15 -132q1 -5 17 -44q13 -31 13 -41v-5q-44 64 -61 109h-19l-14 -139q-12 42 -12 87q0 238 21 349q70 363 450 661q133 105 219 151h7 q-8 -5 -24 -16q4 -5 3 -15h7q225 102 292 102h10zM1029 -193q0 -3 -2 -5q-3 2 -5 5l3 2q3 0 4 -2zM212 -179q-2 -2 -4 -2h-2q-3 1 -3 3v1q1 2 4 3q3 -2 5 -5z" />
<glyph unicode=")" horiz-adv-x="643" d="M631 1072h-1q-6 0 -6 6v5l7 -4v-7zM732 758q0 -409 -541 -815l-113 -75q-2 0 -5.5 -2t-6.5 -5q-9 0 -9.5 7t-7.5 7q-34 0 -97.5 -31.5t-97.5 -31.5h-7q259 103 464 320q197 207 306 476q59 144 59 249q0 85 -14 132q-11 36 -26 71v5l7 -5q28 -52 45 -76h14v132 q30 -70 30 -202v-156zM48 -148q0 -1 -0.5 -3.5t-2.5 -3.5q-2 2 -3 4v2v1q0 2 2 2h1q3 0 3 -2zM16 -170l-4 -4l-3 4q1 5 3 5h1q3 -1 3 -5zM-14 -188q-2 -4 -5 -5q-2 2 -2 4v2q1 3 4 3h1q1 -1 2 -4z" />
<glyph unicode="*" horiz-adv-x="384" d="M549 874h-165q0 -25 21 -68.5t21 -68.5v-5q-61 78 -87 121q-30 0 -162 -132h-7q70 84 117 150v12q-53 11 -136 38l7 7h127q4 22 4 14q-1 3 -2 5l-42 118l7 7q64 -78 87 -125h19q64 63 144 125h4l-106 -139v-3q-1 -2 -2 -7q0 -14 75.5 -24.5t75.5 -24.5z" />
<glyph unicode="+" horiz-adv-x="843" d="M789 323l-5 -7l-334 -12q-9 -9 -57 -64q-70 -84 -219 -245v7l200 276v21h-282q-12 0 -12 17q0 26 26 26h316l174 230q30 40 66 40q-6 0 28 -7q0 -15 -19 -37l-176 -215v-19z" />
<glyph unicode="," horiz-adv-x="334" d="M193 75q0 -81 -101 -158q-95 -72 -179 -72v7q12 3 21 11q32 12 90 40q42 29 62 129q16 83 65 83q42 0 42 -40z" />
<glyph unicode="-" horiz-adv-x="650" d="M617 268l-542 -32v51h535z" />
<glyph unicode="." horiz-adv-x="214" d="M118 66q0 -61 -57 -61q-37 0 -37 40q0 56 49 56q45 0 45 -35z" />
<glyph unicode="/" horiz-adv-x="765" d="M1003 1277l-1081 -1369h-61l1074 1369h68z" />
<glyph unicode="0" horiz-adv-x="671" d="M539 678l-11 14h4l7 -7v-7zM502 647q-1 -3 -3 -4q-3 1 -4 5q0 4 2 4h1q3 -1 4 -3v-2zM648 525q0 -132 -178 -329q-180 -201 -310 -201q-160 0 -160 137q0 116 104.5 265t149.5 197q110 117 208 117q52 0 58 -14q-9 0 -27 3.5t-27 3.5q-43 0 -97 -38q-58 -41 -58 -82h9 q107 57 153 57h10q-141 -111 -245 -241q-139 -173 -139 -301q0 -85 52 -85q55 0 113 50q124 106 201 252q83 157 83 311q0 23 -2 47q16 -16 19 -26q83 -47 83 -123zM584 561v42h-14v-42h14z" />
<glyph unicode="1" horiz-adv-x="495" d="M584 645l-245 -313q-21 -27 -91 -159q-64 -123 -78 -135q-30 -2 -96 -22q-61 -18 -95 -18q0 21 21 47l351 419q28 34 28 54q-44 0 -167 -80q-1 -1 -24 -19l-120 -94h-4l63 49q43 35 43 59q48 28 136 92q-1 -12 12 -12q41 0 99.5 55t58.5 96q0 16 -12 12l56 56v-11 q-37 -83 -37 -106h12l68 30h21z" />
<glyph unicode="2" horiz-adv-x="643" d="M304 638q-2 -2 -5 -3q-2 0 -2 2v2q1 4 2 4h1q4 -1 4 -5zM278 619q0 -3 -2 -3v0q-2 1 -5 3q0 4 2 5q5 -1 5 -4v-1zM297 350q-1 -2 -3 -4q-3 2 -4 5q0 4 2 5h1q3 -1 4 -4v-2zM662 546q0 -122 -189 -251q-130 -87 -308 -156v-17q9 1 28 2t28 1q19 0 57 -25t66 -25 q89 0 165 80l2 -2q0 -10 -14 -28q-62 -80 -86 -103q-57 -55 -117 -55q-37 0 -95.5 42.5t-106.5 42.5q-34 0 -108 -90q0 16 10.5 40.5t10.5 37.5q-17 0 -39 -14t-37 -14h-2q11 18 139 89q1 1 129 92l177 128q26 18 73 56q97 93 97 193q0 45 -64 45q-24 0 -33 -38 q-2 -19 -9 -57q-36 -125 -189 -150v-12l31 -14q-4 0 -12.5 -2.5t-13.5 -2.5q-68 0 -68 92q0 73 30 127h3v-5l-3 -2q-16 -54 -16 -85q10 1 68 56q26 25 80 67q73 28 158 68q0 21 -52 21q-28 0 -71 -13t-63 -13h-2q54 31 129 31q73 0 138 -32q79 -39 79 -105zM443 610 q-70 0 -142 -60q-75 -62 -75 -131q0 -2 2 -9q1 -6 0 -10l5 -4q5 -3 12 -3h14q66 0 126 77q58 72 58 140zM386 26h-14l-45 -19v-16q59 0 59 35z" />
<glyph unicode="3" horiz-adv-x="622" d="M344 656v-2q-1 -3 -2 -4q-4 2 -5 5q2 2 4 2h1q2 0 2 -1zM641 608q0 -102 -203 -205q0 -13 32 -45.5t32 -56.5q0 -41 -38 -131q-81 -194 -283 -194q-49 0 -68 8q104 0 157 34q39 25 39 50l-8 3h-7q-20 -6 -61 -17q-101 -26 -172 -28q-2 -6 -8 -6q-1 0 -15 13 q-19 12 -56 38q-27 19 -27 54q0 47 33 77.5t80 30.5q50 0 50 -40q0 -5 -3.5 -15t-3.5 -15q0 -7 3.5 -18.5t3.5 -17.5q0 -21 -34.5 -38.5t-34.5 -29.5q0 -19 22 -19h35q154 0 257 181q33 59 33 88q0 28 -24 28q-34 0 -78 -18t-54 -18h-2v3q33 24 63 35q48 17 48 43l-5 2 q-9 0 -23 -6t-20 -6h-7l7 5l145 82q86 58 86 130q0 38 -13.5 48.5t-52.5 10.5q-64 0 -121 -40q-64 -44 -64 -105q0 -6 1 -18.5t1 -18.5q106 0 174 144q0 -61 -44.5 -106t-106.5 -45q-68 0 -68 57q0 30 12 49q0 -7 -2.5 -21t-2.5 -21q-1 -2 -1 -7q0 -3 1 -7h12 q49 103 207 165v9q-15 0 -44.5 -4.5t-45.5 -4.5h-4q53 19 133 19q138 0 138 -85zM396 346q0 26 -14 26q-36 0 -36 -26h50z" />
<glyph unicode="4" horiz-adv-x="579" d="M382 546q-1 -3 -3 -4q-2 2 -2 4v1q0 2 2 2h1l1 -1zM363 534q0 -2 -3 -4q-1 1 -3 5q1 2 3 2h1q2 0 2 -3zM344 520q-12 -11 -19 -11h-5q7 11 20 11h4zM638 697l-158 -208q-124 -168 -124 -195q0 -18 89 -18l-7 -12q-92 -31 -113 -31l-68 -139q-43 -2 -101 -44.5t-102 -42.5 q0 24 70.5 112t70.5 107v5q-8 12 -46 12q-85 0 -100 -5l-56 -19q0 6 3.5 14t3.5 12q0 13 -14 12h-5q33 27 92 88q12 16 85 140q34 57 96 172q28 62 71 134q9 0 28 2.5t29 2.5h37l-268 -381v-12h12l138 94h8l-222 -165q-28 -21 -28 -47q9 0 29 -1.5t31 -1.5q19 0 65 5 q43 4 66 3l214 261q16 20 16 45h-16q-22 -12 -64 -38h-4q207 139 238 139h4zM377 252v12h-38v-12h38zM219 252v12h-56v-12h56zM45 245v12h-19v-12h19z" />
<glyph unicode="5" horiz-adv-x="650" d="M763 638q0 -15 -50 -40.5t-70 -25.5q-10 0 -30.5 -1t-30.5 -1q-23 0 -67.5 10.5t-67.5 10.5h-11l-38 -38q0 9 7 21t7 29h-14l-38 -57v-11h19v-7q-97 -101 -101 -113l2 -5v-7q18 0 54 6t55 6q80 0 113 -41q28 -36 28 -120q0 -107 -108 -198q-103 -87 -212 -87q-43 0 -57 7 q112 5 177 57l30 31v11q-30 0 -61 -14q-79 -35 -195 -42l-7 -12q-7 6 -81 37q-51 21 -51 69q0 41 30.5 74.5t70.5 33.5q31 0 38 -21q4 -16 14 -37q4 -4 27 -12q15 -4 15 -24q0 -23 -31.5 -39t-31.5 -34q0 -21 14 -21q119 0 212.5 88t93.5 206q0 37 -1 42q-6 22 -30 22 q-61 0 -183 -90q0 6 3.5 14t3.5 12q0 8 -7.5 12t-7.5 10q37 35 83 84l144 234q5 8 14 11q33 -7 23 -7q26 0 41 10.5t20 10.5q8 0 41 -33h35q17 0 49.5 9.5t49.5 9.5h4l-37 -37v-10q10 0 31.5 -1.5t31.5 -1.5q19 0 36 13zM297 377v14q-59 0 -59 -45h16z" />
<glyph unicode="6" horiz-adv-x="777" d="M951 676q-65 71 -146 71q-68 0 -98 -15q0 -120 -50 -120q-31 0 -36 21q1 -1 1 48q-62 0 -229 -168v-14q40 -15 95.5 -83t55.5 -107q0 -132 -124 -234q-118 -96 -253 -96q-59 0 -95.5 36.5t-36.5 95.5q0 48 22 114l37 112q40 149 187 287q156 146 303 146q18 0 52 -7 t52 -7t55 4.5t55 4.5q54 0 97 -17q56 -24 56 -70v-2zM638 744q1 21 -56 21q-110 0 -238 -139q-47 -50 -47 -70h14q53 38 165 106zM429 400q-57 0 -118 -37q34 24 68 37q47 19 47 38q0 50 -49 50h-10q-249 -250 -249 -354q0 -9 2 -27t2 -27h-25q0 -89 68 -89q30 0 71 21 q47 23 47 49q-13 0 -39 -3.5t-39 -3.5q-38 0 -50 7q51 0 81 12q74 30 135 138q58 103 58 189zM146 65q-1 -4 -4 -4h-1q-4 1 -4 4v2q0 6 4 6h1q3 0 4 -6v-2z" />
<glyph unicode="7" horiz-adv-x="657" d="M268 718q-7 -16 -23 -37v7q0 33 21 33zM212 605q-66 -99 -87 -99q-12 0 -12 10q0 9 94 103zM732 662l-254 -250q-61 -55 -153 -162l-155 -257q-107 -7 -95 -7q-5 0 -14.5 3.5t-15.5 3.5q-14 0 -42.5 -3.5t-42.5 -3.5h-17l434 407q57 54 162 193l-2 8v4q-19 0 -55.5 -8 t-55.5 -8q-56 0 -83 13q-5 3 -67 48q-8 0 -19 -5q9 6 65 57q40 37 76 37h2q-7 -7 -7 -18q0 -6 1.5 -18.5t1.5 -19.5q21 -33 122 -33h59q7 4 23 34q13 25 29 25q-6 -16 -12 -50q19 0 55.5 6t55.5 6zM676 624v17l-99 -29q-73 -54 -73 -99h24z" />
<glyph unicode="8" horiz-adv-x="610" d="M516 495l-5 -3l-2 3v0q1 4 2 4h1q4 -1 4 -4zM497 483l-5 -3l-2 3v1q1 3 2 4l1 -1q4 -1 4 -4zM730 641q0 -101 -165 -196q-45 -26 -59 -26h-4l7 7q72 72 88 93q44 58 44 117q0 39 -2 46q-6 25 -34 25q0 -11 2.5 -32t2.5 -32q0 -46 -20 -76q-8 -12 -55 -58h-7q56 73 56 141 q0 71 -31 71q-63 0 -105 -52q-41 -48 -41 -113q0 -99 26 -99h7q11 4 31 14h7q-38 -19 -38 -38q0 -18 19 -80.5t19 -98.5q0 -119 -105 -207q-101 -85 -222 -85q-59 0 -100 32q-44 34 -44 91q0 74 113 205q41 47 196 117v19q-45 94 -45 144q0 79 66 133q63 51 143 51 q108 0 155 -13q95 -24 95 -100zM509 728v21q-74 0 -122 -39q-50 -42 -50 -114h16q52 75 156 132zM391 207q0 49 -16 110q-22 79 -55 79q-12 0 -42 -11q-33 -13 -33 -22v-14q20 8 61 16l3 -2q-196 -120 -196 -252q0 -22 21 -42t43 -20h101q42 0 79 58q34 53 34 100zM323 52 q-17 0 -51 -7t-51 -7q-19 0 -55.5 10.5t-54.5 10.5q0 -66 47 -66h48q117 0 117 59z" />
<glyph unicode="9" horiz-adv-x="659" d="M532 697h-5q-7 0 -14 7h9q8 0 10 -7zM407 304q0 -26 -30 -33q-5 9 -14 19q16 7 44 23v-9zM648 516q0 -81 -40 -149q-112 -187 -255 -308q-179 -153 -360 -153q-59 0 -75 26q12 0 36 -7t37 -7q35 0 101 18q78 22 78 45v7q-191 0 -191 120q0 50 45 50q40 0 40 -31 q0 -20 -18 -40t-18 -40q0 -40 40 -40h106q81 0 210 160q125 156 125 243q0 12 -14 12q58 106 58 174q0 6 -1 17t-1 16q-7 7 -23 7q-60 0 -134 -63q-58 -50 -100 -114q-7 -13 -26 -37q1 -4 -1.5 -8.5t-2.5 -6.5v-87q0 -37 87 -37q-14 -7 -38 -7q-14 0 -40 9t-40 9 q0 -56 52 -56q13 0 37.5 9.5t37.5 9.5h3q-61 -38 -97 -38q-47 0 -79 31.5t-32 79.5q0 41 52 148q113 233 264 233q7 0 19.5 -1t18.5 -1q-144 -18 -144 -92q33 0 91 16q63 17 90 19q0 24 -7 38l3 2q10 0 47 -58l38 -55q21 -33 21 -63z" />
<glyph unicode=":" horiz-adv-x="358" d="M292 349q0 -57 -54 -57q-35 0 -35 38q0 54 47 54q42 0 42 -35zM120 75q0 -59 -52 -59q-35 0 -35 41q0 54 49 54q38 0 38 -36z" />
<glyph unicode=";" horiz-adv-x="374" d="M311 349q0 -62 -57 -62q-26 0 -35 22v23q0 57 49 57q43 0 43 -40zM127 59q0 -72 -90 -143q-85 -67 -159 -67v10q71 27 113 56q20 15 42 103q18 76 59 76q35 0 35 -35z" />
<glyph unicode="&#x3c;" horiz-adv-x="3601" d="M3578 -193q0 -389 -403 -613q-333 -186 -756 -186q-342 0 -556 114q-3 0 -127 -38q-183 -57 -342 -57q-211 0 -358 66q-198 88 -198 273q0 187 205 302v75q0 8 19 7v-70q137 56 283 56q198 0 296 -83q26 -22 34 -35q4 -7 23 -51l7 -5q116 210 415 238v7 q-163 169 -332 169q-10 0 -15 -2q-339 -174 -671 -174q-223 0 -409 62q-237 79 -319 239h-7q-131 -108 -240 -108q-186 0 -186 151q0 111 59 110q0 -18 -20 -48t-20 -58q0 -117 162 -117q142 0 234 101q0 16 -3.5 47t-3.5 47q0 97 54 97q40 0 40 -55q0 -49 -50 -136 q19 -40 70 -95q58 -63 90 -63h3q-26 47 -26 94q0 45 14 64q29 38 38 38h12v-12q-38 -42 -38 -66q0 -61 66 -77q20 -5 115 -8q5 0 17 -1t19 -1q226 0 284 26q-38 19 -117 51q-127 42 -177 77q-87 61 -87 161q0 197 272 312q214 91 444 91q172 0 319 -52q180 -64 251 -188 q38 -67 38 -94v-137q39 -7 33 -7h11l79 24q364 108 647 108q331 0 542 -118q266 -147 266 -452zM3526 -207q0 252 -287 367q-203 80 -502 80q-210 0 -516 -52l-2 -2q0 -10 21 -23q12 -7 30 -19q144 -132 144 -323q0 -211 -162 -353q-31 -24 -88 -76l-55 -64 q-108 -121 -197 -176q174 -120 511 -120q398 0 718 180q385 216 385 581zM1894 113h-21q-20 0 -55 -12q35 -14 47 -14h3zM2383 -193v61q-1 107 -164 191q-133 68 -257 68q-19 0 -31.5 -14.5l-25.5 -30.5l7 -7q121 -47 187 -106q73 -64 122 -176q37 -12 56 -31q-9 0 -26 3.5 t-25 3.5q0 -18 3.5 -54t3.5 -54q0 -31 -13 -91t-13 -90v-8q76 49 126 146t50 189zM1627 112v2q0 6 -4 6h-1q-4 0 -4 -6v-2q1 -6 4 -6h1q4 0 4 6zM1981 294q0 138 -64 203q-165 170 -535 170q-391 0 -574 -165q-109 -98 -109 -182q0 -65 66.5 -130t131.5 -65h5q-14 30 -14 66 q0 24 14 50q16 30 38 30l6 -6q0 -1 1 -4q0 -14 -16.5 -32.5t-16.5 -35.5q0 -80 45 -80q200 0 294 19q25 6 75 19l295 68q16 4 70 14q25 3 69 12q26 8 26 19v40q0 150 -130 236q-113 75 -271 75q-140 0 -256 -62q-142 -75 -142 -202q0 -83 76 -130q64 -40 153 -40 q264 0 273 208q14 -10 14 -45q0 -94 -104 -154q-89 -51 -190 -51q-106 0 -180 47q-87 55 -87 156q0 79 45 136q128 163 403 163q417 0 426 -389l158 5q5 32 5 37zM1717 -12q-35 7 -47 7q-6 0 -134 -75q22 0 91 27q64 25 90 41zM2183 -391v66q0 26 -16 60q-18 39 -40 39 q-115 0 -237 -80q-135 -88 -135 -196v-124q0 -31 14 -45q82 0 199 30q134 34 178 79q37 40 37 171zM2113 -626h-5q-132 -59 -320 -90q15 -35 87 -106h19l125 83q75 53 94 113zM1208 57h-125q29 -8 66 -8q36 0 59 8zM1077 65q-1 1 -6 1h-6q-6 0 -8 -2q5 -5 10 -7q7 0 9 7 q1 0 1 1zM1611 -7l-7 7h-189l-142 -13l-284 -25q1 0 -134 0q-197 0 -280 45q0 -66 185 -111q143 -35 243 -35h164q242 0 444 132zM1689 -678q0 37 -14 94q-62 -61 -114 -80l12 -7q110 -7 94 -7h22zM1675 -483q0 177 -337 177q-143 0 -248 -45q-14 -6 -14 -12q0 -94 162 -195 q150 -94 253 -94q72 0 128 49t56 120zM1825 -853q-89 76 -113 132q-19 0 -90 7q-37 2 -110 11q-26 5 -40 6q-75 4 -96 7q-64 9 -85 31l-50 51q-144 129 -184 212q-3 8 -11 22q-10 -1 -24 -10q-158 -109 -158 -254q0 -167 195 -247q141 -57 338 -57q268 0 428 89zM1348 -658 q-1 3 -6 3h-3q-4 0 -4 -2t5 -7q3 1 7 5zM1328 -652l-37 18h-7q9 -18 37 -18h7zM1284 -626q-1 4 -4 4h-2q-4 -1 -4 -4v-2q1 -6 4 -6h1q4 0 5 6v2zM419 266q0 31 -19 31q-23 0 -27 -46q1 11 1 -64q0 -15 8 -24q37 49 37 103zM575 11v2q-1 6 -5 6h-1q-3 0 -4 -6v-2q1 -4 4 -4h2 q3 1 4 4z" />
<glyph unicode="=" horiz-adv-x="650" d="M617 410l-542 -33v52h535zM610 224l-5 -21l-530 -31v52h535z" />
<glyph unicode="&#x3e;" horiz-adv-x="3589" d="M3660 155q0 -150 -188 -150q-109 0 -241 108h-7q-86 -165 -322 -242q-181 -59 -413 -59q-329 0 -664 174q-2 1 -7 2q-97 0 -185 -51q-57 -32 -154 -118v-7q304 -29 415 -238l7 4q8 18 26 52q7 14 33 36q94 82 294 82q144 0 285 -57v71q19 1 19 -7v-75q202 -118 202 -302 q0 -185 -197 -273q-146 -66 -359 -66q-148 0 -296 38q-50 12 -95 30q-64 26 -63 26h-12q-214 -113 -551 -113q-428 0 -760 183q-403 223 -403 616q0 306 267 453q212 117 545 117q269 0 663 -116q57 -16 55 -16q9 0 45 7q0 2 -2 63q-1 40 2 66q3 35 14 59q46 98 120 151 q187 132 479 132q227 0 441 -92q272 -116 272 -311q0 -100 -88 -159q-30 -20 -176 -79q-48 -19 -63 -33l-57 -19q39 -23 158 -23h212q46 0 84 20q48 24 48 65q0 24 -38 66v11q21 0 50 -37q14 -19 14 -64q0 -52 -26 -94q36 0 93 61q49 53 69 97q-49 87 -49 136q0 54 42 54 q20 0 36 -16t16 -35q0 -23 -3.5 -66t-3.5 -64v-9q97 -102 233 -102q165 0 165 118q0 27 -21 57.5t-21 48.5q61 1 61 -111zM3227 205v56q0 48 -26 48q-21 0 -21 -31q0 -54 40 -104q7 12 7 31zM2899 332q0 68 -45 120q-195 226 -635 226q-217 0 -380 -66q-221 -90 -221 -273 q0 -70 7 -71l156 -4q9 388 428 388q163 0 290 -67q155 -83 155 -232q0 -101 -85 -155q-72 -47 -178 -47q-102 0 -192 51q-105 60 -105 154q0 34 14 44q9 -207 273 -207q89 0 153 40q76 46 76 130q0 128 -141 203q-116 60 -257 60q-157 0 -270 -75q-131 -87 -131 -235 q0 -4 1 -10t1 -9q1 -13 1 -26q3 -7 23 -14q13 -5 75 -12q8 -1 88 -19q127 -37 374 -87l118 -14h151q42 0 42 80q0 16 -15.5 35t-15.5 33q0 10 7 10q22 0 37 -31q13 -25 13 -49q0 -31 -12 -66q67 0 133.5 64t66.5 131zM2541 75l-33 1q-21 0 -60 -4t-57 -4q25 -7 58 -7 q45 0 92 14zM3031 24q-58 -37 -147 -46q-37 -4 -156 -4t-118 0l-285 25l-142 13h-188l-7 -7q200 -132 445 -132q544 0 598 151zM1981 124v2q-1 6 -4 6h-2q-3 0 -4 -6v-2q1 -6 4 -6h2q3 0 4 6zM2063 -67q0 1 -2 1h-1q-1 0 -2 -1v-2q1 -3 3 -4q2 2 2 5v1zM2051 -64 q-117 71 -120 71q-14 0 -49 -7q123 -64 162 -64h7zM1781 113q-24 12 -53 12h-23l26 -26q21 0 50 14zM2522 -351q0 20 -116 40q-99 17 -145 17q-337 0 -337 -177q0 -71 56 -120.5t128 -49.5q105 0 253 93q161 101 161 197zM2322 -615l-70 -33q49 0 70 33zM2737 -626 q0 146 -132 237q-37 26 -52 26q-16 -42 -61 -115l-64 -64q-4 -4 -19 -16q-21 -15 -49 -38l-52 -52q-26 -26 -87 -30q-31 -2 -94 -7q-8 -1 -40 -7q-85 -17 -198 -17q-25 -53 -113 -132q155 -89 426 -89q199 0 340 56q195 79 195 248zM2040 -652q-59 21 -113 80 q-15 -57 -15 -95h19q-12 0 94 8zM1693 94q-39 45 -44 45q-132 0 -267 -68q-167 -85 -167 -191v-61q0 -92 50.5 -189t126.5 -146q0 32 -13 94.5t-13 94.5q0 18 3.5 54t3.5 54q-7 0 -20 -3.5t-20 -3.5h-9q14 19 56 31q49 110 122 174q66 59 184 108zM1844 -615v125 q0 110 -134 197q-121 79 -238 79q-22 0 -41 -55q-16 -47 -16 -77q0 -124 15 -160q22 -60 91 -88q164 -65 295 -65h16q12 23 12 44zM1813 -704q-211 35 -320 89h-7q33 -89 163 -158q36 -19 56 -37h19q18 13 50 49.5t39 56.5zM1686 -836q-95 61 -200 181q-16 21 -49 59 q-3 3 -90 76q-162 135 -162 353q0 129 63 235q20 34 132 130v2q-224 52 -494 52q-312 0 -516 -78q-297 -112 -297 -369q0 -360 385 -578q323 -183 713 -183q277 0 454 82q23 10 61 38z" />
<glyph unicode="?" horiz-adv-x="589" d="M730 723q0 -34 -38 -101q-55 -99 -221 -179q-218 -106 -250 -149l-29 -57q-22 -44 -34 -44q0 66 72 125l123 89q203 176 203 340q38 -43 38 -95q30 0 30 66q0 69 -71 69q-131 0 -223 -116q-7 -9 -7 -21q0 -10 9.5 -22.5t9.5 -22.5q0 -28 -50 -28q0 -4 -1 -11.5t-1 -12.5 q0 -33 7 -37q-45 0 -45 49q0 39 45 113q7 12 26 12q40 27 113 90q127 44 183 44q46 0 78.5 -28t32.5 -73zM179 87q0 -30 -38.5 -58.5t-69.5 -28.5q-12 0 -12 12v19q0 28 16 59q18 37 43 37q61 0 61 -40z" />
<glyph unicode="@" horiz-adv-x="928" d="M737 464q-34 -35 -88 -113q-63 -90 -63 -118q0 -33 38 -33q21 0 50.5 16.5t46.5 16.5h4q-37 -52 -131 -52q-83 0 -83 55q0 6 2.5 19.5t2.5 20.5h-10q-124 -95 -176 -95q-57 0 -57 50q0 85 110 165q102 75 192 75q28 0 43.5 -22.5t22.5 -22.5h9q47 47 87 47v-9zM864 429 q0 -16 -23 -66t-36 -62q-21 -17 -61 -56h-7q68 68 68 115h15q18 65 18 99q0 177 -223 177q-176 0 -325 -125q-156 -131 -156 -304q0 -105 88 -160q74 -47 185 -47q153 0 269 75q130 83 148 226q0 -2 1.5 -7t1.5 -7v-14q0 -129 -152 -213q-129 -72 -270 -72q-130 0 -224 61 q-108 70 -108 194q0 175 191 297q169 108 355 108q94 0 164 -45q81 -53 81 -141v-33zM612 431q0 24 -11 28h-24q-55 0 -145 -87.5t-90 -140.5q0 -24 23 -24q51 0 149 87t98 137z" />
<glyph unicode="A" horiz-adv-x="2047" d="M2852 1258q0 -112 -149 -227q-118 -92 -254 -138l-124 -43l-276 -351q-117 -149 -186 -336v-15h5q4 0 33 8q115 30 212 115h7q-1 -40 -138 -120q-151 -87 -173 -127h-111q-7 21 -45 21h-146q-19 0 -19 23q0 14 8 14h134l49 31v2q0 7 -59 24q-65 19 -181 89 q-372 -289 -782 -289q-22 0 -66.5 2t-65.5 2q0 -209 181 -322q152 -94 375 -94q159 0 292 43q166 55 238 164q26 39 26 94q0 45 -33 97h12q21 0 37 -45q14 -37 14 -64q0 -121 -173 -216q-147 -80 -286 -88q-146 -7 -167 -7q-186 5 -329 86q-169 96 -199 263l-16 92l-7 5 q-169 30 -270 141q-105 116 -105 285v73q0 18 19 76q61 191 255 315q206 132 468 132q200 0 398 -109h7q7 8 15 22q25 46 65 80q20 16 52 30q7 2 21 7v3q0 21 -14 61.5t-14 62.5q0 123 83 192q77 65 202 65q85 0 152 -34q84 -43 84 -119h-7q-40 127 -219 127 q-115 0 -186 -59q-76 -64 -76 -176q0 -87 33 -118q107 -12 207 -115q12 -15 38 -43q32 -30 184 -30q40 49 188 193q359 348 638 348h59q41 0 64 -33q21 -29 21 -70zM2833 1258q0 89 -120 89q-79 0 -155 -24q-91 -29 -127 -82q-9 -14 -29 -40q27 11 124 77q66 46 140 46 q2 0 7 -1.5t7 -1.5l12 -14q-137 0 -158 -42h12q-65 -22 -159 -159l-126 -204l-26 -45h19q186 205 471 436v7q0 13 -11 12l53 9q-79 -70 -247 -252l-158 -176h7q40 0 173 77q106 60 169 106q122 89 122 182zM2388 1178q-14 -22 -45 -62q17 19 45 62zM2358 1201 q-92 -54 -212 -198l75 58l-233 -241h33q47 0 66 23l176 238h-9q-5 0 -10 -2q73 61 114 122zM2229 823q-1 9 -2 9q-12 0 -12 -17q0 -2 1 -2q13 0 13 10zM2058 801h-82l-172 -207q4 -66 19 -104q6 -16 52 -40zM1863 801q-23 0 -69.5 9.5t-69.5 9.5h-7l-7 -7q-6 10 -19 16h-5 q10 -24 31 -45v29l54 -121q3 1 33 31q7 20 59 78zM1729 776v2q-1 6 -4 6h-2q-3 0 -4 -6v-2q1 -6 4 -6h2q3 0 4 6zM1672 857v7q-86 104 -179 104q-3 -1 -9 -2q18 -24 90.5 -66t97.5 -43zM1458 940q-9 28 -24 28q-66 0 -96 -54q56 26 120 26zM1776 499v69l-45 -45zM1748 667 q-2 10 -12 28q-41 68 -50 82q-31 42 -70 66q-58 35 -130 35q-54 0 -99 -20q-57 -24 -68 -69q38 -75 38 -137q0 -14 -3.5 -42t-3.5 -42l144 -12q89 -7 145 -7h10zM1863 424v7q-5 10 -38 19v1l-1 -4l-3 -18q-2 -21 -10 -85q-2 -20 -2 -28v-17zM1792 371v3q0 5 -4 10 q-2 -2 -3 -10v-4q0 -11 3 -14q4 9 4 15zM1783 326v18q0 -11 -10 -40t-9 -40l-2 -5l2 -9q19 7 19 76zM1901 125h-7q-50 0 -57 -36h2q38 0 62 36zM1338 652v24q0 89 -38 89q-28 -59 -28 -204q46 0 59 24q7 15 7 67zM1776 419v45q-35 24 -66 24q-3 0 -233 -234v-4 q83 -67 233 -87q66 143 66 256zM1616 506q-47 29 -186 29h-50q-33 0 -38 -3q-37 -20 -37 -75q0 -30 44.5 -94t70.5 -64zM1679 144q-2 2 -4 2l-3 -2q2 -5 5 -7q2 2 2 7zM1312 532h-33l2 -4q0 -6 2.5 -18t2.5 -18h5zM1649 148q0 5 -5 5q-2 -1 -2 -4v-2q0 -2 1 -2q4 1 6 3z M1623 155q-2 3 -5 3l-2 -3l4 -4q3 2 3 4zM1599 159v3q-1 5 -4 5h-1q-4 0 -4 -5v-3q1 -3 4 -4h1q4 1 4 4zM1579 172q-3 2 -5 2h-2q-4 0 -4 -2q3 -5 5 -7q3 2 6 7zM1561 176v2q0 6 -4 6h-1q-4 0 -4 -6v-3q0 -8 5 -8q4 3 4 9zM1543 181v2q-1 5 -5 5h-1q-3 0 -4 -5v-2q1 -4 4 -4 h2q3 0 4 4zM1531 188v2q-1 5 -4 5h-1q-4 0 -4 -5l-1 -2q1 -4 4 -4h2q4 1 4 4zM1255 450l-33 78h-4q-57 0 -71 -22q-5 -96 -49 -162h7q60 32 80 46q32 22 70 60zM1119 504q-72 0 -195 -49q-126 -49 -175 -99q7 1 13 1q52 0 65 -86q4 -3 19 -3q118 0 192 58q81 63 81 178z M1112 551q0 79 -83 122q-65 34 -153 34q-104 0 -200 -57.5t-141 -150.5q-38 -77 -38 -122q59 -68 137 -92q71 79 230 165q14 7 137 52q111 40 111 49zM1387 276q-35 52 -113 139h-7q-70 -67 -162 -116q-166 -87 -278 -87q-21 0 -61.5 10.5t-61.5 10.5q-5 -2 -7 -5 q0 -76 94 -127q78 -42 163 -42q137 0 327 121l57 39q49 42 49 57zM1241 820v9q-136 85 -374 85q-279 0 -491 -130q-249 -153 -249 -414q0 -241 240 -356q74 -35 118 -35q15 0 31 67q14 58 14 86q0 12 -20 40q-25 36 -27 40q-33 65 -33 160q0 166 118.5 283.5t284.5 117.5 q247 0 294 -224h14q8 0 24 2t23 2q0 151 0 142q3 42 33 125zM740 348l-1 2q0 6 -4 6h-1q-3 0 -4 -6v-2q1 -4 4 -4h2q3 1 4 4zM723 271v21q-21 0 -21 -21h21zM716 337q-29 -23 -59 -61h28zM980 17q0 4 -6 4h-2q-6 0 -6 -3l2 -4l5 -2q4 0 7 2v3zM935 45q-78 4 -142 37.5 t-96 105.5q-12 27 -12 45q-7 17 -51 17q-69 -69 -69 -92q0 -27 96 -75q91 -45 126 -45q18 0 54 -1.5t54 -1.5q5 0 14.5 1.5t13.5 1.5zM608 254l-111 90v-33q0 -31 16 -78q18 -56 40 -56q16 27 55 77zM954 9h-47q-223 0 -354 111h-4q-9 0 -18 -53q-8 -45 -8 -67v-28 q28 -7 68 -7h81q185 0 282 44zM2663 1302q0 -5 -11 -7q-10 0 -10 7q0 3 9 3h4q4 0 8 -3zM2631 1293q-4 -1 -9.5 -3l-16.5 -6q-4 0 -7 2q4 0 10.5 3.5t8.5 3.5h14zM2584 1278v-2q-1 -3 -3 -4l-4 5q0 5 2 7q5 0 5 -6zM2565 1270v-2q-1 -2 -2 -2q-3 1 -5 3q1 5 2 5h1q4 -1 4 -4 zM2244 1079q-11 -8 -23 -18q12 14 23 18z" />
<glyph unicode="B" horiz-adv-x="2183" d="M2261 1230q-1 -1 -2 -3.5t-3 -4.5q-2 2 -2.5 4t-1.5 4q1 2 3 2h3q2 -1 3 -2zM1797 395q0 -3 -2 -4l-5 5q1 4 2 4h1q4 -1 4 -3v-2zM3208 1154q0 -160 -135 -261q-123 -92 -289 -92q-106 0 -178 39q-91 50 -91 147q0 73 50.5 135.5t121.5 62.5h19q-96 -52 -116 -69 q-49 -44 -49 -122q0 -88 81 -136q68 -41 162 -41q149 0 262 91q119 98 119 244q0 151 -128 223q-101 57 -265 57q-263 0 -513 -172q-51 -35 -52 -52q5 0 16 2.5t17 2.5q-6 -3 -17 -14v-3q0 -14 23 -46q28 -39 31 -48q19 -44 19 -115q0 -198 -226 -318v-7q85 -76 85 -189 q0 -202 -240 -379v-5q0 -6 22.5 -39.5t22.5 -61.5q0 -12 -8 -19l-22 68q-19 45 -41 45q14 0 -89.5 -27t-190.5 -27h-26q-5 0 -13.5 1.5t-12.5 1.5q-33 14 -43 20q-24 14 -33 31v29q0 63 33 87v-3q0 -15 -10.5 -47.5t-10.5 -58.5q0 -3 14 -23q-2 28 45 75v92q-5 2 -7 5 q-6 -5 -12 -17l-2 5v2l2 3l132 176q6 7 64 62q17 16 23 16q12 0 14 -9q-125 -125 -125 -126q-65 -79 -65 -159q0 -6 2 -18t2 -18h7q10 0 28.5 7.5t28.5 7.5q19 0 60 3.5t62 3.5q205 175 205 348q0 13 -5.5 39t-5.5 39q35 -26 35 -92v-115q26 52 26 172q0 68 -31 68 q-36 0 -38 -26q-7 7 -21 7q-11 0 -34 -3.5t-34 -3.5q-73 0 -73 40q0 55 49 61q10 2 102 7h23q83 0 163 135q66 111 66 221q0 75 -19 75q-10 0 -130 -110q-10 -10 -30 -38l-415 -575l-85 -96q-8 -10 -87 -78q-37 -33 -37 -42q0 -25 7 -72.5t7 -71.5q0 -242 -160 -434 q-168 -202 -406 -202q-213 0 -322 158q-90 132 -99 360q-3 5 -47 31q-217 127 -217 341q0 264 212 403q184 120 459 115q45 121 156 241q82 89 115 120q69 66 132 101q102 57 217 57q35 0 60 -4q3 0 14 -3t15 -3q34 0 102.5 2.5t102.5 2.5q113 0 332 -73q2 -1 44 -19 q27 -12 46 -12q26 12 63 31q353 179 566 179q167 0 281 -67q138 -81 138 -237zM2155 1166v5l-35 -45q35 35 35 40zM1927 1307q-76 26 -204 26h-74q-40 0 -69 -9q38 -38 64 -38q43 0 141 12q90 11 142 9zM2063 730h-5q-18 -7 -56 -23q-2 -3 -2 -10h2q7 -9 19 -9q14 12 42 42z M2044 637q0 6 -4 6h-1q-1 0 -2 -1q-1 5 -4 6h-1q-1 0 -2 -1v1q-1 4 -4 4h-1q-4 0 -4 -4v-1q1 -4 4 -4h1h2v-1v-2q1 -4 4 -4h1h2v-2q0 -10 5 -10q4 2 4 10v3zM1976 662q-12 14 -40 14q-19 0 -33 -7l12 -17h-3q-8 0 -25.5 5t-25.5 5h-33q23 -14 74 -14h43q29 0 31 14z M1463 1324h-48q-75 0 -162 -36q-91 -38 -134 -94q216 99 344 130zM1884 624q-31 5 -80 28l-2 -2q0 -26 59 -26h23zM1307 1118q0 8 -4 8h-2q-8 0 -8 -9v-1q0 -7 8 -7h2q4 0 4 6v3zM2113 1220q-90 59 -271 59q-111 0 -186 -19v-12q16 -27 19 -42q14 -32 14 -92 q0 -150 -38 -261q-55 -163 -262 -285q-29 -16 -87 -45l-90 -27q-60 -21 -63 -53q97 -31 203 -151h7q82 102 208 301q138 216 204 304q47 63 342 323zM1651 904q-52 -103 -125 -197q9 6 43 44q82 95 82 153zM1992 379q-2 2 -4 3l-2 -1l-1 -1v-1q1 -2 2 -2h1q3 0 4 2z M1594 1272v2q0 15 -35 29q-30 11 -49 11q-79 0 -233 -61q-143 -57 -214 -122t-119 -154q-12 -25 -44 -73q-3 5 -3 10q0 23 47 101q-101 -101 -101 -177h14q358 325 737 434zM1107 1181v1q0 6 -3 6q-3 -4 -4 -10v-3q8 0 7 6zM1644 1149q0 95 -31 95q-16 0 -61 -17 q-299 -110 -452 -346q-52 -80 -52 -113q0 -12 12 -21t52 -59q30 -38 56 -165h10q116 0 275 188q147 176 172 304q-33 52 -137 52q-164 0 -343 -179h-7q62 77 158 132q105 61 195 61q54 0 134 -42h7q12 42 12 110zM1284 1109q-9 -8 -48 -28q-5 -3 -117 -80q-18 -12 -182 -146 l-26 -21v-12q12 -3 54 -20q37 -16 48 -15q71 118 183 235q34 29 88 87zM1809 125v7l-116 -66h12q37 13 54 21zM1733 146q1 12 -9 12q-27 0 -73 -10q-57 -11 -57 -26q0 -40 43 -40q21 0 52.5 22t43.5 42zM1145 520q0 101 -76 177q-21 21 -37 21q-19 -49 -19 -77 q0 -121 132 -121zM1644 47q-3 2 -8 2h-3q-7 0 -8 -2q5 -5 10 -5q4 0 9 5zM1606 66l-37 45q-17 -7 -17 -24q0 -28 28 -28q19 0 26 7zM1055 499q-66 54 -66 146q0 15 3.5 45t3.5 45q0 20 -52 35q-43 12 -73 12q-3 -1 -9 -2q-15 -15 -38 -45v-21q0 -91 59 -153t149 -62h23z M1333 266q-17 47 -78 100q-64 56 -110 56q-33 -81 -95 -137l-93 -59q-60 -41 -60 -104q0 -39 31 -50q16 -6 64 -6q186 0 341 200zM1138 476q-150 4 -219 47q-86 52 -111 188q-193 -193 -285 -435v-10q0 -20 48 -37q40 -15 67 -15q10 0 26.5 12t32.5 12q15 0 31 -17q3 3 7 10 q11 18 35 54q116 170 360 165q8 14 8 26zM1119 422q0 7 -38 7q-110 0 -199.5 -57.5t-134.5 -157.5q5 1 14.5 -0.5t13.5 -1.5q19 0 47 27t47 27q9 0 26 -8t26 -8q38 0 118 67t80 105zM923 35q-85 30 -115 85q-1 2 -7 29q-4 21 -12 21h-57v-88q-4 1 -9 5q-7 15 -7 54h-57 q0 -53 93 -83q69 -23 138 -23h33zM815 796h-54q-229 0 -402 -121q-194 -135 -194 -355q0 -198 209 -320q29 -16 41 -16q4 0 9 2q14 132 56 266q-68 61 -68 137q2 5 5 7q39 -118 75 -118l45 101q70 154 167 273q68 85 111 144zM1074 47q-92 -23 -177 -23q-180 0 -249 101 q-2 24 -19 59l-113 47h-3q-22 0 -45 -108q-21 -93 -21 -139q0 -10 3 -15q68 -28 214 -28q233 0 405 94q4 7 5 12zM1371 78v68q0 21 -12 45q-351 -273 -690 -273q-39 0 -114.5 12.5t-114.5 12.5q0 -214 90 -342q103 -147 308 -147q229 0 387 201q146 188 146 423zM2037 640 q0 -3 -2 -4v1q0 4 2 5v0v-2zM2030 647q0 -2 -2 -4q1 3 2 4zM980 668q-1 -6 -4 -6h-2q-3 0 -4 6v2q1 6 4 6h2q3 0 4 -6v-2z" />
<glyph unicode="C" horiz-adv-x="1244" d="M1738 1126q0 -122 -132 -210q-119 -80 -247 -80q-16 0 -48 3.5t-49 3.5q-110 -57 -165 -82q-108 -51 -167 -66q-25 -8 -75 -21l-240 -45q-125 -151 -125 -349q0 -205 165 -205q1 0 5 1.5t7 1.5q3 133 32 265q9 31 24 93v4q108 177 292 177q172 0 172 -158q0 -74 -52 -162 q-118 -203 -431 -271q7 -41 23 -122q0 -1 1 -3q0 -11 -5 -16q-5 -1 -7 7q-14 44 -38 134q-28 7 -75 7q-12 0 -36.5 -3.5t-36.5 -3.5q-90 0 -144 56t-54 146q0 40 46 194q44 146 67 195q-139 5 -226 103t-87 239q0 122 72 209q60 74 192 120q27 10 56 12q3 0 130 33 q73 19 132 19q151 0 221 -94q14 -19 14 -38h-7q-49 113 -228 113q-73 0 -118 -19q165 -51 198 -66q68 -32 172 -122q327 158 530 158q242 0 242 -158zM1708 1140q0 129 -198 129q-38 0 -66 -7q79 -35 82 -75v-40q0 -109 -144 -219q-28 -19 -77 -61h35q110 0 233 80 q135 89 135 193zM1288 999q0 14 -14 14q-23 0 -39.5 -23t-16.5 -48v-14q0 -5 7 -5q17 0 40 28.5t23 47.5zM1507 1149v19q-17 -48 -53 -96q34 54 34 108q0 52 -82 52q-214 0 -389 -170v-2q0 -17 36.5 -73t36.5 -78q-3 -2 -11 -5q-35 66 -85 135l-2 -3q-15 -2 -126 -113 q-107 -107 -112 -118l-7 -14h16q224 0 436 113q0 121 94 121q7 -8 7 -26q0 -38 -71 -99l15 -14q29 13 75 51l31 27l-83 -78l-5 -5v-7q79 36 156 114q89 91 89 161zM1236 862h-7q-16 -8 -42 -26q-4 -1 -7 -7q5 5 33 16q24 8 23 17zM1173 821v2q-1 6 -4 6h-1q-4 0 -4 -6l-1 -2 q1 -4 4 -4h2q4 1 4 4zM1159 816v2q-1 6 -4 6h-2q-3 0 -4 -6v-2q1 -6 4 -6h2q3 0 4 6zM1147 809v3q-1 5 -4 5h-1q-4 0 -4 -5v-3q0 -3 4 -3h1q4 0 4 3zM874 999q-1 1 -3 1q-13 0 -13 -12q0 -1 2 -1q14 0 14 12zM829 961q-1 2 -3 2h-2q-2 -2 -2 -5v-2h2h2h2h1v5zM810 942 q-1 2 -3 2h-2q-2 -2 -2 -5v-2h3h1h3v0v5zM1225 874l-14 12h-3q-126 -61 -242 -97q-88 -27 -250 -35q-37 -30 -49 -57h21q280 0 537 177zM935 1107v2q0 13 -31 40q-149 132 -263 120l11 8q-35 7 -106 7q-44 0 -94 -59h3q29 0 82.5 20t84.5 20l7 -3q-136 -35 -172 -58 q-75 -47 -75 -154q0 -85 55 -149.5t140 -83.5q177 182 358 290zM1156 476q0 129 -139 129q-33 0 -81 -14q-55 -16 -69 -38q66 33 134 33h47q7 0 27 -11q64 -36 74 -146q7 21 7 47zM483 1281h-5q-122 0 -218.5 -90t-96.5 -211v-38l7 -12q37 130 143 215q38 21 106 70z M553 787l-7 4q-183 123 -183 255q0 20 10.5 58.5t10.5 58.5q-59 -20 -127.5 -116t-68.5 -159q0 -17 12 -33q46 -63 123 -106q81 -45 155 -45h17q2 0 28.5 37.5t29.5 45.5zM1123 440q0 113 -106 113q-58 0 -106 -30q132 -12 132 -113q0 -100 -112 -202q-90 -83 -203 -130h7 q120 0 253 120q135 124 135 242zM1029 407q0 97 -99 97q-39 0 -52 -7q-27 -15 -85 -104t-58 -117q0 -43 75 -43q17 0 47 13t47 13q-30 -45 -96 -45q-36 0 -85 33q-21 -47 -21 -143q0 -13 2 -22q109 35 209 124q116 103 116 201zM454 636q-3 2 -7 2h-14q-7 0 -11 -2 q4 -5 13 -5h3q10 0 14 5h2zM415 643q-111 19 -196 99v-7q94 -94 186 -94q5 0 10 2zM219 746v2q-1 6 -4 6h-1q-4 0 -4 -6v-2q0 -4 4 -4h1q4 1 4 4zM714 51v2q-1 6 -5 6h-1q-3 0 -4 -6v-2q1 -6 4 -6h1q4 0 5 6zM546 45q-119 42 -150 113q-9 21 -31 63q0 -5 -1 -15.5t-1 -14.5 q0 -67 43.5 -106.5t111.5 -39.5h28zM1454 1072q-31 -47 -104 -108q70 64 104 108z" />
<glyph unicode="D" horiz-adv-x="1505" d="M1291 1032h-5q-3 0 -14 11h7zM1267 1050h-7l-7 5h2l3 2q1 -1 9 -7zM2360 947q0 -140 -110 -228q-103 -83 -246 -83q-74 0 -129 35q-64 41 -64 111q0 31 22 80q24 57 49 57h12q-64 -76 -64 -130q0 -115 170 -115q132 0 233 70q113 78 113 205q0 110 -93 167 q-78 47 -195 47q-223 0 -466 -157q-12 -8 -12 -26q0 6 9 -42q10 -55 10 -102q0 -82 -75 -332q-11 -37 -26 -68q-116 -246 -364 -337q-180 -66 -505 -66q-28 0 -83.5 3.5t-83.5 3.5q-44 0 -147 -14q-88 -12 -197 -12q-45 0 -60 10q-18 13 -16 54l-18 30q0 52 120 52 q124 0 226 -40h-19q8 0 -65 12q-81 14 -138 14h-68q-12 0 -28.5 -12.5t-16.5 -25.5q0 -19 19 -19q24 0 75.5 13t127.5 13q17 0 181 -33l198 94q112 58 172 133l377 464q30 37 132 138q108 109 108 106v5l-2 3q-109 108 -204 145q-29 12 -34 12h-95q-21 0 -44 -7v-2 q0 -35 87 -59q99 -28 115 -52h-7q-120 50 -162 50q0 -15 3.5 -44t3.5 -43q0 -109 -40 -189v-5q0 -9 3.5 -28t3.5 -28q0 -98 -113 -184q-8 -6 -52 -31q155 95 155 245h-9q-69 -129 -245 -294q49 19 88 42l-133 -80q-111 -66 -150 -84q-82 -36 -168 -36q-144 0 -232 74 q-95 79 -95 221q0 166 110 305q97 122 260 203q218 109 346 109q92 0 264 -26q30 -11 94 -26q29 -4 141 -24q109 -19 172 -77q25 -24 38 -24l87 50l139 68h14q1 -16 -7 -19q-50 -23 -118 -63q-92 -55 -92 -74q0 -12 14 -25q276 150 493 150h92q15 0 63 -18q151 -56 151 -210 zM450 98v-1q-1 -4 -3 -5q-2 2 -2 4v2q1 1 2 1h1q2 0 2 -1zM432 104q-2 -4 -8 -7q-3 2 -6 7q1 2 5 2h3q3 0 6 -2zM414 111q-3 -7 -9 -10q-6 8 -6 10q1 2 5 2h4q3 0 6 -2zM393 115q-4 -4 -9 -4t-10 4q2 3 8 3h3q7 0 8 -3zM1536 1006v2q0 24 -19 24l-43 -45q0 -12 12 -12h7z M1493 1069q0 36 -90 73q-81 33 -126 33h-17q101 -59 181 -143h5q10 0 28.5 14t18.5 23zM1561 951q0 17 -7 24q-49 -28 -49 -59q56 0 56 35zM1253 1182v2q-1 0 -2 1h-1q-2 -1 -2 -2v-1q1 -3 3 -4q2 2 2 4zM1465 968h-9q-6 0 -31.5 -29t-25.5 -35q66 22 66 64zM1580 846 q0 65 -11 91l-52 -33q26 -73 37 -226q26 94 26 168zM1385 888v5q0 2 -1 2q-3 0 -6 -7l2 -2zM1072 1206q-28 7 -54 7h-15q10 -14 31 -14q16 0 38 7zM1029 1142q0 21 -23 21q-19 0 -47 -14q32 -7 36 -7h34zM1517 730q0 124 -21 156h-3q-13 0 -32 -12q27 20 27 37h-9l-49 -49h2 q9 0 21 7q-23 -17 -23 -33q0 -17 5.5 -51.5t5.5 -52.5q0 -135 -69 -272q-68 -133 -176 -222q-28 -24 -56 -54q169 84 268 220q109 148 109 326zM1060 1017q0 92 -26 109q-33 4 -50 4h-75q-193 -87 -264 -174q16 1 31 1q53 0 87 -15q6 0 45 -19q99 0 119 -3q52 -10 100 -58 q33 17 33 155zM984 1194q-17 26 -77 26q-389 0 -582 -245q138 92 316 138l336 74zM1022 848q-45 63 -158 63h-37q63 -82 63 -169q0 -64 -37 -144q169 170 169 250zM1430 758q0 73 -19 73q-11 0 -19 -7q-152 -125 -330 -381q-138 -199 -280 -266l-238 -106q-1 -14 120 -14 q426 0 644 312q122 173 122 389zM860 761q0 41 -20 85q-23 54 -58 54q-70 0 -243 -120q66 80 231 131q-17 26 -94 26q-31 0 -57 -7q-122 -115 -162 -214l19 14q-71 -66 -71 -188q0 -102 127 -102q125 0 226.5 98t101.5 223zM1133 176v2q-1 6 -4 6h-1q-4 0 -5 -6v-2 q1 -4 4 -4h2q4 1 4 4zM1133 150v2q-1 6 -4 6h-1q-4 0 -5 -6v-2q1 -4 4 -4h2q4 1 4 4zM1121 145v2q-1 6 -4 6h-1q-4 0 -4 -6v-2q0 -6 4 -6h1q4 0 4 6zM1107 138v2q-1 6 -4 6h-1q-4 0 -4 -6v-2q0 -4 4 -4h1q4 1 4 4zM1095 131v2q-1 6 -4 6h-1q-4 0 -4 -6v-2q1 -4 4 -4h1 q4 1 4 4zM1083 126v2q0 6 -4 6h-1q-4 0 -4 -6v-2q1 -6 4 -6h1q4 0 4 6zM770 1119h-7q-22 0 -132 -38q-153 -53 -291 -176q-161 -145 -161 -283q0 -20 13 -54t13 -52q-23 18 -44 70q-20 49 -20 81q1 2 3 7q-1 4 0 4q47 195 249 403q-21 -8 -49 -31q-24 -17 -69 -55 q-164 -148 -164 -333q0 -128 76 -203t204 -75q85 0 148 26q-16 -3 -75 -3q-167 0 -226 78h2q113 -63 229 -63q-139 39 -139 174q0 294 440 523zM1069 119v3q-1 5 -4 5h-1q-4 0 -4 -5v-3q1 -3 4 -4h1q4 1 4 4zM1053 115q-2 3 -5 3l-2 -3l4 -4q3 2 3 4zM1039 107v2q-1 6 -5 6 h-1q-3 0 -4 -6v-2q1 -6 4 -6h1q4 0 5 6zM1020 101v2q-1 5 -4 5h-1q-4 0 -5 -5v-2q1 -4 4 -4h2q4 0 4 4zM638 146l-143 -57h11q97 0 132 57zM125 64q0 12 -10 21h-11q-15 0 -31 -7q5 -14 39 -14h13zM137 45l-85 21q0 -21 16 -21h69zM525 773q0 -10 -19 -19h-1q0 8 20 19z M235 489q0 -4 -3 -4h-2q-4 1 -4 4v2v2q-1 -1 -2 -1h-1q-4 1 -4 4v1h-1q-3 0 -4 6v1h-1h-2q-4 1 -4 4v2q1 6 4 6h1q4 0 5 -6q0 1 1 1h2q3 0 4 -7v0q4 0 4 -6v-2q1 1 2 1h1q4 0 4 -6v-2z" />
<glyph unicode="E" horiz-adv-x="959" d="M1347 1022q0 -87 -75 -136q-64 -43 -156 -43q-111 0 -150 38l-45 52q-144 -83 -257 -128q66 -6 81 -11q38 -12 63 -50q14 -21 14 -26q0 -37 -45 -37q-29 0 -83.5 18.5t-83.5 18.5q-26 0 -104 -44q-278 -161 -278 -382q0 -200 149 -200q0 187 19 258q34 129 155 199 q65 37 141 37q210 0 210 -174q0 -169 -166 -281q-139 -93 -324 -110v-7q0 -18 10.5 -53t10.5 -53q-9 -1 -14 14q-10 33 -33 99q-200 28 -263 150q-20 39 -20 71l1 41q1 194 188 360q57 33 139 94q-15 -1 -32 -1q-206 0 -279 135q-47 88 -47 161q0 141 144 221 q-3 147 76 233.5t225 86.5q113 0 206 -61q105 -69 105 -177q0 -12 -9 -14q-20 148 -174 208q-50 19 -85 19l-43 -1q-116 -1 -191 -58q-82 -63 -84 -175l-1 -26q0 -11 8 -16h4q14 0 38.5 9.5t37.5 9.5h68q141 0 297 -102h19l99 31q85 27 190 71q45 18 97 18q101 0 101 -80 q0 -17 -5 -40q151 -49 151 -167zM1185 1201v64q0 37 -78 37q-101 0 -137 -44q78 -5 102 -50q17 0 52.5 -6t53.5 -6q4 2 7 5zM1041 1208v3q0 23 -64 23q-68 0 -106 -45h10q-26 0 160 19zM1331 1029q0 82 -90 126q-71 34 -162 34q-1 -19 -38 -110v-3l31 -19h7l19 12 q-11 -11 -21 -43q-9 -27 -31 -42q-2 0 -56 -22q-42 -18 -43 -29q52 -64 162 -64q88 0 149 35q73 43 73 125zM1060 1032q-26 -17 -71 -57q71 31 71 57zM1060 1046q-12 12 -38 11q-85 -56 -85 -96q58 0 123 85zM1053 1192h-33q-47 0 -132 -26q-99 -30 -99 -61 q0 -12 15.5 -28.5t15.5 -30.5h-5l-45 42q-23 -18 -51 -57q-31 -44 -31 -68q19 0 59.5 -6t60.5 -6q22 0 103 52q142 90 142 189zM921 970v5q-12 -5 -31 -19h12q19 0 19 14zM725 1126q-12 -5 -30 -24q21 10 30 24zM895 933h-12q-32 0 -49 -7q-11 -7 -34 -20q-31 -18 -79 -37 q-83 -33 -83 -38q0 -15 17 -14l4 3q24 -4 120 44q93 46 116 69zM770 926q-28 7 -62 7h-39q-6 -9 -19 -45h9q10 0 111 38zM676 1171q-76 101 -276 101q-87 0 -146 -33q13 -32 19 -42q15 -26 33 -26q117 58 151 56q-50 -22 -146 -75v-7q86 -77 86 -78q60 -47 100 -47 q105 105 179 151zM810 721q-17 -12 -52 -29h15q37 0 37 29zM784 735q-2 2 -7 9h-4q-5 0 -19.5 -15t-21.5 -18q52 1 52 24zM782 756q-24 31 -93 31h-27q-5 0 -17 -5q3 -14 12 -19q7 1 16 1q15 0 45 -4t45 -4h19zM718 711v2q-1 5 -4 5h-1q-3 -1 -4 -5v-2l4 -4h1zM638 763 l-12 12q-1 -5 -2 -7q0 -10 7 -12zM805 541v2q-5 10 -10 13q-3 -2 -4 -6v-2q1 -6 3.5 -6t1.5 -1l4 -4h1zM812 531q-1 6 -4 6h-1q-3 -2 -4 -6v-2q1 -6 4 -6h1q4 1 4 6v2zM261 1149v3l-30 68q-3 1 -7 2q-9 0 -19 -7q-83 -60 -83 -146v-33q0 -14 8 -28l49 57l68 68q10 9 14 16z M480 982l-4 7q-86 49 -104 61q-57 37 -92 76l-12 -5q-115 -108 -115 -158q0 -1 2 -7q97 -106 255 -106q26 0 52 7zM570 725l-5 3l-2 -3l2 -4zM582 744q-9 6 -26 19h-3q-51 0 -115 -56h5q6 0 27 8.5t112 28.5zM551 718h-6q-9 0 -46 -19h5zM492 692v2q-1 5 -4 5h-1 q-4 -1 -4 -5v-2l4 -4h1zM480 685v2q-1 5 -4 5h-1q-3 -1 -4 -5v-2l4 -4h1zM525 777v5q-5 5 -30 23h-3q-17 0 -50.5 -3.5t-50.5 -3.5q-98 0 -160 26q-28 20 -78 40q0 -56 79 -89q62 -26 128 -26q67 0 142 16q23 6 23 12zM153 870q-1 6 -4 6h-1q-4 -2 -4 -6v-2q1 -6 4 -6h1 q4 2 4 6v2zM803 445q0 92 -38 92q-101 0 -221 -90q64 78 200 102l-12 7q-4 0 -14 1t-16 1q-149 0 -259 -254v-3q0 -35 70 -35q11 0 31 6t31 6v-5q0 -10 -38 -19q-9 -7 -30 -7q-14 0 -38.5 9.5t-37.5 9.5l-7 -12q-21 -76 -21 -144v-21q145 0 270 104q130 109 130 252z M864 429q0 99 -51 99q0 -14 4.5 -42.5t4.5 -42.5q0 -120 -139 -264q21 8 42 20q-25 -21 -80 -58q-107 -59 -240 -82v-14q205 0 372 183l-29 -13q116 86 116 214zM669 168v2q0 1 -1 4q-4 -1 -6 -7l2 -2zM382 45q0 26 -80 26h-22q47 -26 102 -26zM275 81l-3 1h-3l-2 -1 q2 -3 4 -8zM1163 1137l-4 -4h-1l-4 4v2q1 5 4 6h1q4 -2 4 -6v-2zM1135 1107q-11 -24 -26 -24l-3 2q1 4 29 22zM508 1241q-3 -4 -11 -5q-11 2 -11 5l8 2h6q1 0 8 -2zM476 1234l-5 -5l-2 5l2 2zM801 549v-1q-1 -6 -4 -6h-1v1q1 5 4 6h1zM537 440l-4 -4h-1l-4 4v2q1 5 4 5h1 q3 -1 4 -5v-2z" />
<glyph unicode="F" horiz-adv-x="1797" d="M2628 1046l-4 2h-3q-15 14 -14 19q-99 113 -264 113q-14 0 -18 -12q-83 -43 -163 -49q-19 -1 -56 -7q-81 -21 -231 -193q-95 -109 -222 -297q26 -7 52 -7q90 0 143.5 44.5t61.5 44.5q6 0 16.5 -3.5t16.5 -3.5q5 0 31 12l7 -5v-7q-143 -180 -184 -294l-137 -64h-14 q1 29 120 181l-7 8q19 26 45 68q0 8 7 14q-6 -3 -106 -21q-41 -8 -89 -31q-94 -150 -163 -231q31 -91 31 -183q0 -261 -195.5 -446.5t-457.5 -185.5q-250 0 -380 149q-126 144 -117 396q-4 5 -47 32q-179 112 -179 300q0 232 247 367q211 116 458 104q87 49 237 150l73 58 q125 90 370 124l337 44q70 10 109 10q38 0 115 -1h114q34 0 101 -6.5t100 -6.5q8 0 7 -7q252 -59 252 -179zM1312 1123v2q-1 5 -4 5h-1q-4 -1 -5 -5v-2l4 -4h2zM1288 1118v2l-1 1h-2l-1 -1v-1l2 -5zM2049 1112l-12 7q-21 0 -138 13q-181 20 -281 20q-193 0 -511 -146 q-82 -38 -82 -172q0 -12 8 -21q4 -5 59.5 -45t58.5 -40.5t12 -0.5l22 1q109 1 233 61q148 70 148 165q0 72 -92 72q-76 0 -142 -23l-19 -6q-3 -3 -8 -5h-3q85 44 161 44q115 0 115 -75q0 -24 -7 -45q40 34 89 113h3q9 0 9 -14q0 -16 -40 -75q-92 -137 -184 -199 q-110 -74 -259 -74v-19q0 -13 2.5 -38.5t2.5 -37.5q160 54 327 69q16 15 69 87q65 88 169 192q125 125 196 154q9 3 28 8q23 8 66 30zM1271 1115l-2 1h-3l-3 -1q2 -3 4 -8zM1251 1105q-5 0 -19 -5q9 0 19 5zM1225 1094q-1 5 -4 6h-2q-3 -2 -4 -6v-2q1 -6 4 -6h2q3 1 4 6v2z M1208 1086q-19 0 -26 -12zM1503 622h-35q-58 0 -157 -22q-124 -26 -124 -61q0 -12 18 -17l34 -6q12 -3 75 -33q36 29 137 70q26 11 33 31h-17q-17 0 -47 -15t-47 -16q0 22 55 43zM1439 520v8q-52 -15 -99 -57v-7q16 -16 31 -24q8 8 26 24zM1013 954q-19 -7 -83.5 -45 t-74.5 -49q43 -8 127 -31q7 73 31 125zM1178 598q0 65 -49 86q-53 23 -90 58q-14 15 -45 42q-46 33 -179 33q-29 0 -73 -52q309 -27 346 -226q13 0 39 -2t39 -2q5 3 5 11t-8 7q15 11 15 45zM1076 426h-2v-4zM1055 516q-97 0 -195 -63t-137 -152h9q73 0 205 45 q118 40 118 170zM1352 415l-38 37q-47 -35 -101 -94q-7 2 -7 12q0 15 82 94v7q-58 38 -113 38q-66 -104 -209 -205q-105 -74 -271 -85v-56l-12 7v56q-35 13 -108 26q0 -132 235 -132q154 0 308 83t234 212zM1050 535v9q0 52 -60 100q-74 60 -206 60q-82 0 -119 -19 q-44 -22 -131 -140.5t-87 -160.5q59 -71 130 -71q10 0 28.5 7t28.5 7q11 0 26.5 -13t29.5 -13q13 0 49 50q43 60 48 64q102 95 263 120zM1062 143v2q-1 5 -4 6h-1q-4 -2 -4 -6v-2l4 -4h1zM944 313q-117 -37 -233 -42q-10 -8 -9 -21q200 0 242 63zM688 264q-1 1 -3 7 q-4 -23 -4 -14v-5q7 2 7 12zM610 671q-103 -24 -183.5 -120t-80.5 -200q0 -43 19 -94q7 6 7 14q45 116 45 125q0 11 -2.5 34t-2.5 34h5q2 -23 12 -42l7 4q75 144 174 245zM1043 139h-2q-39 0 -115.5 -16.5t-115.5 -16.5q-182 0 -224 82q-9 26 -33 76q-12 20 -117 106 q-13 -8 -32.5 -61.5t-19.5 -72.5t33 -55q111 -120 356 -120q143 0 270 78zM761 817h-40q-208 0 -387 -109q-207 -127 -207 -322q0 -210 200 -299h7q9 42 19 127q-44 89 -44 170q0 114 87 217q82 97 195 134l91 29q48 19 79 53zM568 290l-5 2l-2 -2l2 -5zM553 294v2 q-1 5 -4 5h-1q-3 -1 -4 -5v-2l4 -4h1zM1446 158v70q0 47 -21 69l-2 -3h-3q-304 -282 -796 -282q-80 0 -259 37q-3 3 -8 3h-6q0 -243 115 -377q123 -144 361 -144q254 0 436.5 186t182.5 441zM704 38q-205 23 -332 150l-7 -18q-5 -29 -12 -88q8 -14 79 -30q63 -14 91 -14h181 zM1289 983l-1 -3h-4l-3 2l6 6l2 -4v-1zM1274 972l-4 -4h-1l-4 4v2q1 5 4 6h1q3 -2 4 -6v-2zM1262 965l-4 -4h-1l-4 4v2q1 5 4 6h1q4 -2 4 -6v-2zM1244 953l-4 -4h-2l-4 4v2q1 5 4 6h1q4 -2 4 -6zM1218 934l-4 -4h-2l-4 4v2q2 6 4 6h1q4 -2 5 -5v-3zM1194 915l-4 -4h-1l-4 4 v3q1 5 4 5h1q3 -1 4 -5v-3z" />
<glyph unicode="G" horiz-adv-x="1547" d="M2044 1119q0 -197 -327 -396q-28 -17 -82 -45l-427 -155q-109 -40 -297 -64q-30 -19 -30 -92q0 -197 113 -197q128 0 235 75q34 24 150 139q76 75 131 75q16 0 16 -9q0 -3 -1 -10.5t-1 -10.5h9l33 18h5l-99 -101q0 7 -7 7q-3 0 -125 -94q-11 -21 -19 -38v-7l125 113h7 l-122 -146q-20 -21 -62 -73q-6 -9 -65 -140q2 1 4 1q77 98 264 285q6 7 19 17l-244 -289q-38 -43 -121 -145l-176 -236l-352 -472q-33 -45 -68 -45q-40 0 -40 47q0 96 195 398h-11q-22 -2 -108 -16q-66 -10 -109 -10q-172 0 -296 75q-147 90 -147 250q0 166 147 280 q137 106 308 106q124 0 217 -61q108 -70 108 -188q0 -126 -109 -206q-98 -72 -228 -72q-57 0 -127 14q-97 19 -97 52q141 -43 219 -43q122 0 213 64q103 72 103 188q0 101 -85 152q-70 44 -177 44q-171 0 -300 -94q-142 -104 -142 -269q0 -135 131 -210q108 -61 255 -61 q148 0 226 36q40 18 113 117q82 116 254 339q41 52 128 149v5q-109 -57 -212 -57q-248 0 -248 221q0 20 6 58.5t6 57.5q-218 0 -306 103q-6 7 -14 19l-71 137q-35 68 -35 148q0 200 146 331q141 126 344 126q21 0 63.5 -3.5t63.5 -3.5q25 0 60 20q48 26 58 30q164 58 315 58 q87 0 158 -11q80 -14 160 -84q23 -21 26 -25q23 -33 31 -33q19 0 57.5 3.5t57.5 3.5q207 0 207 -150zM1917 1081v77q0 17 -24.5 36t-42.5 19h-114q0 -18 -3.5 -53.5t-3.5 -52.5v-7h125q11 0 31.5 -9.5t31.5 -9.5zM1924 989v5q-49 -59 -70 -94q24 19 62 65l4 7q4 8 4 17z M1713 1182l-1 26q-81 0 -204 -58q-109 -52 -182 -114q0 -28 33 -61q188 85 339 118q16 15 15 89zM1691 1258v4q-7 14 -12 19q-106 116 -329 116q-262 0 -387 -102q177 -68 306 -195h15q186 104 407 158zM1698 1074q-42 0 -80 -14q-108 -40 -214 -104q-9 -3 -22 -14v-12 q18 -36 57 -101q11 1 75 38q149 85 184 207zM1912 1060q0 11 -19.5 19.5t-31.5 8.5h-113q-20 0 -54 -65q-43 -80 -48 -86q-143 -160 -365 -160q-7 0 -23.5 1.5t-25.5 1.5l-12 7l7 4q115 -13 181 26q-23 48 -56 102h-7l-57 -38q-10 -7 -174 -137q-54 -42 -158 -134 q0 -31 189 -31q168 0 414 137q114 63 212 145q141 118 141 199zM1326 956q0 12 -11.5 31t-21.5 19h-5q-104 -70 -212 -201q-7 -8 -7 -14q142 104 257 165zM1239 1074v7q-170 184 -309 184q-35 0 -108 -78t-73 -115v-3q137 38 188 38h12l-118 -30q-85 -25 -102.5 -49.5 t-17.5 -125.5q0 -144 106 -235q9 0 113 136q53 69 146 145zM1512 443q-25 0 -42 -14q-50 -40 -106 -113q33 5 90.5 51.5t57.5 75.5zM1401 327l-49 -30l-7 -14q23 0 56 44zM874 1277q-40 7 -97 7q-171 0 -300 -104q-138 -111 -138 -278q0 -85 33 -141q16 17 33 55 q21 44 31 58q74 105 245 169q60 117 188 226q3 3 5 8zM1145 561q-45 0 -132 14q-58 9 -57 9h-12q-7 -17 -14 -45q118 0 215 22zM805 636v12q-9 6 -25 19q-68 68 -91 108q-30 55 -30 136q0 16 4 46.5t4 45.5v10q-88 -38 -169 -116q-95 -93 -95 -172v-14q153 -165 337 -165h11 q2 0 54 90zM667 461q-1 3 -6 3h-2q-5 0 -5 -3q0 -6 7 -6h2q3 -1 4 4v2zM1112 6v2q-1 6 -4 6h-2q-3 0 -4 -6v-2q1 -6 4 -6h2q3 0 4 6zM648 466q-116 24 -245 137q0 -52 87 -98q78 -41 136 -41q3 0 10 1.5t12 0.5zM923 131v2q-1 6 -4 6h-1q-4 0 -4 -6v-2q1 -4 4 -4h1q4 1 4 4z M907 132q-1 4 -4 5h-1q-2 -2 -2 -4v-2q0 -3 1 -3h1q2 1 5 4zM874 151q-40 28 -87 94q0 -34 21 -64t54 -30h12zM1095 -12q-12 -7 -119 -148t-107 -146q101 89 219 282q2 4 7 12zM987 -301q-52 -46 -128 -90q-25 -11 -65 -35q-33 -29 -127 -185q-82 -138 -114 -204 q-18 -40 -18 -63q0 -19 9 -19h5q9 5 23 19zM1081 1119q-5 -5 -20 -5h-10q-15 0 -19 5q1 2 4 2h38q5 0 7 -2zM995 1114q0 -4 -13 -5h-3q-6 0 -11 3v1q0 3 11 3h5q5 0 11 -2z" />
<glyph unicode="H" horiz-adv-x="2320" d="M2244 773l-7 -8v8l7 7v-7zM2214 737l-2 -2q0 -12 -12 -12v5q4 5 12 14v-2zM3307 1208q0 -99 -99 -162q-31 -20 -139 -61q-17 -5 -47 -17l-44 -28q-213 -130 -540 -224q-5 -4 -12 -12l-42 -63q-109 -162 -213 -277l-57.5 -63.5t-33.5 -74.5q35 -2 70 -38h3q10 0 110 76h5 v-7q-90 -86 -162 -125h9q20 0 55.5 16.5t55.5 16.5l4 -2q-89 -48 -176 -48v-28q0 -12 21 -12q57 0 119 41q4 3 100 79q18 14 52 43q18 19 61 52v-19q-20 -34 -117 -108q-80 -60 -137 -95q-44 -26 -90 -26q-54 0 -74 50l-22 96h-5q-31 0 -101 -44h-10q-14 0 -16 7 q13 20 49 34l59 22q16 8 69 112l63 126q15 25 42 75v8q-89 44 -132 44q-240 -341 -584 -452v-5q0 -40 93 -71q76 -25 131 -25q19 0 55.5 9.5t55.5 9.5q-24 -33 -113 -33q-112 0 -184 44l-38 32q-24 20 -42 20q-88 -39 -332 -72q-219 -29 -351 -29q-224 0 -369 64 q-199 88 -199 282q0 216 250 339q200 99 443 99q90 0 155 -11q105 -19 104 -19q66 0 172 7v2q0 11 -6 31t-6 30q0 8 7 12q28 -101 167 -101q215 0 530 158l38 23q42 24 136 73q19 8 52 28v8q-40 11 -52 30q-11 16 -11 57q0 4 3.5 12.5t3.5 13.5q0 63 -153 63 q-124 0 -238 -55q-139 -68 -139 -178v-19q0 -47 50 -74q41 -22 94 -22q73 0 150 41t90 41q-111 -94 -240 -94q-60 0 -108 33q-53 37 -53 94q0 105 141 180q120 65 236 65q219 0 219 -101q0 -9 -3.5 -26t-3.5 -26q0 -24 26 -24q42 0 85 34l73 60q32 16 94 50l94 71h12 l-26 -26q33 -5 33 -24q0 -21 -85 -61q-90 -43 -105 -53q-37 -25 -81 -88l38 30v-4l-200 -285q-11 -14 -29 -43q-2 -5 -2 -23q101 0 125 35l5 -12h44q19 0 31 12l440 429q201 195 417 195q182 0 182 -125zM3274 1208q0 111 -144 111q-202 0 -391 -214q165 108 306 108 q92 0 92 -78q0 -52 -78 -136q83 17 145 70q70 61 70 139zM3123 1130q0 71 -54 71l-3 -2q26 -19 26 -52q0 -71 -89 -160h14q-10 0 19 5q87 80 87 138zM2991 961h-19l-139 -87q99 47 158 87zM3036 1135q0 40 -52 40q-148 0 -419 -271q-2 -2 -43 -58q-29 -40 -58 -85 q12 -1 11 0q143 50 232 86q171 71 209 114q-23 5 -64 19q-40 20 -45 35l3 2q61 -37 132 -37q94 87 94 155zM2826 866v2q0 6 -4 6h-1q-4 0 -4 -6v-2q0 -6 4 -6h1q4 0 4 6zM2814 859v2q0 6 -4 6h-1q-3 0 -4 -6v-2q1 -4 4 -4h1q4 1 4 4zM2800 852v2q-1 6 -4 6h-1q-4 0 -4 -6v-2 q1 -4 4 -4h1q4 1 4 4zM2789 847v2q-1 6 -5 6h-1q-3 0 -4 -6v-2q1 -6 4 -6h1q4 0 5 6zM2758 833v2q-1 6 -4 6h-1q-4 0 -4 -6v-2q0 -4 4 -4h1q4 1 4 4zM2244 685h-18q-25 0 -57 -14q-40 -18 -40 -68q1 -3 2 -7l31 -12q31 31 82 101zM2136 652v15q-96 0 -113 -45q35 -12 71 -12 zM2139 553q0 28 -71 19l7 12q-19 12 -64 19q-7 -5 -11 -19l117 -45h7q15 0 15 14zM2200 1017l-398 -206q-237 -110 -424 -121q56 -66 56 -137q0 -11 -3.5 -33t-3.5 -32q15 0 68 30l71 40q56 29 120 40l86 14q55 12 77 36l136 162l72 66zM2087 177q0 18 -17 18q-21 0 -21 -63 l7 -7q31 23 31 52zM1811 603h-19q-16 0 -56 -12q-263 -77 -346 -209q-38 -60 -38 -175q0 -11 7 -12l2 -2l3 2q6 1 26 12q241 138 327 276q-10 0 -214 -106h-15q1 27 115 82l145 69q32 20 63 75zM1564 211v2q-1 6 -4 6h-1q-4 0 -5 -6v-2q1 -3 4 -4h2q4 1 4 4zM1397 537 q0 160 -245 160q68 -78 68 -151q0 -94 -78 -162q-65 -57 -167 -83q-9 0 -26 -3q-32 -6 -75 -22q66 -26 141 -26q87 0 148 21q25 8 35.5 23.5l21.5 32.5q4 6 18 21q-20 -25 -30 -54h3q37 0 95 58q50 50 72 93q-64 -28 -104 -61q10 10 14 13l90 62q19 14 19 78zM1321 170v9 q0 12 -3.5 36.5t-3.5 36.5q0 13 3.5 40t3.5 40q-33 -24 -127 -75v-31q0 -82 61 -82q14 0 66 26zM1182 546q0 46 -25 92q-30 54 -71 54q-124 0 -263 -124q-142 -127 -142 -248v-11q16 -8 42 -8h57q144 0 257 51q145 66 145 194zM1239 132q-64 49 -64 120q-87 -26 -155 -26 q-48 0 -101 10q-78 14 -69 40q-19 0 -73 4q-46 3 -73 3h-28q0 -108 103 -172q87 -54 203 -54q134 0 257 75zM1001 735l-7 7q-57 26 -196 26q-227 0 -410 -97q-223 -118 -223 -325q0 -327 554 -327q14 0 41 -1.5t41 -1.5q77 0 110 22q-235 40 -275 252l-85 52q-47 33 -47 82 q0 27 12 35l-1 -11q-2 -47 33.5 -87.5t82.5 -40.5q7 0 19 50q5 21 17 63q71 204 334 302zM1274 384q-18 -17 -36 -36q15 19 36 36z" />
<glyph unicode="I" horiz-adv-x="1856" d="M2706 1366q0 -38 -80 -64q-34 -11 -91 -53q-62 -46 -69 -74q-25 -23 -68 -70l-358 -471q52 14 117 61q95 69 109 78v-8q0 -41 -102 -91q-49 -20 -143 -64l-158 -184q-366 -407 -942 -407q-151 0 -271 38q-8 2 -46 21q-34 16 -41 16q-17 0 -57 6l-56 6q-117 12 -207 67 q-113 68 -113 171t99 166q79 51 195 62q21 1 64 5q23 3 80 49q74 59 82 64q221 134 542 139q14 61 42 82v-4q0 -8 -9.5 -31.5t-9.5 -46.5q152 -22 222 -71q27 -18 49 -18q22 10 106 26q78 15 127 44q92 292 594 401q42 6 122 25l78 43q80 43 193 87zM2520 1262v1q-1 6 -4 6 h-1q-4 0 -4 -6v-1q0 -7 4 -7h1q4 0 4 7zM2504 1255q-33 -11 -33 -21l2 -2q9 2 31 23zM2365 1194h-12q-205 -51 -319 -112q-167 -89 -235 -234h14q27 12 76 38zM2440 1206h-9q-16 0 -109 -61l-301 -203q-33 -21 -182 -106q-16 -8 -46 -25q-12 -8 -12 -67q0 -115 113 -115 q4 2 7 5q198 265 360 409zM1328 784q-51 19 -92 19h-21l7 -12q100 -7 83 -7h23zM1875 596v7q-151 35 -163 162h-12q9 0 -101 -30l-101 -31q45 -68 45 -141q0 -164 -219 -293q-149 -88 -365 -145v-3q0 -7 50 -18q45 -10 63 -10h66q226 0 419 151q62 49 162.5 158t143.5 174 q12 18 12 19zM1500 582q0 80 -59 108q-77 5 -96 7q-51 7 -92 26h-17q-156 0 -298 -121q-149 -126 -149 -279q0 -57 40 -117q43 -67 97 -67q62 0 169 42q156 62 165 76h-9q-17 0 -50 -2.5t-49 -2.5q-97 0 -201 57v4q0 10 8 14q113 -51 200 -51q141 0 238 81q103 86 103 225z M1199 791v3q0 11 -7 16h-66q-140 0 -271 -42q-148 -47 -236 -134l-49 -50v-7q146 -19 200 -80q15 9 31 37q19 35 26 43q160 181 369 207zM1276 263v2q0 6 -4 6h-1q-3 0 -4 -6v-2q1 -6 4 -6h1q4 0 4 6zM871 132q-3 1 -7 7l-37 31q-76 61 -76 190q0 19 6 56.5t6 56.5 q0 35 -81 64q-68 24 -114 24q-44 0 -71 -87q-21 -67 -21 -125q0 -161 132 -236h132q10 0 117 12zM1204 68h-114q-29 0 -100 22.5t-88 22.5q-44 0 -132 -9.5t-132 -9.5l7 -7q161 -49 212 -49h91q124 0 256 30zM537 120q-113 99 -113 236q0 49 23 105l48 97q-5 0 -14.5 1.5 t-14.5 1.5q-106 0 -192 -51q-102 -60 -102 -159q0 -110 128 -177q107 -56 228 -56q3 1 9 2z" />
<glyph unicode="J" horiz-adv-x="2259" d="M1830 761l-2 -3h-3v3q-12 7 -19 19v4zM3187 1300l-5 -7q-167 -42 -326 -169q-98 -78 -265 -257q12 -36 19 -102h7l75 52h14v-4q-42 -23 -108 -85q-77 -122 -156 -181q-75 -57 -216 -102l-116 -136l-28 -33q147 36 243 129q70 68 117 68q0 -11 -21 -28 q-175 -144 -377 -207q-232 -216 -438 -319q-248 -124 -525 -124q-143 0 -235 40q-98 43 -114 43q-36 0 -108 -11t-108 -11q-168 0 -283 48q-160 66 -160 209q0 93 72.5 165.5t165.5 72.5h19q-215 -47 -215 -229q0 -171 182 -222q87 -25 320 -25q57 0 97 21 q-132 123 -132 248q0 219 233 346q194 106 433 106q396 0 396 -247q0 -92 -83 -179q62 14 321 68q86 84 200 214v7q-90 36 -120 100q-24 51 -19 157q-84 1 -106 38h2q15 0 42.5 -9.5t42.5 -9.5h26q37 166 276 339v7q-32 5 -83 5q-130 0 -229 -48q-126 -61 -126 -178 q0 -12 5.5 -34.5t5.5 -34.5q-26 17 -26 69q0 118 130 185q106 55 236 55q18 0 56 -3.5t57 -3.5q365 219 697 219q24 0 116 -5q72 -3 117 0zM2986 1269q-2 3 -4 3l-3 -3l5 -4q2 2 2 4zM2993 1251h-7q-189 -87 -282 -189q4 4 235 151q21 11 54 38zM2968 1262h-38q-6 0 -71 -14 q-315 -68 -501 -219v-2q0 -9 7 -24t7 -23q0 -10 -7 -26.5t-7 -25.5q14 0 43 3.5t44 3.5q12 0 36.5 -3.5t36.5 -3.5l82 79q200 188 368 255zM2998 1300h-49q-342 0 -672 -219l12 -14q-8 1 -15 1q-14 0 -22 -6q-196 -137 -257 -320h5l4 -2q23 0 116 44q-27 -22 -71 -36 q-38 -12 -49 -25q-19 -23 -19 -82q0 -61 28 -109q33 -56 89 -56l5 2h5q113 113 174 193q-82 11 -113 57l-16 37q-14 29 -22 26q9 11 19.5 65.5t56.5 104.5q139 152 364 237q164 61 427 102zM2504 904v3q0 19 -29 19h-21q-54 0 -96 -15q14 -14 18 -14h113q8 0 15 7zM2572 829 l-7 7l-125 -132h5l4 -2q20 0 73 21q34 13 42 26t8 51v29zM2478 878q-50 0 -95 8q-5 1 -21.5 6t-25.5 5q-16 0 -35 -19v8q5 6 14 18v3q0 6 -3.5 17.5t-3.5 17.5q0 14 10.5 30.5t10.5 28.5q-30 0 -77 -84q-45 -80 -45 -116q0 -41 29 -70t70 -29q84 81 172 176zM2546 704h-5 l-132 -37q-31 -31 -157 -189v-7h7q22 11 37 12q189 85 250 221zM1606 349q0 235 -365 235q-226 0 -402 -106q-208 -125 -208 -337q0 -123 113 -226q8 -7 19 -7q8 0 7 7q-26 57 -26 116q0 178 167 308q156 120 340 120q92 0 154 -39q74 -46 74 -133q0 -61 -56 -148v-7 q78 0 133 70q50 66 50 147zM1849 200h-45q-13 0 -151 -35q-23 -6 -117 -26l-125 -57l-50 -18l5 -7q-3 0 -6 1q-20 0 -86.5 -41t-100.5 -41h-26q-7 0 -7 22q0 12 45 47q-12 2 -69 23q-99 -85 -282 -160q-8 0 -14 -7q70 -82 287 -82q176 0 442 152q28 15 81 48l12 12h-12 q-18 0 -52.5 -2.5t-51.5 -2.5q-94 0 -153 23h9q21 0 61.5 -5.5t61.5 -5.5q195 0 344 162zM1147 198q0 66 -35 66q-55 0 -55 -80q0 -26 13 -53q15 -32 37 -32q15 0 29 42q11 36 11 57zM1441 273q0 123 -193 123q-165 0 -312 -106q-161 -115 -161 -274q0 -96 35 -96 q37 0 158.5 65.5t121.5 92.5q-51 72 -51 110q0 90 75 90q52 0 52 -73q0 -54 -38 -118q19 -26 94 -26l121 37q55 19 80 81q18 48 18 94zM801 -115q-1 4 -4 4h-2q-3 -1 -4 -4v-2q1 -5 5 -5h1q3 0 4 5v2zM789 -111v1q-1 4 -5 4q-2 -1 -2 -5l5 -4q2 2 2 4zM2301 1063v-1 q0 -3 -2 -5q-3 2 -3 5v2q1 0 2 1h1q2 -1 2 -2zM1368 191q0 -52 -35 -52q-8 0 -21 9.5t-21 9.5q-15 0 -15 -13q0 -19 3 -32q-19 12 -19 50q0 70 64 70q44 0 44 -42zM1298 94h-7l-1 1q-3 3 -4 6h-2v3l2 2z" />
<glyph unicode="K" horiz-adv-x="2442" d="M2141 1120v-1q-1 -4 -2 -5q-3 2 -3 4v2q1 1 2 1h1q2 0 2 -1zM2937 1293q-38 99 -132 99q-76 0 -185 -112q-90 -93 -138 -185q156 137 288 137h44q6 -2 17 -6q54 -23 54 -77q0 -49 -47 -49q-42 0 -42 49q0 19 18.5 32t18.5 25q0 14 -63 14q-122 0 -243 -132l-225 -254 q-152 -154 -272 -184q-17 -4 -45 -21q116 -97 116 -224q0 -23 -6 -68.5t-6 -68.5q17 21 41 45q18 18 52 45l34 26q49 38 76 38q-70 -35 -110 -64q-31 -23 -52 -45q-48 -49 -48 -101q0 -125 31 -125q96 0 129 127v-14q0 -28 -12 -63h12q-19 -14 -26 -33q186 143 186 266l-2 2 q-2 11 -5 33h5q14 0 14 -42q0 -29 -19 -66h14q0 -29 -143 -182q-86 -91 -160 -91q-19 0 -58.5 23.5t-55.5 23.5h-18q-5 -11 -38 -92v9q0 16 13 45t13 45q-90 89 -90 141q0 55 36 128l66 117v9q0 36 -11 79q-15 58 -39 58h-82l-12 12q-4 1 -7 7q8 -8 10 -7h4q4 12 17 33 q81 15 157 54q68 35 151 131l123 154l157 155l14 14l103 106q16 20 51 55q100 84 197 84q130 0 130 -115zM2371 429q-2 -4 -9 -7q-3 2 -6 7q1 2 5 2h4q3 0 6 -2zM2323 428q0 -6 -10 -6q-11 5 -11 7q2 2 9 2h3q5 0 9 -3zM2252 240q-1 -4 -5 -4v0q-2 0 -2 3v3q0 5 2 5 q3 -3 5 -7zM2306 1293q0 -30 -44 -50l-69 -30q-38 -24 -85 -113h14l-45 -45l-223 -353q23 -5 56 -28h-2q-9 0 -25 4.5t-25 4.5q-37 0 -134 -151q-49 -80 -158 -231q-152 -178 -440 -252q-67 -17 -191 -42q-81 -16 -153 -16h-59q-243 0 -404 103q-189 121 -189 349 q0 247 239 408q212 143 472 143q16 180 176 278q137 85 330 85q90 0 167 -19l92 -33q10 0 29.5 3.5t29.5 3.5q78 0 92 -113q67 -67 67 -82q0 -8 -3 -24.5t-3 -25.5q80 0 263.5 125t179.5 125h16q29 0 29 -24zM2115 1163q-99 -69 -99 -113l2 -2zM2011 1109l-200 -82 q-5 0 -5 -5q0 -23 57 -23q51 0 66 16zM1771 1156q0 10 -7 17v-43q7 8 7 26zM1651 1241q-12 21 -40 21q-38 0 -47 -21h87zM1985 641q-3 2 -10 2h-3q-8 0 -10 -2q5 -5 12 -5t11 5zM1952 605v2q0 5 -4 5h-1q-3 0 -4 -5v-2q1 -4 4 -4h1q4 0 4 4zM1943 612v2q0 5 -5 5 q-2 -2 -2 -6v-1q0 -3 2 -3q3 1 5 3zM1898 987q-10 -1 -21 -1q-70 0 -142 43q-81 48 -86 113q-3 24 -5 78h-118q-82 -54 -169 -181q-76 -111 -83 -116h-7l-7 7q52 125 210 283h-3q-83 0 -169.5 -78t-86.5 -160q0 -137 179 -137q89 0 193 52q-21 -26 -91 -46q-61 -17 -105 -17 q-15 0 -44.5 3.5t-44.5 3.5l-3 -3q22 -35 57 -106h12q107 0 289 88.5t245 173.5zM1564 1284v4q-90 29 -132 29h-97q-289 0 -424 -154q-51 -59 -51 -169q200 -10 362 -104l3 3q0 14 -13 40.5t-13 41.5q0 96 89 171q81 68 182 81q31 4 94 57zM1971 331v2q0 6 -4 6h-1 q-4 0 -4 -6v-2q1 -6 4 -6h1q4 0 4 6zM2204 111q-49 -21 -89 -36q15 -8 26 -21h6q16 0 34.5 19.5t22.5 37.5zM1981 115q0 16 -10 49q-25 88 -9 154q-33 -61 -33 -119v-48q19 -47 38 -47q14 0 14 11zM1291 837v4q0 9 -6 9q-3 0 -4 -9v-4q0 -6 5 -6t5 6zM2000 89l-8 8v-8h8z M1333 674h-54q12 -17 28 -95h2q24 0 24 95zM1328 725q0 19 -28 52q-134 160 -436 160q1 -40 66 -106q16 1 30 1q182 0 288 -107h80zM1137 740q-2 2 -6 2h-5q-4 0 -4 -2q1 -3 6 -8q9 5 9 8zM1117 746q0 3 -9 3h-2q-9 0 -9 -4t10 -5q10 0 10 6zM1092 754q-2 2 -7 2h-4 q-4 0 -4 -2q0 -4 9 -5q5 1 6 5zM1854 916q-4 -2 -12 -5q-17 -17 -40 -28q-50 -34 -151 -96q-111 -63 -294 -104q-5 -48 -30 -119l-41 -117q-2 -6 -7 -14q-61 -93 -133 -137q-91 -56 -195 -56q-15 0 -46.5 3.5t-47.5 3.5q0 -61 -47 -61q-12 0 -27 12t-32 12v-55 q-11 24 -11 55q0 40 18 58q-68 0 -164 36q0 -72 71.5 -140.5t147.5 -77.5v0v3v1h-2h-1q-4 0 -5 6v1q1 7 5 7h1q3 0 4 -7v-1q1 1 2 1q5 -3 5 -8v-3v-1h7v-7q22 0 67 -7t67 -7h69q7 0 60 19q199 75 328 249zM1274 556q0 78 -56 127q-106 14 -177 49q-8 1 -61 26h-17 q-148 0 -261 -114t-113 -262v-43q61 -30 191 -30q132 0 253 38q145 46 213 133q28 37 28 76zM1236 422v4q-86 -80 -251 -129q-28 -6 -81 -21l-11 -8h51q201 0 292 154zM911 33q-199 22 -304 153q-15 18 -37 54l-31 99q-73 86 -73 137q0 30 14 30q0 -96 52 -134 q31 375 361 455v4l-52 104q-7 2 -33 2q-193 0 -359 -82q-179 -89 -270 -247q-31 -54 -31 -99v-137q0 -57 50 -132q92 -139 263 -191q122 -37 330 -37q15 0 113 16zM1649 934q-1 -3 -4 -4h-2q-4 1 -4 4v3q0 7 5 7q5 -2 5 -8v-2zM1620 916q0 -5 -2 -7q-5 2 -7 5l2 5h3 q3 0 4 -3zM1602 902q0 -7 -8 -7l-2 2q2 7 7 10zM763 148q-1 -4 -4 -4h-1q-4 0 -4 4v2q1 5 4 5h1q4 0 4 -5v-2zM803 103q-1 -6 -4 -6h-1q-4 0 -4 6v1h-2h-1q-4 0 -4 4v2v1h-1q-4 1 -4 4v1q-1 -1 -2 -1h-1q-6 0 -6 7v1l-2 -1l-2 1q-3 0 -4 6v2l1 1h-1q-4 1 -4 4v2q1 6 4 6h1 q4 0 4 -6v-1h1q5 0 6 -6q1 1 3 1q4 -2 4 -9v-1h2h1q4 0 4 -5v-2h1q3 0 4 -5q1 0 2 1h1q4 0 4 -7v-1z" />
<glyph unicode="L" horiz-adv-x="1663" d="M2586 1086q0 -159 -178 -274q-158 -103 -326 -103q-22 0 -65.5 9.5t-66.5 9.5q-165 -126 -400 -126q-27 0 -59 1q-283 -299 -540 -433q163 -57 234 -57q28 0 105 11.5t80 11.5h1q-15 -6 -137 -35q11 1 30.5 -0.5t28.5 -1.5q95 0 198 60q46 28 169 124q3 -4 3 -7 q0 -12 -193 -156q40 0 97 37l89 62q0 10 19 7q-172 -188 -483 -188q-104 0 -297 87h-26q-52 -25 -125 -47q-95 -30 -173 -35q-16 -1 -185 -1q-111 0 -195 24q-125 36 -125 115q0 128 266 128q176 0 458 -85q37 -13 112 -36h5q21 0 108 76q73 63 243 256q21 23 59 71l-3 5 q-37 0 -111.5 -9.5t-112.5 -9.5q-353 0 -353 240q0 211 243 339q200 106 433 106q27 0 80 -9t80 -9q23 0 68.5 5.5t68.5 5.5q118 0 184 -35q26 -14 40 -14q23 0 68 15t68 15q10 0 30.5 -2t30.5 -2q-1 0 50 9q124 21 169 21q236 0 236 -176zM1420 167l-5 -4l-2 2q0 3 2 5 q4 -1 5 -3zM1408 160q-2 -2 -3.5 -2.5l-4.5 -1.5q-1 1 -1 3v3q0 2 2 2q1 0 3.5 -1t3.5 -3zM2188 1160v3q-1 5 -4 5h-1q-4 0 -4 -5v-3q0 -3 4 -4h1q4 1 4 4zM2146 1206q0 5 -7 5h-1q-7 0 -7 -5q4 -3 8 -5q3 2 7 5zM2188 1130q-1 3 -5 8q-4 0 -4 -7v-1q0 -7 4 -7q3 4 5 7z M2181 1104v2q-1 6 -4 6h-1q-4 0 -4 -6v-2q0 -4 3 -4h2q4 1 4 4zM2094 1218q-3 0 -7.5 1t-6.5 1h-19q-24 0 -60 -8q-46 -9 -46 -23l11 -13q6 -8 15 -8q14 0 113 50zM2171 1154q0 26 -30 26q-57 0 -134 -50v-2q0 -13 7 -39.5t7 -40.5q0 -73 -78 -155q75 28 148 105 q80 84 80 156zM2572 1090q0 78 -70 123q-59 38 -142 38q-141 0 -203 -38q15 -7 45 -33v-33q0 -95 -125 -188q-41 -32 -125 -90q-82 -51 -212 -122q-104 -45 -216 -99v-7q35 -7 70 -7q91 0 182 23q114 31 155 85v5q0 7 -6 21.5t-6 22.5q0 38 31 38q26 0 26 -38 q-3 -12 -14 -44q24 -12 94 -12q164 0 328 95q188 109 188 260zM1957 1156q-12 19 -28 19q-19 0 -81.5 -37.5t-62.5 -49.5q0 -10 8.5 -25t17.5 -15q54 33 146 108zM1905 1187q-23 38 -132 38h-124l-19 -7q77 -47 143 -113zM2007 1048v17q0 54 -26 54q-99 -59 -151 -120 q19 -62 19 -95q0 -11 -12 -11q-5 1 -7 4l-19 71l-5 5q-80 -71 -146 -156h26q112 0 209 59q112 68 112 172zM1957 773v47q-21 0 -21 -26q0 -29 12 -29h2zM1830 821v2q-1 6 -4 6h-1q-4 0 -4 -6v-2q0 -4 4 -4h1q4 1 4 4zM1816 814v2q-1 6 -4 6h-1q-4 0 -5 -6v-2q1 -4 4 -4h2 q4 1 4 4zM1788 1029l-26 38q-39 -7 -196 -219q-2 -4 -5 -12q74 67 227 193zM1799 810h-7q17 0 -150 -19q-20 -21 -57 -68q104 28 214 87zM1750 1086q-14 31 -79.5 79t-97.5 48q-27 0 -106 -33q-233 -97 -233 -290q0 -60 42 -129q47 -78 102 -78q9 0 120 158q-45 52 -45 89 q0 57 38 57q-19 -31 -19 -59q0 -68 38 -68q136 155 240 226zM1642 708v2q-1 6 -5 6h-1q-3 0 -4 -6v-2q1 -4 4 -4h2q3 1 4 4zM1627 701v2q0 6 -4 6h-1q-3 0 -4 -6v-2q1 -4 4 -4h1q4 1 4 4zM1609 696v2q-1 6 -5 6h-1q-3 0 -4 -6v-2q1 -6 4 -6h1q4 0 5 6zM1597 689v3q-1 5 -4 5 h-1q-4 0 -5 -5v-3q1 -3 4 -4h2q4 1 4 4zM1580 685q-2 3 -4 3l-3 -3q1 -3 3 -4zM1561 678q0 5 -4 5q-2 -1 -3 -4v-1q1 -3 3 -4zM1517 1232q-52 12 -120 12q-172 0 -323 -92q-174 -106 -174 -266q0 -208 332 -208h89q-101 97 -101 210q0 126 90 211q51 48 200 126q3 1 7 7z M1335 615h-18q-23 0 -68.5 -3.5t-68.5 -3.5q-127 0 -218 50q-112 62 -112 180q0 198 252 349h-7q-339 -162 -339 -384q0 -214 337 -214q103 0 242 26zM663 210q-2 2 -9 2h-3q-5 0 -9 -3q0 -7 10 -8q11 0 11 9zM633 215q-3 1 -7 2h-18q-10 0 -22 -3q5 -4 18 -4h7q16 0 20 4 q2 0 2 1zM576 221q-1 3 -6 3h-4q-5 -1 -5 -3q2 -4 7 -4q8 1 8 4zM695 101q-2 2 -6 3h-2q-4 -1 -6 -3q3 -3 7 -4q4 1 7 4zM820 144q-25 24 -141 42q-96 14 -156 14q-80 0 -80 -63v-15q0 -16 108 -16h61q153 0 208 38zM669 94h-196q15 -19 76 -19h33q15 0 87 19zM431 181h-7 q-33 0 -33 -30q0 -17 21 -26zM676 238q-137 56 -346 56q-241 0 -241 -103q0 -73 117 -107q80 -23 183 -23q13 0 40 1.5t40 1.5q-15 4 -52.5 39t-37.5 48q0 18 19 30q85 57 139 57h139z" />
<glyph unicode="M" horiz-adv-x="2489" d="M3389 1081q0 -141 -183 -206q-128 -46 -300 -46q-103 0 -139 5l-136 19q-61 9 -59 9h-14l-14 -12q-10 -7 -24 -21l-301 -396q-8 -9 -73 -115q-102 -163 -102 -214q0 -36 64 -36q50 0 99 40q58 44 143 118q45 50 45 120v31q-28 33 -59 33q-73 0 -134 -72q-58 -67 -63 -143 h-10q0 87 59 155q61 72 146 72q87 0 87 -88q0 -154 -233 -270q-104 -52 -139 -52q1 0 -68 14q-65 13 -69 15q-33 14 -33 58q0 68 102 212l150 212q81 109 347 351v7q-6 6 -20 6q-4 0 -6 -1q-8 -2 -848 -815q-58 -57 -101 -78q-22 0 -46 36q-23 33 -23 56q0 59 90 179 q244 326 431 523l-419 -403q-412 -396 -879 -396q-216 0 -357 76q-178 96 -178 294q0 174 153 316q136 128 319 169q93 21 233 43q172 188 520 188q21 0 61.5 -3.5t61.5 -3.5q55 0 40 2l548 -85l363 222q23 14 47 14q36 0 36 -26q0 -42 -210 -252v-5q97 -19 104 -18l2 -3 l365 259q16 11 45 12l146 67q87 34 155 34q73 0 101 -30l24 -33q79 -23 107 -44q46 -34 46 -100zM3212 1225q0 37 -113 37q-110 0 -296 -99q-38 -20 -38 -40q6 0 16.5 3.5t16.5 3.5l5 -2v-2l-24 -33q238 125 433 132zM3370 1083q0 62 -55 95q-46 28 -112 28 q-160 0 -331 -103q-79 -48 -281 -210v-7q23 -3 70 -8q204 -23 243 -23q166 0 287 40q179 58 179 188zM2774 1116q-23 0 -77 -66h7q35 24 70 66zM2697 1088q-80 -58 -226 -184h37zM2478 1194v7l-7 5q-45 0 -102 -76h26v-4l-176 -170q98 63 259 238zM2369 1107v14 q-31 0 -106 -96zM2438 911v1q-1 6 -5 6h-1q-3 0 -4 -6v-1q1 -7 4 -7h1q4 0 5 7zM2181 1025q-23 -16 -68 -50h11q6 0 29 21t28 29zM2120 1009v1v3h-4h-1h-2l-1 -3v-1l1 -3l2 -1h2l3 1v3zM2195 930q-1 2 -2 2q-14 0 -14 -12q1 -1 3.5 -2t5.5 -1q7 0 7 13zM2101 999 q-17 -5 -26 -19q14 7 26 19zM2049 961h-5q-114 -81 -195 -163q28 21 111 88t89 75zM2414 893q-55 -43 -158 -132l-445 -452zM1837 791q-33 -15 -33 -30v0q21 7 33 30zM2376 900q-44 19 -94 19h-12q-366 -342 -621 -679q-29 -37 -42 -60q-24 -40 -24 -67h16l638 667z M2101 956q-15 0 -33 -14q-69 -52 -200 -162l-608 -573q122 79 191 137q21 15 59 47zM1962 45q0 11 -3.5 33t-3.5 33q0 14 3.5 41t3.5 41v2q-57 -40 -57 -120v-18q0 -12 12 -12h45zM2030 968q-31 8 -94 19l-438 49q-21 3 -106 3q-186 0 -284 -21q-158 -33 -244 -132 q471 -17 471 -288q0 -86 -40 -141q-62 -85 -193 -184q-109 -82 -282 -89q7 -71 -40 -71q-6 0 -16 3.5t-15 3.5q-12 0 -12 -12q0 -5 3.5 -14t3.5 -14v-5q-26 21 -26 62q0 37 33 58q-26 16 -127 47q-84 26 -118 59q0 -2 -1 -7t-1 -7v-16q0 -97 76 -166q73 -67 171 -67h43 q-14 7 -38 26q14 0 37 -9.5t36 -9.5q203 0 424 207l622 584q72 58 155 132zM1321 594q0 135 -145 197q-105 45 -262 45h-83q-21 -36 -21 -134q23 0 70.5 7t70.5 7q112 0 188 -50q88 -58 88 -164q0 -39 -19 -106q113 73 113 198zM1510 14q-1 2 -7 2q-5 0 -5 -2q2 -3 5 -7 q4 2 7 7zM1234 203q0 1 -1 1q-12 0 -12 -13q0 -2 1 -3q12 0 12 15zM1209 181l-1 3h-4l-3 -4q1 -2 3 -3h4v0l1 2v2zM1189 162v2q0 6 -4 6h-1q-3 0 -4 -6v-2q1 -4 4 -4h1q4 1 4 4zM1192 476q0 172 -231 172q-78 0 -123 -12v-7q56 -57 89 -75q46 -26 114 -26q33 0 54 7 q0 -8 -19 -19q-93 0 -145 18q-68 25 -111 95h-7q-24 -12 -38 -12q-212 -101 -264 -259q-1 -8 -5 -24q8 -27 75 -52q59 -23 95 -23q15 0 44 -1t43 -1q188 0 331 68q19 8 53 28q6 5 12 12q33 39 33 111zM1083 283q-127 -47 -308 -69q31 -7 82 -7q57 0 122 19q79 22 104 57z M808 829h-26q-216 0 -412 -127q-229 -148 -229 -342q0 -172 162 -258q128 -69 316 -69h24q-174 93 -174 219q0 96 -14 132v63l14 12q-3 -13 -3 -45q0 -19 7 -30q13 20 24 47q68 160 292 261l5 5q-6 80 14 132zM756 68q-1 -4 -4 -4h-1q-4 0 -4 4v2q0 5 4 5h1q3 0 4 -5v-2z " />
<glyph unicode="N" horiz-adv-x="1957" d="M1985 1072q-2 -3 -4 -3h-1l-2 2v1l1 2h2q3 0 4 -2zM3672 961q0 -184 -205 -294q-170 -90 -372 -90q-323 0 -323 210q0 81 68 136q64 52 146 52q33 0 38 -14q-14 1 -28 1q-84 0 -141 -44q-64 -49 -64 -131q0 -97 108 -141q78 -31 191 -31q206 0 363 71q205 92 205 273 q0 136 -161 195q-110 40 -275 40q-342 0 -556 -132q8 0 21 3.5t19 3.5q85 0 85 -66q0 -30 -25.5 -51.5t-57.5 -21.5q-29 0 -43 38t-34 38q-95 0 -436 -321q-44 -38 -127 -120l-266 -292q-18 -17 -47 -52l-125 -183q-19 -28 -40 -29q0 31 28 66q-4 -3 -22 -31 q-14 -21 -30 -20v9q64 111 83 200l101 485l-73 -100q-505 -686 -1086 -686q-195 0 -321 83q-148 98 -148 284q0 259 258 432q229 155 501 155q184 0 271 -59q108 -71 108 -245q0 -139 -102 -239q-88 -87 -232 -129q-25 -7 -38 -7h-170l-20 -28q-13 -16 -29 -16 q-17 0 -29.5 16t-22.5 16q-23 0 -23 -40q0 -11 5.5 -31.5t5.5 -31.5v-3q-23 15 -23 66q0 16 19 59q-36 18 -106 36q0 -205 282 -205q146 0 279 72q93 50 235 173q88 76 132 120v-7q-21 -27 -139 -132q-76 -67 -150 -118q-32 -17 -88 -59h7q79 13 233 136q102 81 172 161 q45 51 146 188l75 106h-12q19 21 50 64l170 287q68 122 131 184h15q-1 -35 -38 -95q-45 -74 -52 -93l19 18q0 -7 -26 -62q-27 -59 -31 -77l-132 -612l358 431q5 6 31 31q209 201 226 215q141 111 283 117q341 165 582 165q166 0 280 -65q139 -78 139 -232zM1642 648l-5 -7 q-2 2 -2 4l7 10v-7zM1611 610l-19 -19v7l19 19v-7zM1566 561q-2 -5 -23 -26h-3q0 4 26 30v-4zM1517 504l-83 -82v7l83 80v-5zM2640 1074q-95 0 -195 -68q-59 -39 -160 -137q-128 -123 -274 -290q283 288 629 495zM2219 749l-238 -233l-112 -131zM1788 817q-4 -1 -7 -7 q-31 -54 -50 -80q42 54 57 87zM1691 696v3q-1 5 -4 5h-1q-4 0 -4 -5v-3q0 -3 4 -4h1q4 1 4 4zM1849 358q-21 -10 -21 -18q1 -1 2 -1q19 0 19 19zM1660 188v7l-18 -37v-12q3 2 7 5q11 29 11 37zM1215 471v7q-39 -39 -63 -68q-6 -9 -19 -26q-87 -90 -269 -151h19q102 0 198 72 q91 68 134 166zM1227 565q0 132 -210 132q-185 0 -336 -116q-155 -119 -189 -298q28 -45 120 -45q8 0 23.5 3.5t23.5 3.5t22 -3.5t21 -3.5q124 0 270 75.5t217 176.5q38 53 38 75zM1039 86v3q-1 5 -5 5h-1q-3 0 -4 -5v-3q1 -3 4 -4h2q3 1 4 4zM1024 82v1q0 6 -4 6h-1 q-4 0 -4 -6v-1q1 -7 4 -7h1q4 0 4 7zM1241 667q0 100 -132 146q-90 30 -216 30q-260 0 -489 -139q-263 -160 -263 -403q0 -175 140 -261q115 -71 301 -71q59 0 162 17q114 19 151 40q-19 0 -57.5 -3.5t-57.5 -3.5q-281 0 -318 195l-12 83q-2 10 -15 33q-11 20 -11 35 q0 24 14 24q0 -58 17 -69q43 194 202 317.5t358 123.5q144 0 226 -94z" />
<glyph unicode="O" horiz-adv-x="1660" d="M2087 1093l-12 12h5q2 -2 7 -5v-7zM2098 1074q-2 2 -4 7v5l4 -5v-7zM2120 1000q0 -53 -26 -70q-1 8 5.5 20.5t6.5 17.5v99q14 -7 14 -28v-39zM2011 874q0 -4 -2 -5q-3 1 -5 5l3 2q3 0 4 -2zM1992 866q0 -3 -2 -4q-3 1 -5 5q1 4 3 4h1q3 -1 3 -3v-2zM1968 862q0 -4 -8 -7 q-5 0 -12 5l-1 1q0 3 7 3h6q8 0 8 -2zM1930 856q0 -1 -1 -1q-2 -5 -12 -5q-9 0 -12 5l-1 1q2 1 8 1h11q7 0 7 -1zM2068 1112h-7q-83 35 -174 35q0 -24 9 -72.5t9 -73.5q0 -262 -227 -542q-211 -262 -470 -370q-25 -56 -40 -97q-5 -17 -16 -49q-14 -30 -53 -81 q-146 -194 -381 -194q-167 0 -259 102q-87 98 -87 268q0 82 7 113q19 82 19 94v19q-116 39 -191 123q-85 92 -85 207q0 177 152 278q131 89 317 89q17 0 50.5 -3.5t50.5 -3.5h15q172 189 364 189q16 0 31 -1q278 151 492 151q168 0 236 -75l42 -50q161 0 196 -56zM1875 1037 q0 93 -26 112h-59q-12 0 -24 -7q0 -1 9 -34t10 -41q71 -33 83 -132q7 23 7 42v60zM1755 1074q0 64 -29 64q-28 0 -28 -10q0 -19 18.5 -36.5t38.5 -17.5zM1705 1083q-1 2 -33 36q-42 0 -136 -52q30 -13 70 -26l3 2q8 -2 52 15.5t44 24.5zM1842 1168q-57 113 -248 113 q-188 0 -449 -139q44 -19 89 -19h12q12 9 74 41.5t70 34.5q71 37 186 37q73 0 108 -18q7 -4 40 -34q25 -23 45 -23q42 0 73 7zM1724 1159q0 22 -62 42q-53 17 -84 17q-65 0 -156 -34q-95 -36 -138 -79v-5q16 -14 30 -14h7q146 75 252 75q19 0 54.5 -9.5t54.5 -9.5 q42 0 42 17zM1724 1008l-2 2q0 52 -17 52q-66 0 -89 -33q52 -56 64 -98q4 -14 18 -34q26 71 26 111zM1646 1130q-22 15 -33 15q-6 0 -18.5 -1.5t-18.5 -1.5q-39 0 -127 -28q-97 -32 -97 -57q0 -16 23 -16q36 0 271 89zM1580 1027q-20 21 -82 21q-2 0 -6.5 -2.5t-7.5 -2.5 q-29 -16 -69 -44v-7q17 -20 45 -62zM1849 930q0 62 -20 90t-32 28h-12q0 -27 -11 -91q-2 1 -6 1.5t-9 0.5v96q0 5 -19 10q0 -15 -5 -99q-2 -22 -17 -67t-15 -70v-31l45 80v-4q-21 -37 -83 -245q-18 -60 -73 -165q257 245 257 466zM1413 1029v2q-1 5 -4 5h-1q-4 0 -4 -5v-2 q0 -4 4 -4h1q4 0 4 4zM1401 1021v3q-1 5 -4 5h-1q-4 0 -4 -5v-3q1 -3 4 -4h1q4 1 4 4zM1672 864q0 38 -21 91q-26 62 -57 62q-28 0 -122 -94q0 -35 14 -66q19 -41 19 -125q0 -21 -7 -63t-7 -64v-2q53 47 111 122q70 93 70 139zM1675 758q0 8 -1.5 23t-1.5 22 q-24 -39 -78 -113q-18 -19 -40 -56q7 4 19 14q29 34 92 94q10 7 10 16zM1366 1006h-14q-33 -22 -99 -76zM1291 1067q-19 14 -36 14q-20 0 -98 -79q-70 -72 -92 -105q112 113 226 170zM1616 471q-45 -45 -69 -75q36 35 69 75zM1453 784q0 59 -12 102q-29 -25 -50 -55 q18 30 43 66q-1 11 -19.5 47t-24.5 36q-2 0 -12 -7q-124 -85 -225 -194q-18 -18 -51 -56q-52 -70 -52 -198q0 -136 113 -136q55 0 146 65q95 69 95 121q0 4 -26 28q12 -7 30 -7h7q38 89 38 188zM1340 1025v4q-7 16 -10 17q-3 -1 -2 -3q-67 -27 -239 -207.5t-208 -263.5 q13 5 58 65l149 161l57 50l93 93q57 55 102 84zM1065 1119h-19q-81 0 -180 -53q-104 -56 -136 -124l66 -26h9q153 141 260 203zM1667 718q0 5 -2 10q-44 -50 -101 -90q-53 -35 -120 -119q-70 -88 -107 -116q-68 -52 -159 -52q-172 -75 -347 -113q0 -66 34 -116 q38 -58 101 -58q102 0 212 68q2 2 4 7q0 15 -2 44t-2 43q21 0 30 -75q9 4 26 14q197 116 283 224q45 56 97.5 159t52.5 170zM1446 309q-59 -59 -137 -109q-34 -18 -96 -62q-7 -7 -7 -13q16 0 77 39q57 37 76 55zM1208 1100q-56 19 -92 19q-70 0 -292 -222q38 -33 45 -80h-7 q-48 57 -49 57h-8l-61 -64q-226 -265 -294 -509q-3 -3 -3 -9q0 -14 8 -16q48 -19 256 -19q0 -4 1 -3l1 7l2 19l15 164v-4q5 21 14 62q76 297 457 591q4 1 7 7zM775 893q0 23 -57 23q-25 0 -61 -86q-33 -80 -33 -114v-7q8 7 78 90q73 87 73 94zM1126 358l-5 7q-89 50 -89 153 q0 68 18 149q-9 -17 -73 -95q-153 -186 -153 -304q116 0 302 90zM881 557v3q-1 5 -4 5h-1q-4 0 -5 -5v-3q1 -3 4 -4h2q4 1 4 4zM1182 118v2q-93 -48 -143 -56q25 0 81 18q62 20 62 36zM688 923q-19 14 -47 14q-9 0 -25.5 -1t-24.5 -1q-176 0 -302 -80q-148 -93 -148 -259 q0 -167 170 -264q66 -38 92 -38h9q0 4 5 15q61 145 111 240q24 40 58 103l40 139q24 77 62 132zM798 119v2q0 6 -4 6h-1q-1 0 -2 -1q-1 6 -4 6h-1q-4 0 -4 -6v-2q1 -4 4 -4h1q1 0 2 1v-2q1 -6 4 -6h1q4 0 4 6zM836 82v1q-1 6 -4 6h-1h-2q-1 5 -4 5h-1q-4 0 -4 -5v-3 q0 -3 4 -4h1q1 1 2 1v-1q0 -7 4 -7h1q4 0 4 7zM803 111q-1 1 -4 3h-1q-2 -1 -2 -3v-1q0 -2 2 -2h1q2 0 4 3zM817 94v2q-1 5 -4 5h-1q-1 0 -2 -1v2q0 6 -4 6h-1q-4 0 -4 -6v-2q0 -6 4 -6h1q1 0 2 1v-1q1 -4 4 -4h1q4 0 4 4zM1178 71q-24 -1 -66.5 -17t-65.5 -16 q-150 0 -209 23q-92 37 -126 158q-80 5 -176 18q-102 15 -92 15q-15 0 -28 -60q-10 -50 -10 -79v-75q0 -358 320 -358q270 0 410 280q21 38 43 111zM1774 957q2 -2 -1 -3zM1771 934q-1 -3 -4 -4h-1q-2 1 -2 4v2q0 5 2 6q5 -2 5 -6v-2zM1764 914q-2 -2 -5 -3h-1q-1 1 -1 2v1 q0 2 1 2h2q3 0 4 -2zM1757 895q-1 -2 -5 -3q-2 0 -2 2v2q0 2 2 2q3 0 5 -3zM1391 831q-15 -24 -26 -46q10 24 26 46zM1365 785q-20 -49 -20 -107q0 -34 11 -55q-23 27 -23 53q0 44 32 109zM1378 603q-14 6 -22 20q8 -9 22 -20zM791 124q0 -2 -2 -3v0q0 4 2 5v-2zM829 86 q0 -2 -2 -3v0q0 4 2 6v-3zM810 100q0 -4 -2 -5v1q0 3 2 4z" />
<glyph unicode="P" horiz-adv-x="1708" d="M2796 1095q0 -134 -137 -230q-123 -85 -264 -85h-47q-11 4 -19 14q15 -1 30 -1q151 0 269 79q135 90 135 233q0 89 -76 142q-68 48 -160 48q-149 0 -233 -26q-169 -51 -240 -124v-7q82 -116 82 -245q0 -146 -124 -235q-110 -79 -260 -79q-33 0 -44 7q-15 1 -52 3 q-32 3 -51 3l-41 -1q-15 -11 -55 -75q-81 -128 -134 -182q-61 -62 -162 -150q-5 -232 -177 -399t-405 -167q-374 0 -374 422q-9 13 -31 26q-132 79 -132 233q0 163 132 300q113 118 283 181l101 33q30 9 41 15q23 11 30 29q4 27 23 80q84 150 208 237q137 95 296 95 q22 0 66 -3.5t66 -3.5q27 0 80.5 3.5t79.5 3.5q102 0 370 -56l-3 -1q34 -6 100 -24l-3 -1q25 0 52 18.5t45 19.5q0 -19 -23 -32q-31 -18 -36 -25q7 -5 26 -5q228 151 461 151q118 0 204 -49q103 -60 103 -170zM2002 1142v2l-4 5h-1l-4 -5v-2l4 -4h1zM1990 1150l-4 4h-1 l-2 -5l5 -3l2 2v2zM1983 1156v1l-4 6h-1l-4 -6v-1l4 -7h1zM1945 1174v2l-4 6h-1l-4 -6v-2l4 -6h1zM1927 1179l-1 2l-4 6h-1l-4 -6v-2l4 -4h2zM1960 1119q-12 12 -16 12q-18 0 -75 -62q-47 -51 -67 -82l42 30q73 60 116 102zM1733 1225q-61 28 -182 28h-133q-6 0 -18 -1 t-18 -1l-14 -7l57 -38q19 0 51 6q39 7 50 8q46 5 163 5q5 2 21 2q18 0 23 -2zM2042 947q0 40 -11 85q-16 63 -43 63q-10 0 -10 -6q0 -4 1.5 -11.5t1.5 -10.5q-4 0 -13 1t-13 1q-2 0 -14 -14q-24 -22 -70 -68q-62 -64 -201 -226q-72 -84 -101 -151q19 -9 96 -9q0 9 -8 20 t-8 20q12 -1 33.5 -12.5t36.5 -11.5q-19 28 -19 50q0 49 57 101q-2 -4 -26 -48q-16 -29 -16 -51q0 -40 56 -40q116 58 169 118q69 77 69 190q0 14 -3.5 40.5t-3.5 39.5q19 -11 19 -30q14 -33 19 -57q2 6 2 17zM1910 1147q-21 27 -115 43q-70 11 -130 11q-53 0 -111 -9 q-91 -15 -91 -26q0 -16 13 -46q15 -34 17 -46q10 -46 10 -177h2l2 3q32 11 43 11q-42 -27 -106 -162q-1 -66 30 -87l7 5q184 284 422 471zM1361 1160v3l-4 5h-1l-4 -5v-3l4 -4h1zM1342 1156v1l-4 6h-1l-4 -6v-1l4 -7h1zM1262 1244q-9 2 -33 2q-215 0 -345 -120 q-122 -114 -156 -196q212 236 534 314zM1387 1201q-18 24 -87 38q-186 -31 -352 -136q-178 -112 -263 -267v-7q41 -1 69 14l73 54q153 110 386 233q61 18 174 71zM1448 1025q0 131 -16 131q-79 0 -344 -137q-65 -34 -165 -145q-37 -42 -37 -57q195 -49 195 -198 q0 -17 -10.5 -49.5t-10.5 -49.5l40 15q112 50 225 193q119 151 119 266q0 22 -52 35q-38 10 -71 10q-51 0 -115 -22q-72 -23 -76 -23q92 56 198 56q21 0 60.5 -12.5t59.5 -12.5zM935 926q-56 -33 -127 -95h52l7 5q21 32 68 90zM1463 643q-18 19 -38 75q-72 -69 -151 -136 q-89 -76 -181 -97q-20 -3 -57 -12q-14 -5 -52 -61v-2h3q88 -15 188 -120h5q48 46 139 146l88 106q15 28 49 82q7 11 7 19zM728 918v1l-4 7h-2l-4 -7v-1l4 -7h2zM1043 615q0 70 -50 126.5t-119 56.5q-45 -84 -45 -148q0 -146 139 -146q75 0 75 111zM716 813h-17 q-40 0 -40 -52q33 23 57 52zM886 492q-76 38 -76 153q0 71 38 160q-19 8 -61 8q-21 0 -135 -114v-16q0 -83 67 -140q63 -53 148 -53q3 0 9 1t10 1zM930 398h-35q-49 0 -114 -17q-84 -22 -84 -56q0 -24 38 -24q115 0 195 97zM1149 266q0 37 -69 86q-66 46 -106 46 q-21 0 -35 -18l3 -1q-143 -89 -212 -89q-59 0 -59 33q0 48 120 75q85 19 158 19q38 27 38 49q-158 13 -224 42q-108 47 -129 173q-226 -216 -302 -441q-45 -131 -45 -172q0 -35 109 -55q75 -13 143 -13q59 0 160 15q130 19 130 44q-170 14 -170 127q0 80 64 80q68 0 68 -56 q0 -13 -9 -35.5t-9 -35.5q0 -57 94 -57q54 0 152 70q82 58 130 114zM652 805q-201 -43 -350 -175q-170 -150 -170 -340q0 -136 125 -219l7 7q68 348 370 659q18 48 18 68zM1175 158h-7q-40 -23 -125 -61q-303 -116 -504 -116q-73 0 -136 14q-40 16 -123 33q0 -398 351 -398 q208 0 376 160.5t168 367.5zM1922 837v-1l-7 -2l-7 2l5 5h4l5 -3v-1zM1889 831l-4 -4h-2l-6 4l4 3h2zM1865 824l-4 -2l-3 2l3 3zM1846 817q-21 -7 -16 -7h-2v3q4 1 11 4h7zM1818 805l-4 -7h-1l-4 7v1l4 7h1l4 -7v-1zM1802 794h-7l7 4v-4zM1783 787v-3q0 -11 -6 -11 q-4 1 -8 3l13 12zM1119 987h-2q-5 -1 -5 -7h-7v1q0 6 5 6h9zM1093 971v-3l-3 -1h-2l-2 1l-1 3v2l1 2l2 1h2l3 -1v-3v-1zM1072 955l-5 -6h-1l-4 6v2l4 6h1l5 -6v-2zM1053 941l-4 -4h-2l-4 4v3l5 5h1l4 -5v-3zM1029 926h-5l-2 1l5 6l2 -3v-4z" />
<glyph unicode="Q" horiz-adv-x="1439" d="M1804 1152q0 -122 -82 -186q-17 -9 -45 -40q-12 -12 -28 -78q-134 -543 -754 -836q14 -28 92 -28q24 0 66.5 16t65.5 16q-14 -12 -97 -58q27 -12 97 -12q183 0 372 214h5q7 0 7 -12q-121 -181 -377 -249l-7 -7q44 -7 181 -7q285 0 396 131q9 36 37 78v-14 q0 -117 -160 -192q-132 -62 -266 -62q-175 0 -437 63q-67 20 -161 43h-33l-101 -24q-43 -10 -215 -10q-336 0 -336 78q0 44 78 57t178 12q38 38 102 56q-19 76 -19 137q0 94 37 212q146 454 469 702h-21q-148 0 -285 -137q-113 -112 -181 -271q-6 -12 -15 -12q0 170 192 314 q177 134 355 139q304 200 579 200q311 0 311 -233zM1142 33q-2 -2 -3.5 -2.5l-4.5 -1.5q-1 0 -1 3v1q1 3 4 5q5 -1 5 -5zM1771 1159q0 107 -85 164q-73 48 -186 48q-101 0 -162 -21q247 -4 247 -64h-2l-3 -2q-18 18 -30 18q-44 29 -153 29q-255 0 -401 -146l-4 -5v-7 q12 -1 37 -14.5t40 -13.5q106 94 186 94q64 0 83 -35h-5q-13 0 -37.5 8t-37.5 8q-35 0 -97 -29q-68 -32 -68 -61q0 -9 21 -9q65 0 187.5 46t186.5 46q102 0 156 -68v9q0 23 -16.5 56.5t-16.5 49.5q61 -53 61 -309q44 22 73 91q26 61 26 117zM1387 1093v7q0 26 -7 26 q-7 21 -19 40h-11l-66 -33l-5 -7q8 -2 55 -20q37 -13 53 -13zM1651 1039q0 3 -1 10t-1 11q-6 -4 -19 -28q-10 -19 -24 -19q38 33 38 80q0 49 -51 80q-44 26 -97 26q-121 0 -121 -33q0 4 12 -33q18 -56 56 -94q43 -44 54 -68q24 -54 24 -166q0 -160 -87 -315q49 46 125 197 q78 156 78 215q-16 0 -47 -10.5t-47 -10.5v7q51 11 87 35q21 15 21 116zM1168 1100h-38v-7q4 -6 10 -14q14 7 28 21zM1394 1003q0 44 -51 72q-43 25 -90 25q-18 0 -54 -21.5t-36 -37.5q0 -2 22 -54q11 -29 11 -120q0 -193 -181 -396q139 61 257 221q122 166 122 311z M1107 1053v7q-14 26 -24 26q-44 0 -111 -107q-49 -79 -77 -152q35 50 102 116q103 102 110 110zM1041 1121v5q-33 26 -75 26q-28 0 -105 -87l-107 -123l148 101q3 2 73 31q44 18 66 47zM1406 857q0 10 -7 10l-12 -12q-125 -299 -294 -516q115 97 206 234q107 162 107 284z M1145 916q0 97 -19 97q-13 -5 -134 -132q-172 -179 -172 -337q0 -35 16 -64q20 -35 52 -35q8 2 12 5q107 88 173 208q72 130 72 258zM1427 871q0 91 -14 116q-4 -1 -6 -17q-9 -30 -20 -89q5 2 9 2q13 0 22 -16q0 -5 2.5 -14.5t2.5 -14.5q0 -141 -134 -321 q-101 -136 -246 -258q-60 -50 -148 -132q2 5 5 14l66 66q-79 -35 -163 -80q0 -14 17 -26q8 -13 10 -14h1q3 5 15 5q-1 -5 -2 -14.5t-1 -14.5q0 -11 7 -18q104 40 238 167q339 321 339 659zM996 1060q-88 -28 -192 -107q-107 -81 -154 -157q-73 -119 -77 -127 q-38 -75 -38 -141q0 -165 153 -165q129 0 181 68q-72 21 -72 86q0 10 1 20l-14 -7v7q0 63 29 139q54 144 102 248q0 1 81 136zM1222 259q-1 2 -3 2q-12 0 -12 -13q2 -1 7 -2q8 0 8 13zM1324 735q-124 -163 -217 -222q-143 -89 -264 -153q-54 -28 -198 -28q-12 0 -42 17 q-92 49 -92 195q-52 -87 -52 -186q0 -54 17 -107q21 -67 59 -86q10 1 66 38q53 37 87 37q49 0 103 -87h7q24 0 70 28l92 55q50 33 83 65q71 71 157 206q83 129 124 228zM1196 240l-270 -183q213 98 270 183zM918 53q0 3 -3 3h-2q-4 0 -4 -3v-3q1 -5 4 -5h1q4 0 4 5v3z M904 44v2q0 6 -4 6h-1q-4 0 -4 -6v-3q0 -8 5 -8q4 3 4 9zM791 31q-2 2 -4 2l-3 -2l5 -5q2 2 2 5zM742 134v7q0 31 -23.5 52t-54.5 21q-49 0 -115 -54q21 -33 96 -33h64q14 0 33 7zM777 41q-1 3 -4 4h-1q-4 -1 -4 -4v-3q0 -7 5 -7q4 2 4 8v2zM773 61q0 41 -19 52 q-128 0 -116 -1q-48 3 -103 22q4 -3 -7 -4q-6 -1 -12 0v11q-85 80 -101 158q-26 -38 -26 -139q0 -13 7 -52l4 -7q12 1 25 1q88 0 230 -34q29 -10 87 -23h12q19 0 19 16zM784 -46q-1 3 -4 4h-1q-4 -1 -4 -4v-3q1 -5 4 -5h1q4 0 4 5v3zM767 -40q-2 2 -7 2h-4q-4 0 -4 -2 q0 -4 9 -5q5 1 6 5zM723 -24q-14 7 -24 7h-5q-11 0 -18 -7q5 0 14 -2t13 -2h10q5 0 10 4zM669 -7l-5 5q-159 68 -242 68q-12 0 -15 -9l-11 14q-69 0 -85 -36q12 0 35.5 -2t35.5 -2q4 0 12.5 1t12.5 1q22 0 31 -9l219 -40q6 1 12 9zM568 -28q-57 21 -90 21q24 -21 73 -21h17z M645 -47q-9 5 -122 5q-6 0 -78 40q-38 21 -122 21q-5 0 -19 -3q-7 -7 -7 -21q0 -28 22 -49t51 -21h67q119 0 208 28zM323 -82q-50 42 -50 106h-141q-90 0 -90 -45q0 -37 81 -50l111 -8q40 -3 55 -3h34zM1611 1264q-1 -4 -4 -4h-1q-4 1 -4 4v1h-2h-1q-4 0 -5 6v1h-1h-2 q-3 1 -4 4v2q1 6 5 6h1q3 0 4 -6l2 1h1q3 0 4 -6v-2l2 1h1q3 0 4 -6v-2zM1566 979q0 -6 -4 -6h-1q-4 0 -4 6v2q0 6 4 6h1q4 0 4 -6v-2zM1347 1196q-1 -4 -4 -4h-1q-4 1 -4 4v2q1 5 4 5h1q4 0 4 -5v-2zM1543 973v-1q-1 -4 -5 -4l-5 5q1 7 3 7h1q6 0 6 -7zM783 516 q-1 -3 -3 -5q-5 1 -5 2v1q1 4 4 4h2q2 0 2 -2zM783 480q-1 -2 -3 -2h-1q-4 1 -4 2v2q1 3 5 3q1 -1 3 -5zM777 447q-2 -2 -3.5 -2.5l-4.5 -1.5q-1 1 -1 3v3q0 3 2 3q1 -1 3.5 -2t3.5 -3zM881 117v-1q0 -1 -1.5 -2t-3.5 -1l-2 2q3 7 6 7q1 -1 1 -5zM862 101l-5 -7l5 14v-7z M419 36q0 2 -4 9v7l4 -7v-9z" />
<glyph unicode="R" horiz-adv-x="2190" d="M2190 1361l-61 -37h-9l66 37h4zM1922 245q-3 -4 -5 -7q-4 1 -5 4v1q1 4 5 4zM2892 1185q0 -154 -132 -260q-124 -98 -282 -98q-59 0 -59 7h-3v2q169 0 298 89q145 101 145 262q0 51 -19 87q-44 86 -155 118q-33 9 -40 9q-212 0 -287 -33q-43 -18 -133 -68 q-112 -62 -112 -78q0 -3 2 -4q71 -125 71 -189q0 -110 -80 -205q-73 -86 -182 -129q-61 -16 -134 -43q68 -77 68 -169q0 -51 -21 -104q-40 -93 -87 -224q-1 -13 -7 -35q-1 -12 7 -12q75 0 155 118q0 -39 -60 -88t-100 -49q7 -23 38 -23q4 0 11.5 2.5t11.5 2.5q63 38 142 107 l134 119q38 31 38 82q0 71 -62 71q-88 0 -168 -90q-72 -80 -93 -174v24q0 88 87.5 174.5t176.5 86.5q94 0 94 -94q0 -123 -132 -231q-126 -104 -252 -104q-153 0 -153 142q0 71 76.5 199t76.5 199q0 6 -1 17.5t-1 17.5q-15 28 -104 28h-47q-19 -29 -77 -98q-63 -75 -81 -88 q-68 -101 -191 -200q0 -16 4 -48t4 -48v-50q-2 -39 -55.5 -82t-93.5 -43h-136q-12 0 -64.5 18t-79.5 18h-10q-42 -10 -127 -26q-139 -22 -304 -22h-120q-21 0 -56 6q-42 6 -56 7q-151 13 -151 112q0 125 228 125q107 0 255 -38l98 -25h7q0 7 4.5 19.5t4.5 18.5q0 8 -11 12 q8 -1 36 27t58 28q39 0 49 -28q5 -14 5 -61q138 0 224 27q100 32 193 117q7 6 19 19l-101 157q-9 14 -19 14q-19 0 -55.5 -4.5t-55.5 -4.5q-55 0 -63 2q-47 14 -68 52l-41 76l-62 84q-27 43 -27 102q0 45 16 89q67 180 235 303q152 112 354 154v5q-210 0 -304 -71 q-33 -21 -96 -68q-76 -70 -162 -204q-16 -29 -50 -84q-6 -7 -17 -7q0 53 95 177q217 287 485 287q75 0 113 -14q70 7 141 7q259 0 422 -61q14 -4 40 -14q10 -7 33 -19q24 0 56 20t52 20q0 -22 -28 -34q-36 -15 -43 -25h7l50 28h7l-50 -32q19 -23 31 -31q245 179 488 179 q124 0 212 -57q103 -66 103 -183zM561 266q-4 -4 -5 -7q-5 1 -5 2v2q0 5 5 5zM598 219h-4l-8 7h8q2 -2 4 -7zM1995 1235q0 3 -3 4q-4 0 -7 -7q2 -1 4 -1q6 1 6 4zM1976 1221q-2 5 -5 6q-3 -2 -4 -7v-2q6 0 9 3zM1708 1366q-34 10 -74 10q-143 0 -186 -3l-25 -7l44 -35 q19 0 56 11.5t55 11.5q22 0 65 6t65 6zM2028 1213q1 19 -21 19h-5q-174 -118 -302 -356q8 8 81 90q112 102 247 247zM2058 1102q0 57 -7 71l-11 -12q-27 -12 -183 -198q-153 -182 -182 -233l1 -4q0 -4 -13 -17q5 1 10 1q13 0 36.5 -11t38.5 -11q37 0 73 21q237 143 237 393z M1967 1267q-76 57 -278 57q-144 0 -186 -29v-7q8 -15 22 -47q15 -50 15 -162h7q50 24 66 24q4 0 12 -1.5t12 -1.5v-7q-92 -22 -101 -50q-8 -40 -26 -110q-20 -51 -73 -128q0 -33 54 -75l127 179q119 166 344 351zM1486 1145v30q0 113 -33 113q-82 0 -185 -74 q-93 -69 -140 -147v-7q108 70 222 70h49q4 0 29 -18.5t42 -18.5h4l6 18.5t6 33.5zM2082 266v2q-36 -38 -111 -99q-80 -66 -113 -98q49 11 134 81q90 73 90 114zM1467 1065q0 51 -127 51q-157 0 -225 -81q-62 -74 -62 -234v-78q0 -22 9 -54q12 -40 26 -40h2l3 5 q256 73 318 285q4 15 33 72q23 45 23 74zM1430 1319q0 14 -29.5 28t-46.5 14q-15 0 -70 -14q-208 -53 -373 -186q-197 -160 -197 -346q0 -90 66 -148q8 0 33 110q26 121 148 248q168 174 469 294zM1189 1178q-149 -90 -249 -211q-123 -147 -123 -293v-29q22 -35 106 -35 q82 0 111 7l2 2v3l-2 2q-19 91 -19 85v80q0 121 46 213q35 70 128 176zM1474 699v17l-56 64q-165 -189 -290 -245q0 -28 34.5 -90.5t57.5 -79.5q254 300 254 334zM1194 638l-101 -33q0 -21 7 -30q73 26 94 63zM1062 563l-14 26h-141q-15 0 -42.5 11.5t-42.5 11.5 q0 -27 24.5 -48.5t53.5 -21.5h106q19 0 47 11zM1258 113v85q0 21 -12 40q-172 -141 -351 -193v-7q130 -38 167 -38q151 0 196 113zM1213 297v4q-212 -141 -469 -146q-7 -8 -7 -35q1 -4 3 -7v-5l106 -44q34 0 84 23t134 80t118 92q10 13 31 38zM784 38q-80 11 -113 40 q-24 22 -66 52q-185 77 -346 77h-82q-9 0 -39 -8q-96 -26 -96 -98q0 -105 299 -105q24 0 55 1t35 1l152 -1q115 0 201 41zM1689 716l-5 -5q-2 2 -2 4v2q1 3 2 4h1q3 -1 4 -5zM1041 994v-3q0 -13 -7 -13q-2 0 -4 1t-2 2q0 14 12 14q1 0 1 -1zM1003 961q-23 -33 -66 -71 q29 33 66 71z" />
<glyph unicode="S" horiz-adv-x="1844" d="M2520 1126q0 -80 -132 -168q-53 -35 -202 -110l-45 -99q-114 -225 -514 -353l-176 -182q-111 -110 -373 -190q-238 -73 -419 -73q-220 0 -365 67q-193 91 -193 286q0 246 275 395q229 125 498 125q30 0 90.5 -7t90.5 -7q22 0 52 19q-13 216 167 325q146 90 377 90l3 -1h7 l23 -2l99 -7q19 -7 54 -23q50 -27 123 -90q46 -40 77 -40q-6 0 119 69.5t206 69.5q158 0 158 -94zM2461 1179v2q-1 6 -4 6h-1q-4 0 -4 -6v-2q1 -4 4 -4h1q4 1 4 4zM2405 1206h-70q-15 0 -29 -7q12 -5 78 -5q17 0 21 12zM2494 1130q0 48 -30 48q0 -113 -135 -205l-9 -6 q-34 -23 -97 -74q72 27 163 98q108 84 108 139zM2287 1168q-111 0 -207 -113l4 -5q125 87 203 118zM2348 1130q0 33 -21 33q-32 0 -109 -55q-69 -50 -96 -83q0 -17 15 -39q20 -30 23 -37q14 -34 19 -56q52 15 110.5 98.5t58.5 138.5zM2023 1062l-7 7h-7l7 -7h7zM2065 1036 h-4q-12 -7 -19 -19h5q7 6 18 19zM2162 888q0 75 -59 118l-38 -38v-7q15 -32 15 -38q0 -16 -7 -19l-26 45q-66 -65 -100 -113q-16 -22 -51 -63h5q54 0 188 70l66 31q7 4 7 14zM1922 1126q-71 94 -273 94q-119 0 -219 -52q-120 -63 -130 -169q181 139 450 139q28 0 82.5 -7.5 t82.5 -7.5q5 1 7 3zM1967 768h-15q-9 0 -32.5 -9.5t-35.5 -9.5l-7 -7q18 -2 90 26zM1444 1198v2q-1 6 -4 6h-1q-4 0 -5 -6v-2q1 -4 4 -4h2q4 1 4 4zM1992 1046q0 31 -62 51q-48 15 -91 15h-193q-74 0 -204 -53q-149 -59 -149 -117q0 -49 28 -49q23 0 68.5 3.5t68.5 3.5 q200 0 219 -76l-2 -2l-5 2q-4 4 -13 10t-25 14q-2 26 -166 26h-91q-41 0 -56 -12q1 -2 5 -7q60 -75 140 -101q61 -21 171 -21q88 0 110 28l90 113q52 66 157 172zM2160 836h-5l-195 -101q-8 -4 -66 -19q-45 -12 -59 -31l-184 -245q-1 -2 -5 -11q3 -1 62 18q155 52 274 145 q145 112 178 244zM1722 723h-39q-19 0 -56 -3.5t-56 -3.5q35 -7 71 -7q16 0 73 7zM1425 1194q-8 2 -68 -26q-234 -107 -234 -285q0 -40 7 -40q8 0 109 31q0 209 186 320zM1463 678q-130 31 -201 146q0 12 -11 24q-7 0 -19.5 -2.5t-18.5 -2.5q-49 -19 -75 -26v-7 q9 -14 11 -23l121 -71q69 -38 134 -38h59zM1684 667h-370q24 -45 24 -95q0 -120 -50 -200q8 0 24.5 -1t25.5 -1q73 0 139 14q63 56 200 271q0 1 2 4.5t5 7.5zM1324 596q0 5 -5 7q-2 -2 -2 -5v-3q0 -4 2 -4q3 2 5 5zM1119 798v7h-2q-15 0 -17 -7h19zM1314 610q0 48 -61 82 q-144 81 -200 81q-24 0 -54 -38q226 -6 315 -125zM1281 410l-37 -38h4l3 -2q11 0 30 40zM1307 518q0 156 -247 156q-90 0 -114 -12q-42 -21 -42 -99q0 -91 104 -147q86 -46 186 -46q27 0 70 59t43 89zM1239 346h-19q-106 -73 -264 -120q172 0 283 120zM1168 353l-80 19 q-145 36 -184 117q-11 24 -11 34v47q0 13 3.5 39t3.5 39q-21 0 -90 -38q-238 -129 -238 -325q0 -21 77 -35q56 -10 95 -10h10l-19 19q4 7 5 12h2q23 -9 38 -12q-2 16 -2 30q0 88 77 88q49 0 49 -47t-40 -47q-24 0 -36.5 29.5t-14.5 29.5q-22 0 -22 -50q0 -35 14 -47h24 q57 0 181 36q136 39 158 72zM1451 358h-12q-28 0 -82 -6t-80 -6q-154 -143 -328 -143q-17 0 -50.5 2t-50.5 2q-16 0 -19 -4q-102 2 -223 34q-28 8 -27 8h-7q10 -100 132 -156q97 -44 212 -44q127 0 236 52q130 62 216 148q-162 -87 -343 -87q-125 0 -163 26q10 2 31.5 -6 t29.5 -8q186 0 287 29q141 41 241 159zM1013 773v7q-64 7 -130 7q-259 0 -485 -111q-278 -137 -278 -367q0 -181 179 -268q137 -67 339 -67q186 0 318 45q-137 -6 -245 36q-133 53 -169 166q-8 26 -14 50q-69 89 -69 139q0 73 31 73q0 -12 -9.5 -32t-9.5 -32q0 -66 57 -118 q25 326 428 429zM855 188l-5 -2l-2 2v1q1 4 2 4h1q4 -1 4 -5zM848 195q-1 -7 -4 -7h-1q-4 0 -5 7v1q1 7 5 7h1q3 0 4 -7v-1z" />
<glyph unicode="T" horiz-adv-x="1908" d="M2725 999q-23 25 -71 70q-72 57 -153 57q-7 0 -18 -6t-17 -6q-43 -14 -196 -14q-56 0 -174 -99q-103 -85 -151 -151l-358 -490q-18 -20 -51 -63q0 -17 14 -31q26 -73 30 -184q72 0 184 69.5t106 69.5h5q-103 -110 -227 -157l-61 -19q-14 -6 -28 -69q-4 -25 -16 -75 q-63 -193 -242 -315q-175 -118 -380 -118q-471 0 -502 516q-69 11 -200 37q-146 34 -146 118q0 120 346 120q-14 40 -14 111q0 119 88 222q84 99 202 131q68 19 139 26q22 15 99 75q50 40 115 79q18 8 50 27q11 9 35 43q127 180 492 209q28 3 99 5l396 14q200 0 259 -7 q10 -1 62 -10q48 -9 51 -9q24 0 50.5 13t38.5 13h5q-7 -19 -33 -45q172 -62 172 -157zM1630 1138q-4 0 -11 1t-10 1q-172 0 -307 -74v2v2q0 6 -4 6h-1q-4 0 -4 -6v-2q0 -4 3 -5l-6 -4q1 1 1 2v3q-1 5 -5 5h-1q-3 0 -4 -5v-3q1 -3 4 -3h2v0q-52 -32 -83 -71q204 103 426 151z M1276 1054v3q0 5 -4 5h-1q-3 0 -4 -5v-3q1 -3 4 -4h1q4 1 4 4zM2195 1095l-332 38q-10 1 -26 0q-18 -1 -103 -16q-374 -65 -568 -180q-38 -22 -38 -106q0 -78 67 -108q25 -12 34 -12h59q208 0 394 200q18 21 18 36q0 61 -129 61q-87 0 -186 -52q17 23 94 45q68 19 108 19 q95 0 125 -64q18 27 54 54l3 -7v-9q-44 -88 -83 -139q-152 -200 -360 -200q-117 0 -167 44q-69 62 -69 95v101q-15 0 -104.5 -61.5t-109.5 -84.5q278 -21 309 -257q174 -9 294 -113q67 79 169 240q106 167 163 237q101 124 219 194q44 26 59 26q12 0 12 -7q0 -12 -12 -12 q-73 -46 -90 -59q-51 -39 -68 -79l94 82l-23 -33q78 59 193 127zM1260 1050q-40 -21 -94 -82q32 26 94 82zM1140 926q-12 -7 -12 -24v-2zM1126 885v2q-1 6 -4 6h-1q-4 0 -5 -6v-2q1 -4 4 -4h2q4 1 4 4zM1543 82v79q0 91 -31 110q-1 0 -54 -40q-106 -80 -198 -130 q106 -23 217 -23h44q10 0 22 4zM1460 353q0 49 -100 88q-84 32 -145 32h-30q-26 -131 -141 -201q-101 -62 -243 -62v-7l318 -76q45 0 127 45q78 42 195 160q7 7 19 21zM1147 469q-84 0 -193 -78.5t-139 -157.5q79 0 132 17q81 25 136 79q64 63 64 140zM1196 134l-37 -14h9 q21 0 28 14zM1147 492v19q0 92 -92 139q-72 38 -174 38q-15 0 -44 -3.5t-41 -3.5q-81 -49 -235 -302q-62 -100 -62 -120v-7q112 -24 177 -24h12q-6 10 -39 25q-27 13 -27 30h2l2 2q38 -19 62 -26q2 2 32 37q17 20 43 20q12 0 29 -9.5t25 -9.5h3q98 113 207 158q42 5 120 37z M744 662v7q-23 0 -45 -10q-256 -111 -256 -322q0 -85 26 -85h7q103 236 268 410zM1034 115l-238 62h-7q-12 -7 -12 -29v-2q60 -38 226 -38q18 0 31 7zM1109 89q-7 12 -37 12q-19 0 -55 -3.5t-54 -3.5q-53 0 -133 23q-58 17 -53 17q-26 0 -26 -70v-12q30 -7 53 -7h78 q147 0 227 44zM768 207v2q-1 5 -4 5h-1q-4 0 -5 -5v-2q1 -4 4 -4h2q4 0 4 4zM745 216v0q-2 3 -6 3h-3q-4 0 -4 -2v-1v-2q4 -2 8 -2q4 1 5 4zM725 221v1q0 6 -4 6h-1q-4 0 -4 -6v-1q1 -7 4 -7h1q4 0 4 7zM758 184l-18 7h-15q6 -7 19 -19h3l2 -2l2 2q5 0 7 12zM846 21 q-14 0 -42.5 2.5t-42.5 2.5h-17v-19q66 0 102 14zM1538 38q-74 0 -334 33q-13 1 -26 0q-53 -15 -138 -37q-151 -36 -296 -50q0 -111 71 -170q-24 0 -52 38q-7 12 -19 37q-5 32 -23 95h-274q0 -504 476 -504q195 0 355.5 115t226.5 299q33 92 33 144zM744 153q-25 38 -63 51 l-85 17q-33 7 -82 7h-26q-8 -14 -8 -25q0 -35 102 -91q97 -53 139 -53l4 5zM723 21q-1 5 -2 12q-153 40 -245 132h-7q-19 -84 -19 -128v-30l26 -5h219q28 0 28 19zM450 165q0 49 -26 68q-10 0 -30.5 1.5t-30.5 1.5q-154 0 -210 -26q-61 -29 -61 -71q0 -60 130 -100 q102 -32 183 -32h19q26 143 26 158zM1302 1066q-1 -4 -4 -4h-1q-1 0 -1 1zM1378 948q-1 -3 -4 -4h-2q-3 1 -4 4v3q1 5 5 5h1q3 0 4 -5v-3zM1361 944v-1q0 -7 -3 -7q-3 1 -6 4q3 6 6 6q2 0 3 -2zM1347 930q-1 -4 -4 -4h-1q-4 0 -4 4v2q1 5 4 5h1q4 0 4 -5v-2zM1324 919v-2 q-1 -6 -7 -6l-3 3l3 5l4 2q2 -1 3 -2zM1305 907v-2q-1 -7 -4 -7q-3 1 -6 4q3 6 7 6q1 0 3 -1zM1280 884l-1 -3l-3 -1h-2l-2 1l-1 3v1l1 3l2 1h2l3 -1l1 -3v-1zM1248 862v-1q0 -6 -7 -6l-2 2l2 5l4 2q2 0 3 -2zM1215 828q-1 -3 -4 -4h-1q-4 1 -4 4v3q1 5 4 5h1q4 0 4 -5v-3z " />
<glyph unicode="U" horiz-adv-x="1691" d="M2113 1342q0 -42 -100 -124q-119 -99 -129 -113l7 -7l-706 -761q-78 -84 -78 -184q0 -56 19 -56q23 0 74.5 32.5t62 55l32.5 69.5q55 109 151 195q113 100 217 100q82 0 82 -50v-37q0 -162 -177 -299q-160 -125 -332 -142l-4 -5q-10 -30 -10 -77q0 -57 3 -71 q-14 14 -14 28v120q-4 4 -45.5 15t-51.5 11t-28.5 -3.5t-28.5 -3.5q-33 0 -57.5 25t-24.5 58q0 37 62 137l89 143q-207 -193 -391 -320q-71 -50 -146 -50q-97 0 -97 125q0 81 99 196l483 558q104 120 104 200q0 118 -156 118q0 -14 2.5 -42.5t2.5 -42.5q0 -66 -31 -126 q-54 -103 -59 -114l137 115v-5l-66 -68q-23 -22 -128 -108q-80 -65 -119 -118q-15 -25 -47 -73q-170 -240 -417 -240q-182 0 -203 148q-10 75 -10 99q0 30 10 59q0 41 66 151q291 482 653 482q77 0 124 -21q19 -19 40 -19q10 0 29.5 3.5t29.5 3.5h36q134 0 173 -80 q10 -22 10 -30q0 -139 -24 -224q-30 -109 -112 -198l-431 -468l-33 -48l-61 -80q-36 -54 -36 -92q0 -6 6 -12q9 -2 20 -2q150 0 254 111l1018 1081q13 14 33 17q45 6 95 40q60 40 98 40q31 0 31 -22zM2073 1342l-5 8h-10q-29 -19 -89 -55l5 -7h2v-4l-54 -69q70 47 151 127z M1211 1187q0 94 -135 94h-40q123 -30 175 -94zM1100 1235q0 1 -2 1h-3h-2q1 -1 2 -3t3 -4q2 2 2 6zM1086 1239q-31 23 -73 23q0 -23 54 -23h19zM977 1248q-6 7 -21 19q-7 1 -14 1q-66 0 -195 -74h4v-2l3 2l63 20q55 5 160 34zM820 1255q-2 3 -5 3l-2 -3q0 -3 2 -4zM740 1188 q-1 6 -4 6h-2q-6 0 -6 -6v-2q1 -4 6 -8h1q4 0 4 7zM1564 933l-603 -646l-12 -21q152 127 323 319q55 62 292 348zM923 1295q-38 22 -115 22q-252 0 -518 -302h7q280 250 622 273zM1733 469q0 63 -70 63q-99 0 -216 -108q-107 -100 -145 -203v-9q103 104 121 104h4q3 -2 5 -7 l-163 -165q-33 -34 -33 -104q146 0 318 141q179 147 179 288zM996 1178q0 49 -16 49q-243 0 -440 -181q-50 -46 -74 -76q-14 -18 -14 -77q0 -35 3 -40q10 -26 35 -50q29 -26 54 -26h97q127 0 127 52q0 141 -120 141q-18 0 -50.5 -14t-51.5 -14h-2q28 40 108 40 q125 0 142 -151q97 97 136 155q66 97 66 192zM721 770q-36 -7 -102 -7q-23 0 -61 2q-9 1 -35 12q-84 35 -84 127q0 14 1 29q-66 -45 -66 -168q0 -110 92 -110q64 0 138 33.5t117 81.5zM801 1248q-52 0 -153 -42q-210 -88 -357 -234q-178 -177 -178 -371q0 -184 179 -184 q115 0 236 84q103 73 179 182h-5q-127 -64 -224 -64q-26 0 -49 2.5t-50 23.5q-30 22 -30 43q0 139 44 219q93 164 408 341zM1236 122l-84 -51q-4 -3 -7 -10q37 -19 59 -19q7 0 14 7zM1079 78l-24 66q-19 -31 -19 -59q0 -10 10 -10h14q3 0 9 1.5t10 1.5zM1006 133q-1 6 -4 6 h-2q-3 0 -4 -6v-2q1 -8 4 -8h1q4 0 5 7v3z" />
<glyph unicode="V" horiz-adv-x="1121" d="M2416 1234q0 -54 -51 -54q-45 0 -45 38q0 37 40 37q6 0 18.5 -2t19.5 -2v30q18 -14 18 -47zM3099 1067q0 -235 -255 -378q-214 -119 -470 -119q-424 0 -424 247q0 166 187 264q153 80 336 80q215 0 313 -113q26 -30 26 -68v-19q-59 169 -327 169q-168 0 -327 -76 q-194 -93 -194 -241q0 -121 145 -174q99 -36 246 -36q247 0 462 105q266 130 266 347q0 283 -478 283q-206 0 -233 -26q9 -9 21 -26q-10 0 -26 10.5t-31 10.5h-9q-20 -3 -88 -23q-223 -66 -433 -203l-171 -120q-48 -30 -123 -87l-162 -158v7l-561 -509q5 2 14 5q1 1 57 38 q7 5 37 30q158 135 368 344l-269 -273q-62 -59 -172 -132q-26 -16 -73 -49l-78 -82q-56 -57 -87 -57q-35 0 -35 40q0 108 120 280l184 259q48 87 73 137q-271 -158 -537 -158h-54q-33 14 -76 38q-91 51 -128 93q-53 60 -53 147q0 187 220 303q184 97 390 97q107 0 150 -12 q52 -15 107 -68v0q4 -1 4 -4l3 -3v0q4 -1 4 -5q17 -16 38 -40q52 -57 52 -77q0 -11 -7 -30t-7 -29q0 -26 28 -26h10q133 133 151 148q105 90 183 90q50 0 50 -47q0 -72 -88 -132q-60 -41 -139 -104l-520 -671l-94 -106q-19 -24 -19 -36v-2q92 61 231 170l263 267 q39 42 132 133l141 115l281 231l66 38q58 40 179 113q90 48 250 120q268 94 475 94q196 0 324 -68q161 -87 161 -266zM1437 1175q0 24 -36 24q-58 0 -141 -74.5t-99 -132.5h5q14 0 31 5q-43 -22 -50 -29l7 -2q78 0 158 63l-7 -12q32 11 76 54q49 47 49 76v2l-99 -94 q-12 0 -76 -30q32 20 76 56q33 24 96 75q10 9 10 19zM959 1180v1l-1 1l-4 5h-1q-1 0 -2 -1q0 -4 -2 -5v-2q1 -4 4 -4h1q1 5 4 5h1zM951 1186v2v2l-4 4h-1q-4 0 -4 -6v-2q1 -6 4 -6h1q1 0 2 1v0q1 4 2 5zM963 1172v2q-1 6 -4 6v0v-1q-1 -4 -4 -4h-1v-1v-2q1 -4 4 -4h1 q4 1 4 4zM940 1191v2q-1 6 -4 6h-2q-1 0 -1 -1v2q-1 6 -5 6h-1q-3 0 -4 -6v-2q1 -4 4 -4h2q1 0 2 1l-1 -2v-2q1 -4 4 -4h2q4 1 4 4zM970 1160v3q-1 5 -4 5h-1q-4 0 -4 -5v-3q1 -3 4 -4h1q4 1 4 4zM976 1151q0 2 -3 5q-5 0 -5 -4v-1q0 -2 2 -2h3q1 0 3 2zM916 1206q-2 2 -5 2 l-2 -2q0 -3 2 -5q4 2 5 5zM902 1214q0 1 -2 1h-1q-2 0 -2 -1v-2q1 -2 3 -4q2 2 2 5v1zM984 1093v26q0 9 -7 11v-11zM1218 949q-1 0 -90 -19l-68 -146zM822 1175q-7 12 -28 12h-31q-80 0 -173 -39q-96 -41 -145 -100q9 9 98 38q54 17 102 42q83 43 177 47zM928 987 q-61 110 -82 169q-139 0 -227 -51q177 0 177 -48v-2q-40 26 -115 26q-182 0 -182 -141q0 -40 18 -72q21 -39 58 -39q98 0 124 35q35 59 109 172l2 -2h3q0 -54 -48 -148v-8q24 0 86 43q59 41 77 66zM1041 930q-9 8 -41.5 23t-40.5 15h-12q-78 -72 -179 -113q-38 -16 -47 -38 l4 -2q26 0 77 23l76 36q-31 -41 -164 -83q-5 -4 -11 -8q-1 0 -1 1l-132 -132q246 41 377 139q5 4 94 139zM890 1218q-52 33 -186 33q-195 0 -381 -94q-224 -113 -224 -288q0 -134 132 -191q0 114 2 130q9 54 54 115q83 111 224 201q156 98 279 98q-9 0 100 -4zM658 812 q0 3 -11 3h-4q-5 0 -10 -3q0 -7 12 -7q13 0 13 7zM539 820q0 10 -25.5 46.5t-25.5 70.5q0 52 44 118q-52 0 -112 -45q-64 -49 -64 -99q0 -91 183 -91zM356 960v2q-1 6 -5 6h-1q-3 0 -4 -6v-2q1 -6 4 -6h1q4 0 5 6zM634 784q-33 18 -119.5 22.5t-117.5 19.5q-54 26 -54 101 q0 10 1 22q-83 -61 -83 -209q0 -62 33 -81q23 -14 90 -14q122 0 250 139zM740 195l-50 -37q2 0 3 1q24 10 47 36zM690 139v5q-118 -40 -118 -97q26 0 43 17q28 24 75 75zM1255 1025q-32 -20 -58 -28zM933 1198q-1 -2 -2 -3q0 2 2 3zM926 904q-1 -7 -5 -7h-1q-3 0 -4 7v1 q1 6 4 6h1q4 0 5 -6v-1zM897 886q0 -7 -7 -8l-2 3q3 6 6 6q2 0 3 -1z" />
<glyph unicode="W" horiz-adv-x="1463" d="M3448 1055q0 -236 -254 -378q-212 -119 -469 -119q-164 0 -273 47q-149 65 -149 205q0 166 188 265q155 81 338 81q288 0 334 -164q4 -14 7 -31l-7 -7q-64 172 -325 172q-169 0 -328 -76q-195 -93 -195 -242q0 -123 145 -178q101 -39 248 -39q237 0 458 109 q268 133 268 343q0 290 -478 290q-304 0 -664 -191q18 -4 18 -37q0 -76 -63 -76q-31 0 -68 38q-11 0 -62 -35q-77 -50 -216 -158l-683 -648l-109 -104q-68 -70 -113 -91q-21 -6 -60 -19l-11 -4q-1 -1 -5 -2q-16 -6 -27 -6q-10 0 -10 14v5l38 49q-7 0 -21.5 -2t-21.5 -2 q11 0 -14 4q19 19 33 26q9 0 10 -7t12 -7q35 0 35 45v7l-26 -19h-7l52 57l40 74q145 254 393 559q-20 -3 -82 -68l-648 -678q-29 -31 -59 -31q-24 0 -35 31q-14 -5 -57 -35q-34 -24 -61 -24v14q117 124 144 169l407 697l14 19q-39 15 -113 57q-80 -14 -127 -43l-61 -108 q49 0 162 71h7q-25 -34 -84 -59l-99 -35l-132 -135q-81 -68 -170 -68q-80 0 -125 57q-183 -172 -183 -325q0 -99 73 -157q68 -53 169 -53q17 0 49.5 7t49.5 7h5q-19 -33 -97 -33h-30q-107 0 -175 67t-68 173q0 182 188 358q5 79 5 84q5 42 21 79q62 139 206 244 q150 109 296 109q72 0 101 -14q11 -5 24 -12l45 -45l49 -41q28 -26 27 -54v0l-1 -11q106 19 151 59q63 57 76 66q47 33 93 33q38 0 57 -33q85 71 122 71q22 0 21 -7q-21 -50 -131 -87l-43 -71q-17 -26 -75 -70q-62 -47 -83 -74l-501 -633l-94 -146l1092 1036q8 7 19 7 q14 0 14 -9q0 -12 -2 -21q28 15 49 25l7 -2l-138 -154q-22 -22 -69 -77l-148 -212l-297 -424l-158 -188q93 43 120 71l540 546q4 4 139 118l174 146q516 403 977 403q177 0 303 -53q168 -70 190 -218q2 -16 2 -31v-33zM1738 1105h-12v-5zM1712 1093q-30 -21 -42 -38 q17 13 42 38zM1394 1133q0 23 -37 23q-59 0 -128 -82q10 -2 163 49q2 3 2 10zM1519 935q-34 -28 -56 -57q33 24 56 57zM1434 852v2q-1 6 -4 6h-1q-4 0 -4 -6v-2q1 -4 4 -4h1q4 1 4 4zM1361 1093l-157 -50q-43 -42 -62 -75q28 0 123 59q89 54 96 66zM1305 1036h-7l-80 -49 q-6 -3 -57 -24q-40 -16 -40 -35q75 0 97 21zM970 1111v2q0 6 -4 6h-1q-4 0 -4 -6v-2q1 -6 4 -6h1q4 0 4 6zM992 1076q0 31 -22 31q0 -54 14 -59q8 14 8 28zM1123 1017q-13 -2 -44 -11q-57 -17 -57 -22v-9q0 -21 26 -21t75 63zM1413 850q-19 -11 -127 -115 q-103 -99 -132 -132q47 35 259 247zM1048 935q0 5 -6 5h-2q-6 0 -6 -5q4 -2 7 -2q4 0 7 2zM1663 678l-377 -369l339 325zM1027 941v2q-1 6 -4 6h-1q-4 0 -5 -6v-2q1 -6 5 -6h1q3 0 4 6zM1173 904q2 0 -68 -7l-64 -124v-8zM897 973q1 22 -20.5 82.5t-35.5 82.5h-45 q-102 0 -195 -55q-106 -62 -106 -157v-33q0 -17 37 -57l233 94q12 24 43 69q7 -3 7 -12q0 -7 -3.5 -20t-3.5 -20q12 0 89 26zM1272 294v2q-1 5 -4 5h-1q-4 0 -5 -5v-2q1 -4 4 -4h2q4 1 4 4zM747 893h-15q-53 -27 -162 -76q20 -21 87 -21q38 0 90 97zM808 1156l-12 5 q-2 0 -7 1t-7 1h-17q-169 0 -322 -146t-153 -315q9 0 24 10l199 117q0 12 -16.5 43t-16.5 56q0 100 119 165q92 51 209 63zM657 773l-81 22l-25 8q-24 0 -128.5 -66.5t-104.5 -79.5q0 -35 82 -35q135 0 257 151zM1034 106q-50 0 -61 -38h4zM928 365l-214 -202q44 29 120 94z M1034 82l-50 -37q12 0 50 37zM789 207q-20 -13 -137 -94q-44 -31 -44 -56q0 -15 16 -15q22 0 83 70zM589 106l-26 -24q19 7 26 24z" />
<glyph unicode="X" horiz-adv-x="2106" d="M3514 1053q0 -220 -241 -354q-202 -113 -442 -113q-393 0 -379 283q-204 -103 -402 -160l-163 -40q-15 -4 -33 -26q-113 -134 -163 -225q-75 -135 -75 -263q0 -16 7 -25h2q14 0 58 12q41 12 46 11q-27 -17 -102 -38v-2q0 -32 38 -50q31 -16 66 -16q93 0 196 96.5 t103 188.5q0 61 -66 61q-80 0 -139 -71q-53 -66 -59 -150h-7q0 88 58 161q62 79 147 79q92 0 92 -85q0 -105 -105.5 -199.5t-212.5 -94.5h-23q-47 0 -144 82l-19 7q-83 31 -75 132q-27 -11 -163 -91q-93 -55 -169 -74l-272 -65q-157 -33 -277 -33q-204 0 -329 68 q-159 88 -159 275q0 221 229 354q193 113 431 113q30 0 88.5 -9.5t87.5 -9.5q9 0 12 7q19 41 60 122q136 240 366 356q98 50 203 50q71 0 137 -33q11 0 33.5 1t34.5 1q110 0 144 -26q70 -54 70 -205q0 -52 -12 -122q232 208 408 275q412 158 638 158q191 0 314 -62 q162 -80 162 -251zM3500 1053q0 275 -459 275q-169 0 -325 -49l-109 -38l-5 -7q71 -61 76 -132h12q-1 0 49 19q81 31 188 31q253 0 290 -137l-2 1q-1 0 -2 -11.5t-1 -22.5h-2q-14 139 -252 139q-193 0 -294 -68q-19 -13 -48 -50q10 15 17 31l-49 -33q-52 -35 -83 -87 q34 14 61 34q-61 -47 -67 -53q-27 -31 -27 -87q0 -191 342 -191q145 0 285 38q167 44 254 127q151 143 151 271zM2638 1182v2q-1 5 -4 5h-1q-4 0 -5 -5v-2q1 -4 4 -4h2q4 0 4 4zM2659 1090v31q0 42 -19 57q-5 -38 -26 -113q12 4 45 25zM2588 1159q0 49 -42 49q-11 0 -82 -37 q-320 -170 -547 -453q1 0 1 -1q-2 -4 -8 -10q45 11 309 108l44 16q118 44 210 124q115 100 115 204zM1922 1182v2q-1 5 -4 5h-1q-4 0 -5 -5v-2q1 -4 4 -4h2q4 0 4 4zM2475 921h-4q-109 -76 -396 -189q-7 -7 -14 -7h7q31 0 191 68q154 65 193 90q12 8 23 38zM1736 1227v7 q-4 5 -14 12h-3q-44 0 -96 -38h19q31 0 91 17zM1613 1200v3q-1 5 -4 5h-1q-4 0 -4 -5v-3q1 -3 4 -4h1q4 1 4 4zM2049 718v1q-1 4 -5 4q-2 -2 -2 -5q1 -1 6 -3q1 0 1 3zM2028 711v2q-1 5 -4 5h-1q-4 0 -5 -5v-2q1 -4 4 -4h2q4 0 4 4zM2006 710q-1 1 -3 1h-3q-2 0 -2 -1 q0 -2 2 -3q0 -4 2 -5q2 2 2.5 4t1.5 4zM1985 699v2q0 6 -4 6h-1q-3 0 -4 -6v-2q1 -4 4 -4h1q4 1 4 4zM1759 1152q0 56 -23 56q-241 0 -377 -238q-52 -90 -52 -181q31 -14 87 -14q113 0 165 38q14 9 53 49q147 148 147 290zM1924 1123v36q-18 25 -52 37q29 -7 40 -7 q0 34 -34 54q-29 17 -65 17q-32 0 -58 -7v-7q0 -7 11 -19l70 -21q-28 5 -58 5q0 -14 3.5 -41.5t3.5 -41.5q0 -85 -49 -195l75 68l-160 -177q-173 -186 -342 -186q-103 0 -103 118q0 16 7 47.5t7 42.5v75q0 61 85 126l134 93q37 33 120 87q38 16 113 52q-19 12 -92 12 q-226 0 -428 -234q-70 -80 -101 -134q-15 -26 -71 -148l2 -5q103 -42 147 -91q53 -58 60 -161q149 50 331 92q51 10 152 33q21 5 71 71q65 85 118 194q63 132 63 215zM1538 786v2q-1 6 -4 6h-1q-4 0 -4 -6v-2q0 -4 4 -4h1q4 1 4 4zM1408 1109q-59 -27 -114 -85 q-62 -66 -62 -122v-26q29 51 84 119q89 109 92 114zM1559 612v1q-1 4 -5 4q-1 -1 -2 -5l5 -4q2 2 2 4zM1521 782h-2q-21 0 -61.5 -9.5t-60.5 -9.5q-15 0 -45 3.5t-45 3.5q0 -83 56 -83q23 0 83 36.5t75 58.5zM1542 608q-2 2 -7 2h-4q-4 0 -4 -2q2 -4 6 -5q9 1 9 5zM1340 688 q-24 18 -52 82q-4 10 -25 24q-17 13 -17 26q10 -8 31 -19h7q11 85 42 176q-43 -35 -71 -100.5t-28 -122.5q0 -73 75 -73h19q12 0 19 7zM1514 601h-11q-41 0 -314 -95q-7 -13 -7 -26q164 67 332 121zM1578 337q-82 -66 -82 -130q0 -73 70 -73q-7 36 -7 66q0 23 9.5 68t9.5 69 zM1660 612h-14q-4 0 -23 -7l-236 -70q-136 -44 -224 -104q-18 -12 -39.5 -45t-35.5 -44l-101 -74q-38 -36 -38 -117q0 -10 7 -17h21q141 0 332 145q84 63 278 249q32 29 73 84zM1100 393q-28 -21 -61 -51q37 18 61 51zM1163 495q-18 -4 -68 -26q-115 -52 -166 -84 q-97 -62 -124 -131h3q76 0 111 31q5 5 87 82q2 3 91 58q66 42 66 70zM1156 171v2q0 6 -4 6h-1q-3 0 -4 -6v-2q1 -4 4 -4h1q4 1 4 4zM1142 164v2q-1 6 -4 6h-1q-4 0 -4 -6v-2q1 -4 4 -4h1q4 1 4 4zM1126 160q-94 -33 -158 -45v-2q0 -16 33 -16q52 20 125 63zM895 238h-7 q-7 -3 -90 -21v-17q0 -28 27 -49q24 -19 53 -19q0 18 8.5 53t8.5 53zM1171 511v28q0 72 -67.5 132.5t-140.5 60.5q-7 -19 -26 -56q-7 2 -7 14q0 21 7 47q-35 17 -87 17q-310 0 -497 -99q-226 -120 -226 -330q0 -170 160 -252q123 -64 311 -64q104 0 179 16l59 15 q33 5 101 33l7 5q-23 18 -56 37q-67 30 -72 34q-25 18 -36 68q-24 0 -50 -1h-50q-141 0 -202 57q-68 64 -68 123q0 40 19 54v-7q0 -8 -3.5 -22.5t-3.5 -22.5q0 -64 63 -110q58 -41 125 -41h158l26 7q41 91 166 156zM2616 1003q-21 -31 -54 -55q29 22 54 55zM1872 1196 l-36 10q20 -3 36 -10zM1839 1031q0 -4 -4 -4h-1q-4 1 -4 4v2q1 6 4 6h1q4 0 4 -6v-2z" />
<glyph unicode="Y" horiz-adv-x="1858" d="M2699 1267q0 -14 -26 -38l-122 -93q-188 -146 -299 -265l2 -6q-4 -26 -52 -36l-186 -188v-38l-232 -243q-41 -40 -117 -122l-73 -105l-146 -208q-25 -37 -75 -90q-42 -31 -113 -106l-320 -490q-17 -26 -48 -90q-35 -72 -35 -89q0 -16 14 -16t19 7l589 791q27 36 85 101 l103 118l151 151h14l-185 -204q-32 -33 -93 -102l-213 -283l-427 -565q-29 -38 -57 -38q-42 0 -42 47q0 68 56 160l276 446q-207 -95 -419 -95q-205 0 -339 78q-165 95 -165 285q0 88 30 137q7 12 22 35q-1 24 -15 50l-4 44q-203 -179 -203 -381q0 -130 109 -146 q-2 -10 -12 -10q-127 0 -127 153q0 164 168 348q25 23 69 74q21 29 41 85q24 68 35 89q107 205 354 375q50 34 84 53q15 7 45 24q2 2 54 50q44 42 106 91q347 281 636 281q254 0 254 -158q0 -153 -227 -387q-13 -12 -37 -39q-9 -12 -33 -75q-25 -68 -103 -142l-197 -167 q-126 -118 -126 -205q0 -40 49 -40q80 0 177 94l822 799q6 6 40 33l209 167q153 113 222 113q33 0 33 -19zM2661 1269q-54 -1 -183 -89q-104 -70 -170 -132l-344 -320q66 50 115 81q18 10 52 32q2 1 56 52l143 125q126 106 228 174q31 17 89 56q14 11 14 21zM2033 740 q-76 -53 -139 -144zM1842 1154q0 120 -203 120q-208 0 -413 -106q-195 -102 -331 -271h5q228 106 402 106q85 0 123 -30q20 -16 78 -102q70 -35 101 -87h7q231 227 231 370zM1448 867q-32 7 -37 7h-33q0 -16 17 -45q20 -33 23 -45q31 17 30 83zM1573 765q0 29 -34 62t-62 33 q-5 0 -10 -22q-3 -11 -28 -85q-15 -44 -16.5 -93.5t-18.5 -75.5zM1550 645l-90 -94q41 38 90 94zM1444 883q0 47 -47 77q-41 27 -90 27q-148 0 -287 -43q-181 -56 -224 -160q23 8 60 35l58 41q125 75 275 75q106 0 165 -45q13 0 40.5 -3.5t42.5 -3.5h7zM1373 777 q0 94 -42 94q-118 0 -280 -90q-180 -100 -180 -206q0 10 7 -52l-2 -3q-19 17 -19 57q0 110 180 205q121 64 280 104q-25 30 -123 30q-89 0 -234 -58q-159 -63 -190 -130q-12 -26 -12 -72q0 -161 186 -161q139 0 222 207q11 38 36 113q7 18 18 19q0 -123 -80 -283v-5 q87 36 150 88q83 70 83 143zM1309 608q-77 -37 -211 -118q139 0 211 118zM1618 358q-33 -47 -122.5 -117t-115.5 -104q172 70 238 221zM970 464q-38 7 -113 26q-114 35 -114 190q0 14 1 29q-87 -78 -87 -198q0 -55 41 -87q37 -31 93 -31q123 0 179 71zM1543 231h-7 q-74 -58 -168 -112q-123 -70 -181 -70q-97 0 -97 116q0 132 163 363v4q-64 -32 -118 -47q-18 -3 -52 -14l-49 -38q-94 -70 -219 -70q-74 0 -125 33q-59 38 -59 108q0 73 82.5 187t82.5 131v7q-410 -272 -502 -561q8 2 62 29q67 35 124 35q23 0 56 -15.5t39 -15.5 q13 0 40.5 2.5t41.5 2.5q128 0 231 -63q120 -74 120 -194q0 -106 -80 -184q-75 -72 -184 -91q3 -29 47 -61.5t73 -32.5h35q102 0 168 28q219 94 476 523zM544 294q-12 26 -61 26q-65 0 -128 -32q-75 -39 -75 -97q0 -54 7 -54h7q77 72 181 124q24 10 69 33zM565 226 q-49 -1 -126 -52q-71 -48 -102 -94q8 -12 28 -12h31q63 0 116 47.5t53 110.5zM1008 -339q-18 0 -51.5 -1t-46.5 -1q-115 0 -178 108q-221 0 -223 49q30 0 91 -11.5t92 -11.5q16 0 29 4q-7 17 -7 36q0 160 73 160q59 0 59 -73q0 -71 -50 -71q-15 0 -34.5 25t-26.5 25h-3 q-7 -9 -7 -26q0 -46 7 -68l8 -8q85 0 159 76.5t74 161.5q0 107 -92 163q-77 47 -190 47q-90 0 -103 -33q-3 -14 -11 -42q-18 -56 -68.5 -88.5t-110.5 -32.5q-40 0 -73 12q-57 -33 -57 -172q0 -150 151 -225q118 -60 285 -60q219 0 304 57zM1460 701l-4 -4h-1l-4 4v2l4 6h1 l4 -6v-2zM888 513l-4 -4h-2l-3 4v2l4 5h1l4 -5v-2zM895 506l-4 -4h-1l-4 4v2l4 5h1l4 -5v-2z" />
<glyph unicode="Z" horiz-adv-x="2007" d="M2190 1185q0 -110 -166 -194q-140 -70 -269 -75q-157 -6 -208 -54l-245 -233q17 -26 83 -26q16 0 39.5 13t38.5 13h4q-51 -64 -120 -64q-16 0 -39.5 13t-38.5 13q-16 0 -16 -7l-177 -174v-7q34 -22 90 -64q67 4 125 -30q221 113 395 113q259 0 259 -182q0 -159 -188 -238 q-140 -59 -325 -59q-207 0 -405 83q-17 0 -28 -24q-27 -53 -59 -165q0 3 -1.5 7.5t-1.5 7.5q0 59 64 186q-216 115 -219 115q-13 0 -81 -48q-85 -60 -143 -88q-98 -48 -184 -48q-85 0 -120 38q-5 6 -11 19q-4 1 -7 7q-172 0 -172 80q0 66 65 101q43 22 141 39.5t123 29.5 l175 94q114 59 299 59q23 0 68 -3.5t68 -3.5h5q184 183 184 190q0 17 -14 17q-58 0 -89 -13t-46 -13h-4q14 22 61 43t75 21q12 0 33 -11t33 -11q45 17 250 222q-78 12 -100 19q-63 22 -63 68q0 20 22.5 48t22.5 51q0 66 -188 66q-123 0 -244 -59q-147 -71 -147 -179 q0 -48 47 -78q40 -26 92 -26q92 0 164 41q88 49 88 134q0 84 -109 84q-77 0 -132 -56q0 36 53 58q41 17 84 17q134 0 134 -108q0 -45 -11 -61q26 25 87 162h7q0 -123 -96 -254q-88 -119 -206 -184q-60 -33 -155 -33q-172 0 -172 151q0 15 3.5 44.5t3.5 44.5q0 7 -26 56 t-26 81q0 125 126 217q116 84 246 84h325q97 0 158 -75q22 -28 54 -61q55 -34 160 -76q4 2 12 5q150 109 181 127q110 64 208 64q96 0 96 -61zM2120 1168q0 21 -43 21q-73 0 -139 -40q26 -11 26 -35q0 -26 -26 -59q40 0 108 38q74 41 74 75zM1955 1179v2q-1 6 -4 6h-1 q-4 0 -5 -6v-2q1 -4 4 -4h2q4 1 4 4zM1943 1174v2q-1 6 -4 6h-1q-4 0 -4 -6v-2q0 -6 4 -6h1q4 0 4 6zM2164 1182q0 45 -63 45q-73 0 -139 -40q10 -1 52.5 12.5t60.5 13.5q71 0 71 -40q0 -77 -184 -125q-47 -12 -99 -45q-31 -19 -132 -66h14q109 0 254 70q165 81 165 175z M1950 1107q0 16 -7 23q-4 2 -9 3q-83 0 -165 -97h33q148 0 148 71zM1882 1025q-25 0 -75.5 -6t-75.5 -6q-34 -27 -75 -64l2 -3q15 -9 35 -9q73 0 189 88zM1660 1025l-106 30h-7q0 -18 15 -48q15 -34 30 -34q26 0 68 52zM1618 911v1q-1 4 -4 4h-1q-2 -1 -2 -4v-1q0 -3 2 -4 q3 1 5 4zM1554 930q-75 40 -113 83q-16 -43 -49 -76l-2 -7q0 -37 87 -37h26q21 0 51 37zM1411 1069q0 45 -38 76q-13 4 -100 48q-61 32 -105 32q-77 0 -220 -107q-128 -97 -183 -175q-14 -21 -54 -100q0 -23 53 -41q44 -15 74 -15h12q-68 44 -68 103q0 111 157 186 q130 62 257 62q123 0 215 -69zM1189 874q-49 -50 -49 -45q31 14 49 45zM1133 821v2q-1 6 -4 6h-1q-4 0 -5 -6v-2q1 -4 4 -4h2q4 1 4 4zM1121 1232q-29 7 -68 7q-150 0 -266 -61q-144 -76 -144 -212q0 -78 45 -111q113 247 433 377zM1931 236q0 148 -231 148q-200 0 -383 -94 q-6 0 -8 -7q-9 -55 -17.5 -73t-45.5 -59q0 -113 23 -113q22 0 104 51q-14 -17 -51.5 -34.5t-49.5 -35.5q7 -7 19 -7q96 0 256 127q-66 -78 -219 -144q29 -24 99 -24q185 0 315 46q189 68 189 219zM1147 824q-108 -59 -250 -59q-108 0 -190 45q-15 -4 -15 -28v-33 q0 -127 139 -127q110 0 226 108q42 37 90 94zM1267 292q0 31 -50 31h-18q-2 0 -7 -1.5t-7 -1.5q11 -21 37 -56h5q14 8 40 28zM1241 240q-2 2 -5 3l-2 -3q1 -3 2 -4q4 1 5 4zM1102 327q0 16 -20.5 33t-35.5 17q-14 0 -113 -99q3 -1 169 49zM1133 158q-21 -23 -64 -66 q0 -22 26 -21q11 30 38 87zM1152 45v8q0 11 -5 18v-5l-2 -5q0 -14 7 -16zM1128 184v82q0 43 -23 43q-46 0 -150 -38q-117 -41 -117 -73v-3l208 -101zM921 316q-7 -4 -75 -57v-7q51 35 75 64zM820 245q-19 -7 -31 -24q10 3 31 24zM977 396q-30 14 -66 14h-63 q-219 0 -398 -120q-4 -2 -7 -7q151 -7 308 -50q30 14 120 77.5t106 85.5zM808 214v1q-1 4 -4 4h-1q-2 -1 -2 -4v-1q0 -3 2 -4q3 1 5 4zM744 170h-7l-169 -118q117 52 176 118zM695 195q-97 57 -245 57h-57q-129 -92 -129 -195q165 0 431 138zM561 44v2q-1 6 -5 6h-1 q-3 0 -4 -6v-2q1 -6 4 -6h1q4 0 5 6zM549 37v2q-1 6 -4 6h-1q-4 0 -5 -6v-2q1 -4 4 -4h2q4 1 4 4zM488 75h-8q-38 0 -103 -16q-73 -19 -104 -21q0 -50 97 -50q49 0 99 19q-22 7 -22 24l3 7zM349 245h-19q-71 0 -152 -33q-100 -41 -100 -99q0 -61 134 -61q-6 0 24 5 q25 108 113 188zM1630 207q0 -5 -10.5 -14t-15.5 -9q17 24 25 24q1 0 1 -1zM1585 168q0 -17 -19 -17q6 20 18 20q1 0 1 -1v-2zM1484 169q-1 -4 -4 -4h-2q-3 1 -4 4v2q1 6 5 6h1q3 0 4 -6v-2zM1416 116q-1 -3 -5 -3l-3 2q3 7 6 7q2 -1 2 -4v-2zM1392 101v-1q0 -6 -7 -6l-3 3 l3 4l4 3q2 -1 3 -3z" />
<glyph unicode="\" horiz-adv-x="582" d="M584 -92h-62l-437 1369h68z" />
<glyph unicode="^" horiz-adv-x="506" d="M466 926h-54l-146 193l-129 -193h-48l154 268h47z" />
<glyph unicode="`" horiz-adv-x="652" d="M457 989l-2 -5q-43 10 -126 82q-88 74 -88 112q0 31 39 31q18 0 26 -10q14 -19 42 -85q25 -58 48 -78l44 -33q1 -2 17 -14z" />
<glyph unicode="a" d="M704 231q0 -6 -35 -38t-49 -41v-3q0 -3 -10 -3q-59 -49 -138 -91q-20 -9 -57 -29q-8 -5 -8 -14q0 -12 26 -12q10 0 28.5 7t28.5 7q-40 -23 -66 -23q-17 0 -66 26.5t-49 39.5q0 9 1 27t1 27q-10 -1 -66 -36q-5 7 -19 7q-71 -42 -151 -63v-5q0 -14 26 -14q9 0 25 3.5 t25 3.5q-28 -16 -52 -16q-127 0 -127 131q0 146 132.5 270t279.5 124h38q29 0 58 -97q5 -16 24 -16q54 90 61 95q14 11 102 11l-38 -57v-14h30v-16l-137 -164q-100 -126 -100 -169q0 -25 21 -25q48 0 134 69q124 98 127 100v-2zM462 443q0 61 -33 61h-38q-72 0 -113 -38 q-31 -28 -71 -70v-12h14q128 59 241 59zM459 407v8l-7 7h-23q-63 0 -158 -83q-207 -180 -207 -259q0 -23 11 -28q6 0 15 -1.5t14 -1.5q103 0 229 127.5t126 230.5z" />
<glyph unicode="b" horiz-adv-x="617" d="M1234 1338q0 -66 -68 -134l-184 -184q-27 -30 -92 -92l-194 -153l-390 -306q-37 -30 -71 -81q-40 -59 -40 -98q27 0 129 74t182 74q90 0 90 -75q0 -25 -32 -83.5t-32 -67.5q0 -18 12 -12q0 -5 -12 -7q-12 -12 -30 -12q-158 -157 -311 -157q-50 0 -95 47t-54 47l-59 -59 q-41 -35 -75 -35q-26 0 -26 18t26 50q20 24 123 188v12q-5 0 -15.5 -2.5t-15.5 -2.5q65 66 188 201q1 0 507 607q48 58 133 120l147 102q116 82 184 82q75 0 75 -61zM1180 1350q0 35 -42 35q-25 0 -72 -23q-51 -25 -51 -45q0 -5 31 -19q45 -21 63 -83h7q26 0 47 55 q17 46 17 80zM1067 1222q0 41 -33 62q-5 0 -14 1t-14 1q-33 0 -40 -7q-68 -65 -196 -203l-176 -212q-49 -51 -137 -162l-101 -151v-16q33 0 330 260q271 238 336 307q45 48 45 120zM490 391q-1 4 -2 9q-7 7 -26 7q-60 0 -162 -65q-92 -60 -137 -116q-52 -64 -52 -151 q96 63 190 95q40 13 55 11q-1 -3 -12 -7q-189 -56 -189 -108q0 -19 24 -19q94 0 203 120v7q0 18 -12 12q19 19 42 19q35 15 59 82q19 56 19 104z" />
<glyph unicode="c" horiz-adv-x="504" d="M509 233q-167 -166 -238 -195q1 14 -12 14q-7 0 -127 -38v-12q17 0 51.5 8.5t52.5 8.5h4q-56 -31 -115 -31q-36 0 -93 31q-63 33 -63 63v132q20 18 29 43q36 104 135.5 181.5t208.5 77.5q124 0 124 -85q0 -155 -82 -155q-26 0 -26 23q0 8 7 24t7 26q0 15 -14 73 q-70 0 -173 -128.5t-103 -201.5q0 -47 62 -47q141 0 358 188h7zM415 471q0 17 -19 31q-3 0 -8.5 1t-8.5 1q-88 0 -146 -52q-25 -22 -38 -37q-25 -29 -25 -45h14q106 54 219 75q12 12 12 26z" />
<glyph unicode="d" horiz-adv-x="714" d="M1069 1013l-539 -723l-59 -106q-49 -86 -49 -95q0 -25 25 -25q55 0 278 188h5l-99 -116q-67 -70 -120 -70h-2q-24 -12 -72 -34q-19 -3 -58 -11q-14 -3 -14 -14q0 -24 33 -23q-14 -8 -26 -8q-63 0 -63 97q0 11 5.5 31t5.5 30h-9q-90 -82 -130 -82q-18 0 -54.5 -16.5 t-60.5 -16.5q-5 0 -17 1.5t-18 0.5q0 -34 44 -34q13 0 29 1q-31 -12 -57 -12q-82 0 -82 118q0 156 158 292q152 132 310 132q78 0 78 -61q0 -11 -2.5 -32t-2.5 -32q12 1 12 -4q4 3 12 14l535 730h4v-120zM417 -12q0 -3 -2 -3v0q-2 0 -5 3q0 4 2 5q5 -1 5 -4v-1zM134 2 q0 -3 -2 -4q-3 1 -5 4l3 3q3 -1 4 -3zM495 417q0 51 -3 60q-8 27 -47 27q-40 0 -100 -26q-69 -31 -69 -63q23 0 69 12.5t70 12.5q44 0 51 -18q-25 4 -42 4q-69 0 -213.5 -138.5t-144.5 -207.5q0 -19 12 -28q74 0 125 28q66 38 155 125q96 95 115 155q-1 2 -4 18v39h26z" />
<glyph unicode="e" horiz-adv-x="506" d="M509 221q-117 -117 -165 -153q-107 -80 -205 -80q-48 0 -95 27q-63 36 -63 67q0 107 7 132l28 52l15 31q42 84 148.5 151.5t199.5 67.5h43q25 -2 42 -32q14 -25 14 -53q0 -109 -138 -185q-70 -39 -234 -88q-12 -31 -12 -61q0 -52 66 -52q89 0 185 58q38 24 157 118h7z M429 466q0 19 -22 38h-30q-45 0 -106 -39q-66 -42 -66 -83l14 2q103 46 203 56q7 8 7 26zM398 386q0 5 -1 12.5t-1 11.5q-8 7 -29 7q-29 0 -47 -12q-110 -72 -176 -184v-16q58 0 153 62q101 66 101 119zM294 45v14q-27 0 -75 -18q-73 -26 -75 -27v-14q61 0 150 45z" />
<glyph unicode="f" horiz-adv-x="436" d="M1333 1335q0 -59 -108 -174q-10 -11 -165 -151q-55 -52 -167 -150l-205 -165q-72 -59 -160 -123q3 14 -12 14q-17 0 -59 -36t-42 -53q0 -12 7 -12q-28 -25 -76 -75q-27 -35 -133 -183q-116 -162 -116 -168v-14q50 0 132 42q74 38 117 78q46 36 132 113h7q0 -18 -27 -44 q-10 -9 -43 -31l-47 -37q-78 -59 -142 -91l-108 -44q-63 -29 -85 -80q-34 -95 -108 -281q-136 -307 -302 -492q-112 -125 -174 -125q-52 0 -52 57q0 52 52 158q138 281 509 777q3 4 15 45q7 24 65 61l127 165v11h-26l64 50q43 34 49 56l490 573l106 103q103 102 131 127 q80 73 142 114q80 51 144 51q68 0 68 -66zM120 309l-19 -19h-7l19 19h7zM1281 1345v23q-14 19 -40 19q-61 0 -198 -136v-15q65 0 80 -22q10 -14 10 -84h9q139 129 139 215zM1112 1189q0 22 -19 29q-3 0 -8.5 1t-8.5 1q-65 0 -77 -14l-509 -615h14q8 0 129 89l140 104l30 29 l208.5 186.5t100.5 189.5zM0 -106v17q-11 0 -24 -17l-138 -174q-189 -247 -321 -478q-49 -87 -49 -128q0 -23 23 -23q33 0 59 26l76 75q29 30 80 109q44 63 124 197q59 112 156 361z" />
<glyph unicode="g" horiz-adv-x="690" d="M716 497l-377 -502v-14h19q62 24 327 233h5q-191 -195 -389 -282q-66 -103 -212 -297l-138 -166q-92 -107 -146 -152q-57 -47 -325 -214q-80 -50 -172 -50q-104 0 -104 76q0 74 61 136q35 39 109 109l251 196q37 31 125 98l151 92l302 183q26 49 29 53q22 36 39 42l49 75 v14h-11q-83 -81 -132 -101q0 12 -12 12q-16 0 -47 -9.5t-47 -9.5q-10 0 -28.5 3.5t-28.5 3.5q0 -40 57 -40q6 0 18.5 1t18.5 1q-16 -14 -54 -14q-92 0 -92 111q0 192 205 322q152 97 259 97q28 0 45 -7q-48 0 -120 -26q-85 -31 -85 -68q29 0 82.5 18.5t82.5 18.5 q9 0 27 -5.5t27 -5.5q0 7 4 20t4 19q0 13 -15 22q31 0 31 -50q0 -11 -1.5 -33t-1.5 -33q35 0 62 48q34 59 47 68q54 7 82 7h19zM485 391q0 31 -47 31q-74 0 -216 -134t-142 -208q0 -3 2 -12q1 -7 0 -11q7 -8 19 -8h19q85 0 225 129t140 213zM153 -125h-14l-403 -252 q-90 -56 -154 -146q-72 -100 -72 -195q0 -73 61 -73q32 0 40 7q49 43 130 132q27 26 78 82l327 419q7 9 7 26zM-450 -827v5q-96 26 -96 104q0 32 23.5 85.5t23.5 79.5q-13 -1 -45 -29q-71 -61 -118 -122q-59 -78 -59 -156v-37q12 -31 59 -31q51 0 97 25q115 62 115 76z" />
<glyph unicode="h" horiz-adv-x="754" d="M1255 1340q0 -70 -108 -179l-85 -87q-50 -63 -165 -177l-527 -421q-113 -90 -184 -231l2 -12h12q6 0 95 78q81 72 101 92q6 0 8 -11q2 -3 8 -3h7q123 49 177 49q17 10 17 28q0 8 -1.5 23t-1.5 22q-5 0 -15.5 2t-16.5 2t-8 -2q-14 0 -38 -11h-7q26 26 52 26q87 0 87 -76 q0 -60 -93 -183q-124 -165 -133 -182v-12q9 0 26 -3.5t25 -3.5q45 0 150 88q76 65 131 127v-7q-37 -61 -151 -170q3 14 -11 14h-7q-33 -32 -111 -68q-46 -21 -45 -28l2 -10q11 0 32 2.5t32 2.5h2q-30 -19 -68 -19q-35 0 -77 20q-50 23 -50 53q0 41 45 97l162 200v30 q-3 0 -10 1.5t-11 1.5q-16 0 -21 -3q-14 1 -19 -4q-202 -93 -415 -370q-3 -5 -11 -14h-102q-13 6 -37 26q65 144 120 200q0 34 -12 34q-4 0 -7 -1q6 4 65.5 56.5t66.5 61.5l539 683q45 56 87 94q54 47 144 94l134 87q81 52 149 52q70 0 70 -59zM513 490q0 -3 -2 -5 q-3 2 -5 5l3 2q3 0 4 -2zM495 475q-1 -3 -2 -3h-1q-2 1 -4 4q0 3 2 4q4 0 5 -4v-1zM469 459q0 -2 -3 -4q-1 1 -3 5q1 1 3 2h1q2 -1 2 -3zM438 433v0q0 -7 -6 -7h-6q2 3 5 7h7zM1204 1338q0 49 -48 49q-62 0 -148 -89v-12q75 -19 94 -106h14l56 74q32 47 32 84zM1053 1218 q0 49 -64 49h-14q-2 0 -9 -7l-158 -162q-20 -22 -200 -234q-60 -67 -139 -167l-80 -132v-19h11q2 0 33 26l231 186l167 151q72 61 165 151q57 73 57 158z" />
<glyph unicode="i" horiz-adv-x="393" d="M563 737q0 -31 -41.5 -61.5t-74.5 -30.5l-4 7v26q0 80 85 80q35 0 35 -21zM412 252q-49 -80 -89 -113v6q0 8 -12 8q8 0 -101 -73q-54 -36 -106 -54q-26 -9 -26 -17q0 -25 35 -25q15 0 39 11.5t39 11.5q-26 -35 -94 -35q-36 0 -70 34t-34 69q0 41 111 215v19h-12 q-24 -23 -76 -64q-4 -6 -16 -12v3q0 18 92 110q-1 -14 19 -14q84 61 84 101h-9l-45 -37v7q32 37 104 94q10 5 56 5h29q-3 -8 -17 -29q-9 -14 -9 -35q28 0 45 -12l-102 -125l-84 -102q-55 -74 -55 -119q0 -16 24 -16q46 0 96 44q62 45 177 144h7zM306 115q-6 -7 -21 -21v7 l19 19l2 -2v-3zM228 38q-4 -7 -18 -19h-5q7 12 19 19h4z" />
<glyph unicode="j" horiz-adv-x="398" d="M542 740q0 -27 -39 -57.5t-67 -30.5q-17 0 -17 31q0 78 87 78q36 0 36 -21zM422 252l-76 -75q-10 0 -101 -64h-7l184 146v-7zM45 278l-19 -19h-7l19 19h7zM0 240l-19 -19v5l12 14h7zM389 497l-57 -82l-332 -424v-10l19 -2l103 63l97 59h9l-209 -136q0 -13 -29 -30 q-34 -20 -39 -27l-281 -370q-30 -40 -114 -120q-380 -362 -581 -362q-96 0 -96 70q0 45 33 97l61 85q107 148 322 286q54 35 380 215q140 78 165 99q13 12 19 19l318 426v10q-33 0 -113 -73h-7q33 37 106 94q8 1 18 7q18 7 83 66q44 40 125 40zM-250 -198v21q-19 0 -42 -14 l-422 -264l-80 -63q-2 -2 -26 -19q-62 -45 -114 -115q-62 -82 -62 -144q0 -54 85 -54q121 0 247 122q89 88 155 170q42 52 140 184q119 162 119 176zM-843 -862q-17 0 -49.5 -7t-49.5 -7q-20 0 -51.5 13t-45.5 13t-14 -12q0 -59 57 -59h21q132 0 132 59z" />
<glyph unicode="k" horiz-adv-x="744" d="M1279 1340q0 -75 -97 -165l-263 -245l-178 -143l-355 -285q-23 -19 -169 -238v-12q18 0 23 5q156 132 191 158q144 108 217 108q77 0 77 -59q0 -28 -51 -94q0 -10 -12 -24q-21 -24 -123 -48q-92 -21 -92 -44q0 -14 20.5 -34t20.5 -41q0 -18 -16.5 -49.5t-16.5 -49.5 q0 -12 9 -12h19q65 0 285 196v-7l-83 -95q-78 -86 -91 -87l-3 3l3 4l8 4q-2 5 -1 13q-45 -24 -135 -68v-10q15 0 41 8.5t39 8.5h3q-24 -38 -94 -38q-14 0 -57 19q-71 31 -71 94q0 50 23.5 97.5t23.5 50.5q0 22 -58 22h-19l-125 -125q-43 -53 -101 -113q-13 -25 -31 -26 l-94 -7q-19 -2 -19 28v9q9 23 31 64l89 132q0 19 -26 26l26 26q38 30 94 80q2 2 5 7l516 690q130 175 282 233q-2 0 -3 1q2 1 10 3q22 3 67 12q6 1 12 3h-3q21 6 88 45q53 30 93 30q71 0 71 -61zM568 49q-1 -3 -2 -3h-1q-2 1 -4 3q0 4 2 5q4 0 5 -4v-1zM1227 1342 q0 48 -47 48q-24 0 -69 -25q-49 -26 -49 -46q0 -10 16.5 -23.5t16.5 -21.5v-33q0 -21 -14 -59t-14 -59h16q144 144 144 219zM970 1281v14q-55 0 -138 -87l-114 -134v-12h12zM1057 1246v28q-11 21 -25 21l-172 -172q-27 -26 -85 -87l-128 -157l-256 -314q-14 -17 -14 -30h21 l426 351q83 67 151 163q82 115 82 197zM650 443v47q0 14 -31 14q-39 0 -139 -64v-14q16 0 45.5 7t44.5 7h5q11 -1 49 -10l11 -2l4 -2h-1q12 0 12 17zM561 346v57q0 12 -33 12q-83 0 -198 -102l-3 -4q0 -22 59 -22q144 0 175 59z" />
<glyph unicode="l" horiz-adv-x="443" d="M1284 1340q0 -62 -76 -141l-141 -148q-20 -24 -71 -74l-226 -183l-452 -368q-32 -26 -104 -141q-66 -104 -92 -160q0 -3 -1 -7.5t-1 -6.5q0 -5 2 -18q1 -12 0 -18l8 -7q73 0 195 95h5q-40 -51 -114 -98q-82 -53 -136 -53q-80 0 -80 61q0 55 54 165q5 6 12 19l2 2 q0 17 -14 17q30 26 83 82l570 690q33 41 195 174q214 177 309 177q73 0 73 -59zM431 250l-28 -26l-3 2l26 26h3zM367 193l-18 -19h-5l21 21zM40 264q-12 -13 -31 -28zM1234 1342q0 45 -47 45q-23 0 -65 -21q-46 -24 -46 -42v-7q9 0 26 -2.5t26 -2.5q7 -7 19 -7 q43 -52 49 -52q17 0 29 37q9 30 9 52zM1159 1253q0 28 -26 40q-92 0 -106 -14q-44 -39 -120 -118l-483 -577v-14q16 0 26 7l249 188l137 124l273 246q50 45 50 118z" />
<glyph unicode="m" horiz-adv-x="1208" d="M995 474q0 -2 -1 -4l-2 -4q-3 2 -3 5l-1 2v1q1 2 3 2h1q3 -1 3 -2zM1208 219q-53 -65 -151 -128q-110 -72 -179 -72q-73 0 -73 78q0 87 102 186l101 106v11q-86 0 -226 -110q-83 -65 -245 -203q-20 -17 -57 -56q-37 -7 -96 -7q0 2 2 7q43 99 151 226q94 110 94 125 q0 21 -26 21q-72 0 -139 -64l-325 -308q-16 0 -49 -3.5t-50 -3.5q-40 0 -40 14v7q35 69 101 155l114 146q11 16 11 33t-18 17q-33 0 -79 -37q-63 -49 -65 -50h-7q52 59 137 113q98 63 162 63q59 0 59 -49q0 -27 -30.5 -77t-30.5 -76h11l231 162q-1 -12 19 -12q54 0 82 7 q0 34 -37 38q12 5 28 5q47 0 47 -57q0 -49 -37 -110q-2 -3 -69 -97v-12h19q84 77 181 158v-7q-4 -2 -11 -7l2 -9q27 0 73 29q61 39 71 44q14 6 50 16t36 23q0 5 -4 19h-40q12 12 31 12q28 0 51.5 -34.5t23.5 -64.5q0 -53 -91 -155.5t-91 -121.5q0 -41 29 -41h21 q48 0 219 151h7zM47 294l-38 -37h-7l38 37h7zM379 452q0 12 -7 19h-33q-68 0 -68 -26v-2q8 4 42 -30q12 -17 24 -17q17 0 29.5 19t12.5 37z" />
<glyph unicode="n" horiz-adv-x="881" d="M881 250q-29 -30 -90 -87l-66 -55q-122 -108 -186 -108q-29 0 -62 19q-37 22 -37 49q0 55 83 159l125 143v28q-6 0 -17.5 2t-17.5 2q-24 0 -97 -44q-96 -57 -206 -162q-34 -32 -183 -189q-42 -7 -89 -7h-17q9 8 9 17q0 3 -2 8t-2 8q0 48 202 299q17 21 17 59q-10 2 -31 5 q-44 -22 -98 -68l-90 -78q-10 -8 -28 -24h-5q219 219 240 219l-5 -7l3 -12q10 0 30.5 3.5t30.5 3.5q9 0 27 -3.5t27 -3.5q14 0 14 26t-35 26q-14 0 -39 -10.5t-39 -10.5q52 33 90 33q61 0 61 -71q0 -49 -89 -174v-9q4 -2 14 -5q36 14 115 88q87 80 123 100q-1 -12 11 -12 q23 0 66 15.5t66 15.5q7 7 7 21q0 19 -30 19q-10 0 -28.5 -7t-28.5 -7q33 26 71 26q54 0 54 -92q0 -52 -94 -164.5t-94 -144.5q0 -25 23 -25q53 0 154 76l143 117v-7zM610 40h-9q-5 0 -48 -14v-17q57 0 57 31z" />
<glyph unicode="o" horiz-adv-x="586" d="M586 221q0 -21 -67 -57q-52 -29 -68.5 -33t-78.5 -4q4 0 -83.5 -66t-168.5 -66q-42 0 -81 25q-51 32 -51 62q0 22 3.5 64.5t3.5 63.5q0 12 -11 11l94 139q47 70 134.5 116.5t171.5 46.5q50 0 77 -31q10 -12 43 -75q26 -50 26 -61q0 -32 -14 -55q-49 -79 -113 -143v-10 q45 0 59 5q55 20 124 68zM466 372q0 70 -5 90q-14 49 -65 49q-90 0 -175 -101v-14q30 0 87 22.5t87 22.5q5 0 8 -1l7 -4q-100 -53 -205 -157q-125 -125 -125 -211q0 -3 2 -11q1 -8 0 -12l15 -12q120 0 249 144q12 47 43 86l66 71q11 14 11 38zM195 14v12h-18v-12h18z" />
<glyph unicode="p" horiz-adv-x="789" d="M155 384l-37 -38h-7l37 38h7zM61 297q-11 -13 -16 -14l-3 2l12 12h7zM808 252l-120 -120q-85 -80 -137 -106h-7q7 4 7 6t-1 6t-1 7q-24 0 -63 -12q-46 -14 -46 -31h62q-31 -11 -55 -11q-22 0 -44.5 21t-32.5 21q-12 0 -36.5 -3.5t-36.5 -3.5q-69 0 -106 31q-12 9 -26 9 q-16 0 -35 -26l-676 -909q-56 -75 -99 -75q-45 0 -45 49q0 69 56 146l858 1175q-5 0 -15.5 -2t-15.5 -2q45 33 214 202l113 139q15 19 50 54q79 15 82 14v-7l-1236 -1644l-19 -37q2 -6 5 -19q5 -7 12 -7q15 0 40 33l690 921q4 5 21 56q10 32 38 48q33 21 127 114 q89 88 120 102l7 -7h12q96 54 165 56v26q0 12 -52 12q21 14 49 14q52 0 52 -89q0 -56 -97.5 -163t-97.5 -143q0 -19 7 -26q5 0 14.5 -1.5t13.5 -1.5q37 0 75 26q118 80 205 158h5zM584 389q0 16 -26 16q-123 0 -366 -292q-6 -7 -6 -28q0 -40 66 -40q70 0 139 99q11 16 35 47 q158 174 158 198z" />
<glyph unicode="q" horiz-adv-x="756" d="M763 247v-1q0 -6 -6 -6h-6l5 7h7zM695 184l-101 -102v7l94 95h7zM549 33l-43 -42v7l43 42v-7zM725 429q0 -6 -313 -422l-393 -525l-196 -295q-16 -24 -16 -68q33 0 54 31l198 282q4 20 19 38l410 497l-615 -817l-80 -83q-12 -11 -38 -11q-45 0 -45 44t38 99l650 947h-12 q-40 -42 -132 -113q1 14 -16 14l-2 -2q-90 -24 -149 -24v-19q0 -5 10 -11h33q17 0 49 11.5t49 11.5q-65 -35 -110 -35q-102 0 -102 158q0 18 4 55t4 55h-24v5l118 120q67 61 141 92q96 40 165 40q35 0 55 -16q7 -6 39 -48q8 0 26 -18h-26q-7 -36 -7 -48q0 -3 1 -9t1 -9 q19 0 27 21q4 19 9 38q4 3 14 8l23 39q17 26 33 26q0 -19 -23.5 -60.5t-23.5 -67.5h10q56 56 56 57q27 19 80 19q7 0 7 -7zM495 452v5q0 35 -69 35q-56 0 -99 -28q-22 -15 -77 -71q-10 -9 -26 -28v-12h19q138 73 249 94zM502 424q-60 0 -146 -76l-123 -124q-92 -92 -92 -144 q0 -17 12 -28h28q115 0 220 130q101 124 101 242z" />
<glyph unicode="r" horiz-adv-x="497" d="M476 221q-3 -4 -19 -18q-208 -184 -304 -184q-71 0 -71 56t58 129l100 109l76 83v11h-118l-186 -169h-7l174 177v4q0 8 -7 19.5t-7 18.5q0 31 36 56q32 22 65 22q31 0 31 -22l-38 -37v-7q0 -19 38 -19q14 0 41 7t41 7q11 0 30.5 -22.5t19.5 -34.5q-18 -34 -117 -152 q-84 -101 -91 -149q-2 -17 -2 -31q7 0 20 -3.5t20 -3.5q31 0 210 153h7zM356 436v9q-47 0 -90 -7v-12h80q10 0 10 10z" />
<glyph unicode="s" horiz-adv-x="563" d="M549 219q0 -12 -12 -12l-2 -2h-3l-2 2q5 4 14 12h5zM318 426q-2 -3 -5 -4q-2 1 -2 4v1q1 4 2 4h1q4 -1 4 -5zM518 193q-62 -71 -195 -127q-129 -54 -226 -54q-144 0 -144 113q0 49 36 96t84 47q7 0 19.5 -2t18.5 -2v-24q0 -31 -51 -74t-51 -79q0 -56 48 -56 q112 0 191 127q13 22 101 224v18h-12q-79 -60 -203 -136l-4 12l61 56q-1 -14 14 -14q19 0 81.5 50t62.5 65q0 13 -12 12q8 5 85 63q66 50 80 50q16 0 16 -12q0 -33 -45 -63q-62 -42 -68 -50q0 -26 -2 -84q-5 -100 -15 -136q-15 -52 -70 -119v-12q34 1 193 111h7z" />
<glyph unicode="t" horiz-adv-x="393" d="M594 770q-71 -73 -184 -206q-31 -33 -85 -100q-1 -3 -5 -10l-4 -7q0 -1 -2 -2q-1 -1 -1 0v-4q0 -4 3 -8h141l19 -7l-7 -9h-175q-11 0 -113 -153q-75 -114 -75 -189q0 -7 31 -7q62 0 237 151h8q-201 -200 -333 -200q-65 0 -65 56q0 40 87 196q2 4 7 12q0 13 -5 17l2 1 l-3 -1q-2 1 -4 1l99 99v15h-99q-5 9 -20 11q13 -1 27 -1q56 0 118 8q12 9 151 168q46 52 106 108q76 71 132 71q12 0 12 -10zM73 300q-11 -6 -30 -26l21 23q3 2 8 3h1zM43 274l-38 -43zM5 231l-2 -2q-3 -3 -8 -5q3 3 3 7h7z" />
<glyph unicode="u" horiz-adv-x="749" d="M765 226q-19 -27 -181 -162q-98 -83 -151 -83q-75 0 -75 104q0 14 6 42.5t6 42.5h-12l-139 -121q-61 -56 -125 -56q-35 0 -69 24q-37 27 -37 61q0 46 60 128.5t60 106.5h-7l-113 -94h-7q66 85 125 139q-1 -14 14 -14h5l56 36q36 28 36 53h-24q38 50 123 50h28 q-12 -21 -19 -31q0 -21 19 -26q-1 -7 -116 -146.5t-115 -185.5q0 -26 24 -26q35 0 66 19q138 87 213 160q56 54 173 205q14 19 37 19h76q0 -12 -7 -19v-14q16 0 33 -14l-200 -254q-40 -51 -40 -83q0 -9 7 -19h25q49 0 126 61l112 97h7zM177 415q-2 -4 -5 -5q-2 1 -2 5 q0 2 1 2h1q3 -1 5 -2zM506 26q-16 0 -48 -5t-48 -5q0 -23 33 -23q63 0 63 33zM221 75h-14q-70 -40 -125 -56v-14q37 0 83 19q56 22 56 51z" />
<glyph unicode="v" horiz-adv-x="732" d="M742 243q-4 -2 -10 -7h-2l-2 2l14 12v-7zM240 476q-1 -3 -4 -5q-3 1 -3 6q0 1 2 1h1q3 0 4 -2zM716 224q-60 -76 -196 -99q-40 -7 -49 -7q-15 -8 -45 -26q-22 -5 -11 -5h-8q78 78 78 80q0 14 -16 14h-10q-19 -11 -128 -68q-124 -63 -136 -64q-17 -11 -25 -18 q-1 -22 58 -22q28 0 36 3q-10 -8 -22 -8l-77 1q-14 14 -40 14q-12 0 -34.5 -3.5t-33.5 -3.5q-31 0 -31 23q0 11 7 19q70 106 226 302q0 37 -19 37q-49 0 -245 -174h-7q4 6 12 19l24 26q28 37 89 106q-3 -14 17 -14h9q62 44 177 82q11 4 11 31q0 19 -7 19h-61q14 14 45 14 q61 0 61 -40v-50q0 -67 -51 -151q-35 -58 -94 -124l-51 -56q0 -3 1.5 -9.5t1.5 -10.5h23q21 0 136 62q111 59 140 82q18 69 53 119q7 10 86 107q13 18 25 37q16 20 39 20q30 0 30 -43q0 -72 -176 -271q0 -19 7 -19q75 0 174 69h7zM518 207q-23 0 -23 -23q23 0 23 23z" />
<glyph unicode="w" horiz-adv-x="1008" d="M1010 228l-11 -14h-7l11 14h7zM980 203q-40 -57 -137 -57q-16 0 -36 13t-34 13q-22 0 -33 -19q-8 -13 -24 -33q-174 -125 -261 -125q-61 0 -82 24q-17 19 -17 66q0 10 1 36t1 42q-17 -1 -64 -36q-2 7 -11 7h-7q-44 -36 -113 -75q-33 -9 -85 -36q3 -3 2 -14q4 0 11 -1 t10 -1q17 0 40.5 9.5t28.5 9.5h7q-40 -31 -95 -31q-96 0 -96 83q0 87 153 256v10q-16 3 -10 3q-8 0 -129 -100h-7q75 76 233 219q31 26 83 26h37q-28 -28 -28 -45q0 -14 28 -18v-7q-240 -239 -240 -323q0 -29 7 -29q62 0 120 45q159 124 195 159q71 70 149 199q6 3 12 12 q42 7 85 7h16q-38 -56 -38 -63q0 -17 26 -19v-7l-158 -208q-49 -61 -49 -110q0 -33 38 -33q48 0 140.5 54.5t115.5 96.5q12 21 12 49q22 32 54 101l14 85q14 54 55 54q27 0 42 -52q1 -2 6.5 -12t5.5 -11q0 -51 -60 -118l-98 -96q0 -45 54 -45q15 0 125 45h5zM210 431 q-24 0 -24 -24q24 0 24 24zM577 47q-22 0 -54 -10q-42 -14 -52 -16v-16q106 0 106 42z" />
<glyph unicode="x" horiz-adv-x="685" d="M662 212l-19 -19h-7l19 19h7zM617 174q0 -12 -12 -11l-2 -3h-2l-3 3q5 3 14 11h5zM714 455q0 -34 -40 -43q2 -17 2 -29q0 -84 -71 -84q-33 0 -33 19q0 11 11 28t11 28q0 22 -26 22q-33 0 -76 -40q-158 -149 -158 -281v-21q10 -7 31 -7q87 0 214 101h7q-42 -43 -109 -88 q-81 -55 -124 -55q-59 0 -95.5 36.5t-36.5 95.5h-11q-70 -72 -92 -89q-57 -43 -118 -43q-71 0 -71 49q0 1 26 45l31 63q21 31 59 31q40 0 40 -33q0 -20 -22.5 -43.5t-22.5 -43.5q0 -26 26 -26q73 0 167 130q90 125 90 202v17q0 7 -12 11h-38q-58 0 -123 -43 q-24 -16 -103 -84h-7q4 11 139 146q80 80 146 80q51 0 74 -78.5t30 -78.5l4 2h3q16 28 63 68v-7q-8 -10 -26 -30v-5l3 -5q11 0 64 35.5t96 30.5v7q0 31 -33 31q-20 0 -47 -19t-38 -19q57 68 132 68q64 0 64 -51zM2 243l-11 -12h-7l11 14h5zM342 438v50q0 7 -22 7 q-33 0 -90 -36q-60 -38 -60 -68q16 0 42 14q37 20 42 22t88 11z" />
<glyph unicode="y" horiz-adv-x="754" d="M754 233l-33 -30h-5l31 30h7zM709 198q-11 -11 -44 -41q23 26 44 41zM665 157q-28 -35 -90 -98l33 42q15 19 57 56zM113 334l-5 -4q-2 2 -2 4v1q1 4 2 4h1q4 -1 4 -5zM82 312q-1 -3 -4 -6l-5 5q1 2 4 2h2q3 0 3 -1zM44 281q0 -2 -1 -4t-3 -4q-2 2 -2.5 4t-1.5 4q0 1 3 2 h2q3 -1 3 -2zM0 240l-5 -7h-7l7 7h5zM181 32q0 -2 -2 -4l-5 5q1 4 3 5h1q3 -1 3 -4v-2zM716 422l-358 -474q-42 -56 -42 -115q43 0 84 45l170 181v-7q-43 -57 -176 -207q-113 -127 -168 -212l-94 -189q-20 -37 -57 -94l-7 -5v5l50 101v19h-12l-148 -214q0 -20 11 -19 q-25 -21 -42 -24l-76 -95q-53 -62 -94 -62q-44 0 -44 44q0 46 49 118l570 827l87 169v10q-6 2 -19 4l-150 -139q3 15 -12 15h-2q-51 -34 -168 -83v-9q17 -3 50 -5q35 14 37 14h8q-52 -30 -78 -30q-29 0 -63 27t-34 55q0 38 19 68q38 61 101 138q16 16 43 48q5 10 11 20h1v4 l-3 7q-4 0 -12.5 -2.5t-13.5 -2.5h-2q52 45 87 64q14 16 14 38q0 30 -40 30q-35 0 -118 -45h-7q33 52 123 52q56 0 70 -28t59 -28q12 -5 19 -7q-47 -67 -146 -196l-59 -66q-35 -39 -35 -78q0 -18 28 -18q41 0 156 82q186 134 301 344q9 16 35 16q12 0 35.5 -1t35.5 -1 q-32 -32 -32 -61q0 -1 4 -12h54v-16zM342 -184q-31 0 -50 -24t-19 -56q22 0 45.5 29t23.5 51zM226 -273v23q-14 0 -26 -16l-292 -422q-4 -6 -7 -11v-17q0 -42 24 -42q4 0 7 2l242 346q2 0 21 45q1 0 15 42zM-92 -780q0 31 -30 31q-10 0 -15 -7q-58 -93 -58 -125h28 q75 75 75 101z" />
<glyph unicode="z" horiz-adv-x="596" d="M577 219l-12 -12h-7q4 5 14 12v2h3zM539 188q-3 -2 -4 -7h-7v1q0 6 6 6h5zM0 233l-12 -14v8q0 6 6 6h6zM615 497q-2 -5 -5 -14q-40 -36 -40 -37q-9 -10 -24 -43q-33 -78 -195 -170l-97 -50q-77 -43 -77 -58v-5q94 -15 124 -75q20 0 31 7l177 118h11l-207 -144 q0 -95 -30 -158q-131 -267 -446 -525l-138 -113q-79 -63 -188 -116q-127 -61 -208 -61q-99 0 -99 78q0 116 238 313q51 47 158 130l508 332q8 5 36 51q23 39 46 39l5 -1q2 -14 8 -14q30 0 30 7q0 52 -3 65q-9 36 -44 36q-33 0 -99 -47q-42 -29 -111 -54q-7 14 -7 26 q0 36 118 94l130 67q36 29 110 82q0 -12 12 -12h7q134 80 134 118l-4 2h-5q-21 -12 -31 -19q-2 8 -14 7q-14 -7 -30 -14q-9 0 -12.5 3.5t-9.5 3.5q-11 0 -32.5 -7t-32.5 -7h-121q-18 -19 -18 -42q0 -19 7 -19q48 0 79.5 9.5t47.5 9.5h5q-55 -33 -114 -33q-61 0 -82 19 q-4 16 -31 37q12 21 57 76q7 21 7 33q28 75 94 75q24 0 31 -14q-33 -19 -33 -59q0 -35 85 -35q148 0 186 37q76 76 94 76q9 0 12 -5zM228 -35q-23 0 -23 -31q23 0 23 31zM97 -155h-22l-475 -354q-1 0 -80 -80q-123 -123 -123 -226q0 -56 64 -56q37 0 120 63q305 236 501 608 q15 27 15 45zM9 -174h-14l-372 -252l-35 -31l-38 -26q-104 -72 -188 -170q-109 -126 -109 -218q0 -38 26 -57q132 0 132 24q0 2 -28 27.5t-28 73.5q0 170 275 358l370 252q10 6 9 19z" />
<glyph unicode="{" horiz-adv-x="643" d="M1260 1130l-5 -7q-140 0 -189 -6q-109 -15 -172 -72t-131 -186q-78 -149 -118 -197q-70 -85 -208 -130q-19 -5 -55 -16q-12 -5 -12 -17t26 -34t26 -41q0 -28 -26 -78l-201 -381q-14 -27 -14 -64q0 -29 18 -43q47 -39 102 -51q-244 0 -244 136q0 84 103 222l106 138 q16 19 45 57q21 34 21 83v35q-9 24 -31 45q80 15 98 21q54 19 77 59l214 384q32 56 83 107q64 62 113 62q-1 -6 -78.5 -86.5t-77.5 -127.5h10q127 188 416 188h104zM188 64v14q-33 0 -61 -69q-23 -59 -23 -101h16q17 59 68 156z" />
<glyph unicode="|" horiz-adv-x="497" d="M655 1277l-547 -1369h-61l540 1369h68z" />
<glyph unicode="}" horiz-adv-x="697" d="M876 994q0 -86 -137.5 -252.5t-137.5 -228.5q0 -42 37 -73q-104 -20 -143 -56q-68 -61 -160 -233q-102 -189 -157 -252q-102 -118 -237 -118v7q52 8 98 30q62 30 62 69h-9q-132 -82 -339 -82q-10 0 -69 2l-7 5q231 0 328 56q56 33 130 164q96 171 146 231 q106 128 251 170q0 24 -16.5 40.5t-16.5 30.5q0 35 102 213l139 239q25 50 25 94q0 6 -1 16t-1 15q-27 33 -137 49q250 0 250 -136z" />
<glyph unicode="~" horiz-adv-x="535" d="M509 520q0 -24 -52 -56.5t-83 -32.5q-38 0 -108 32t-108 32h-36q-40 -17 -61 -69q-37 19 -37 38q0 32 48 61q44 26 79 26q49 0 209 -63q59 0 111 63h7z" />
<glyph unicode="&#xa1;" horiz-adv-x="645" d="M59 12q7 14 23 37l448 509l87 90q3 -19 -7 -19l-389 -547q-58 -82 -141 -82q-21 0 -21 9v3zM624 735q0 31 40.5 62.5t72.5 31.5q12 0 12 -9v-19q0 -80 -82 -80h-17q-26 0 -26 14z" />
<glyph unicode="&#xa8;" horiz-adv-x="358" d="M337 999q-3 -40 -59 -31q-17 3 -32.5 22t-7.5 35q16 34 59 30q17 -1 29 -19.5t11 -36.5zM158 1015q0 -41 -61 -35q-40 3 -40 42q0 41 51 41q5 0 10 -1q40 -5 40 -47z" />
<glyph unicode="&#xaa;" d="M704 231q0 -6 -35 -38t-49 -41v-3q0 -3 -10 -3q-59 -49 -138 -91q-20 -9 -57 -29q-8 -5 -8 -14q0 -12 26 -12q10 0 28.5 7t28.5 7q-40 -23 -66 -23q-17 0 -66 26.5t-49 39.5q0 9 1 27t1 27q-10 -1 -66 -36q-5 7 -19 7q-71 -42 -151 -63v-5q0 -14 26 -14q9 0 25 3.5 t25 3.5q-28 -16 -52 -16q-127 0 -127 131q0 146 132.5 270t279.5 124h38q29 0 58 -97q5 -16 24 -16q54 90 61 95q14 11 102 11l-38 -57v-14h30v-16l-137 -164q-100 -126 -100 -169q0 -25 21 -25q48 0 134 69q124 98 127 100v-2zM462 443q0 61 -33 61h-38q-72 0 -113 -38 q-31 -28 -71 -70v-12h14q128 59 241 59zM459 407v8l-7 7h-23q-63 0 -158 -83q-207 -180 -207 -259q0 -23 11 -28q6 0 15 -1.5t14 -1.5q103 0 229 127.5t126 230.5z" />
<glyph unicode="&#xad;" horiz-adv-x="504" d="M431 297q-2 -7 -2 -10q-38 31 -99 31q-29 0 -86 -9.5t-86 -9.5q-69 0 -85 26q19 -2 45 -2q38 0 105.5 38.5t106.5 38.5q40 0 70.5 -28t30.5 -68v-7z" />
<glyph unicode="&#x2212;" horiz-adv-x="504" d="M431 297q-2 -7 -2 -10q-38 31 -99 31q-29 0 -86 -9.5t-86 -9.5q-69 0 -85 26q19 -2 45 -2q38 0 105.5 38.5t106.5 38.5q40 0 70.5 -28t30.5 -68v-7z" />
<glyph unicode="&#xb2;" horiz-adv-x="643" d="M304 638q-2 -2 -5 -3q-2 0 -2 2v2q1 4 2 4h1q4 -1 4 -5zM278 619q0 -3 -2 -3v0q-2 1 -5 3q0 4 2 5q5 -1 5 -4v-1zM297 350q-1 -2 -3 -4q-3 2 -4 5q0 4 2 5h1q3 -1 4 -4v-2zM662 546q0 -122 -189 -251q-130 -87 -308 -156v-17q9 1 28 2t28 1q19 0 57 -25t66 -25 q89 0 165 80l2 -2q0 -10 -14 -28q-62 -80 -86 -103q-57 -55 -117 -55q-37 0 -95.5 42.5t-106.5 42.5q-34 0 -108 -90q0 16 10.5 40.5t10.5 37.5q-17 0 -39 -14t-37 -14h-2q11 18 139 89q1 1 129 92l177 128q26 18 73 56q97 93 97 193q0 45 -64 45q-24 0 -33 -38 q-2 -19 -9 -57q-36 -125 -189 -150v-12l31 -14q-4 0 -12.5 -2.5t-13.5 -2.5q-68 0 -68 92q0 73 30 127h3v-5l-3 -2q-16 -54 -16 -85q10 1 68 56q26 25 80 67q73 28 158 68q0 21 -52 21q-28 0 -71 -13t-63 -13h-2q54 31 129 31q73 0 138 -32q79 -39 79 -105zM443 610 q-70 0 -142 -60q-75 -62 -75 -131q0 -2 2 -9q1 -6 0 -10l5 -4q5 -3 12 -3h14q66 0 126 77q58 72 58 140zM386 26h-14l-45 -19v-16q59 0 59 35z" />
<glyph unicode="&#xb3;" horiz-adv-x="622" d="M344 656v-2q-1 -3 -2 -4q-4 2 -5 5q2 2 4 2h1q2 0 2 -1zM641 608q0 -102 -203 -205q0 -13 32 -45.5t32 -56.5q0 -41 -38 -131q-81 -194 -283 -194q-49 0 -68 8q104 0 157 34q39 25 39 50l-8 3h-7q-20 -6 -61 -17q-101 -26 -172 -28q-2 -6 -8 -6q-1 0 -15 13 q-19 12 -56 38q-27 19 -27 54q0 47 33 77.5t80 30.5q50 0 50 -40q0 -5 -3.5 -15t-3.5 -15q0 -7 3.5 -18.5t3.5 -17.5q0 -21 -34.5 -38.5t-34.5 -29.5q0 -19 22 -19h35q154 0 257 181q33 59 33 88q0 28 -24 28q-34 0 -78 -18t-54 -18h-2v3q33 24 63 35q48 17 48 43l-5 2 q-9 0 -23 -6t-20 -6h-7l7 5l145 82q86 58 86 130q0 38 -13.5 48.5t-52.5 10.5q-64 0 -121 -40q-64 -44 -64 -105q0 -6 1 -18.5t1 -18.5q106 0 174 144q0 -61 -44.5 -106t-106.5 -45q-68 0 -68 57q0 30 12 49q0 -7 -2.5 -21t-2.5 -21q-1 -2 -1 -7q0 -3 1 -7h12 q49 103 207 165v9q-15 0 -44.5 -4.5t-45.5 -4.5h-4q53 19 133 19q138 0 138 -85zM396 346q0 26 -14 26q-36 0 -36 -26h50z" />
<glyph unicode="&#xb4;" horiz-adv-x="652" d="M775 813q-9 -42 -149 -149q-34 -26 -63 -33l-2 5l7 5q7 2 9 9l45 33q24 21 33 47q14 41 56 116q15 14 38 9q33 -7 26 -42z" />
<glyph unicode="&#xb9;" horiz-adv-x="495" d="M584 645l-245 -313q-21 -27 -91 -159q-64 -123 -78 -135q-30 -2 -96 -22q-61 -18 -95 -18q0 21 21 47l351 419q28 34 28 54q-44 0 -167 -80q-1 -1 -24 -19l-120 -94h-4l63 49q43 35 43 59q48 28 136 92q-1 -12 12 -12q41 0 99.5 55t58.5 96q0 16 -12 12l56 56v-11 q-37 -83 -37 -106h12l68 30h21z" />
<glyph unicode="&#xba;" horiz-adv-x="586" d="M586 221q0 -21 -67 -57q-52 -29 -68.5 -33t-78.5 -4q4 0 -83.5 -66t-168.5 -66q-42 0 -81 25q-51 32 -51 62q0 22 3.5 64.5t3.5 63.5q0 12 -11 11l94 139q47 70 134.5 116.5t171.5 46.5q50 0 77 -31q10 -12 43 -75q26 -50 26 -61q0 -32 -14 -55q-49 -79 -113 -143v-10 q45 0 59 5q55 20 124 68zM466 372q0 70 -5 90q-14 49 -65 49q-90 0 -175 -101v-14q30 0 87 22.5t87 22.5q5 0 8 -1l7 -4q-100 -53 -205 -157q-125 -125 -125 -211q0 -3 2 -11q1 -8 0 -12l15 -12q120 0 249 144q12 47 43 86l66 71q11 14 11 38zM195 14v12h-18v-12h18z" />
<glyph unicode="&#xbf;" horiz-adv-x="589" d="M59 101q0 34 38 102q55 98 221 179q218 106 250 148q0 1 29 58q22 43 34 43q0 -66 -72 -125l-123 -89q-203 -175 -203 -339q-38 42 -38 94q-30 0 -30 -66q0 -68 71 -68q131 0 223 115q7 9 7 21q0 10 -9.5 22.5t-9.5 22.5q0 28 50 28q0 4 1 12t1 12q0 33 -7 38 q45 0 45 -50q0 -39 -45 -113q-7 -12 -26 -12q-40 -27 -113 -89q-127 -45 -183 -45q-46 0 -78.5 28.5t-32.5 72.5zM610 737q0 30 40 59q37 28 68 28q12 0 12 -11v-19q0 -28 -16 -60q-18 -37 -43 -37q-61 0 -61 40z" />
<glyph unicode="&#xc0;" horiz-adv-x="2047" d="M2852 1258q0 -112 -149 -227q-118 -92 -254 -138l-124 -43l-276 -351q-117 -149 -186 -336v-15h5q4 0 33 8q115 30 212 115h7q-1 -40 -138 -120q-151 -87 -173 -127h-111q-7 21 -45 21h-146q-19 0 -19 23q0 14 8 14h134l49 31v2q0 7 -59 24q-66 19 -181 89 q-372 -289 -782 -289q-22 0 -66.5 2t-65.5 2q0 -209 181 -322q152 -94 375 -94q159 0 292 43q166 55 238 164q26 39 26 94q0 45 -33 97h12q21 0 37 -45q14 -37 14 -64q0 -121 -173 -216q-147 -80 -286 -88q-146 -7 -167 -7q-186 5 -329 86q-169 96 -199 263l-16 92l-7 5 q-169 30 -270 141q-105 116 -105 285v73q0 18 19 76q61 191 255 315q206 132 468 132q200 0 398 -109h7q7 8 14 22q26 46 66 80q20 16 52 30q7 2 21 7v3q0 21 -14 61.5t-14 62.5q0 123 83 192q77 65 202 65q85 0 152 -34q84 -43 84 -119h-7q-40 127 -219 127 q-115 0 -186 -59q-76 -64 -76 -176q0 -87 33 -118q107 -12 207 -115q12 -15 38 -43q32 -30 184 -30q40 48 188 193q359 348 638 348h59q41 0 64 -33q21 -29 21 -70zM2833 1258q0 89 -120 89q-79 0 -155 -24q-91 -29 -127 -82q-9 -14 -29 -40q27 11 124 77q66 46 140 46 q2 0 7 -1.5t7 -1.5l12 -14q-137 0 -158 -42h12q-65 -22 -159 -159l-126 -204l-26 -45h19q186 205 471 436v7q0 13 -11 12l53 9q-79 -70 -247 -252l-158 -176h7q40 0 173 77q106 60 169 106q122 89 122 182zM2388 1178q-14 -22 -45 -62q17 19 45 62zM2358 1201 q-92 -54 -212 -198l75 58l-233 -241h33q47 0 66 23l176 238h-9q-5 0 -10 -2q73 61 114 122zM2229 822q-1 10 -2 10q-13 0 -13 -17q1 -2 2 -2q13 0 13 9zM2058 801h-82l-172 -208q4 -65 19 -103q6 -16 52 -40zM1863 801q-23 0 -69.5 9.5t-69.5 9.5h-7l-7 -7q-6 10 -19 16h-5 q10 -24 31 -45v29l54 -121q3 1 33 31q7 20 59 78zM1729 776v2q-1 6 -4 6h-2q-3 0 -4 -6v-2q1 -6 4 -6h2q3 0 4 6zM1672 857v7q-86 104 -179 104q-3 -1 -9 -2q18 -24 90.5 -66t97.5 -43zM1458 940q-9 28 -24 28q-66 0 -96 -54q56 26 120 26zM1776 499v69l-45 -45zM1748 667 q-2 10 -12 28q-41 68 -51 82q-30 42 -69 66q-58 35 -130 35q-54 0 -99 -20q-57 -24 -68 -69q38 -75 38 -137q0 -14 -3.5 -42t-3.5 -42l144 -12q89 -7 145 -7h10zM1863 424v7q-5 10 -38 19v1l-1 -4l-3 -18q-2 -21 -10 -85q-2 -20 -2 -28v-17zM1792 371v3q0 5 -4 10 q-3 -2 -3 -10v-4q0 -11 3 -14q4 9 4 15zM1783 326v18q0 -11 -10 -40t-9 -40l-2 -5l2 -9q19 7 19 76zM1901 125h-7q-50 0 -57 -36h2q38 0 62 36zM1338 652v24q0 89 -38 89q-28 -59 -28 -204q46 0 59 24q7 15 7 67zM1776 419v45q-35 24 -66 24q-3 0 -233 -234v-4 q83 -67 233 -87q66 143 66 256zM1616 506q-47 29 -186 29h-50q-33 0 -38 -3q-37 -20 -37 -75q0 -30 44.5 -94t70.5 -64zM1679 144q-2 2 -4 2l-3 -2q2 -5 5 -7q2 2 2 7zM1312 532h-33l2 -4q0 -6 2.5 -18t2.5 -18h5zM1649 148q0 5 -5 5q-2 -1 -2 -4v-2q0 -2 1 -2q4 1 6 3z M1623 155q-2 3 -5 3l-2 -3l4 -4q3 2 3 4zM1599 159v3q-1 5 -4 5h-1q-4 0 -4 -5v-3q1 -3 4 -4h1q4 1 4 4zM1579 172q-3 2 -5 2h-2q-4 0 -4 -2q3 -5 5 -7q3 2 6 7zM1561 176v2q0 6 -4 6h-1q-4 0 -4 -6v-3q0 -8 5 -8q4 3 4 9zM1543 181v2q-1 5 -5 5h-1q-3 0 -4 -5v-2q1 -4 4 -4 h2q3 0 4 4zM1531 188v2q-1 5 -4 5h-1q-4 0 -5 -5v-2q1 -4 4 -4h2q4 1 4 4zM1255 450l-33 78h-4q-57 0 -71 -22q-5 -96 -49 -162h7q60 32 80 46q32 22 70 60zM1119 504q-72 0 -195 -49q-126 -49 -175 -99q7 1 13 1q52 0 65 -86q4 -3 18 -3q119 0 193 58q81 63 81 178z M1112 551q0 79 -83 122q-65 34 -153 34q-104 0 -200 -57.5t-141 -150.5q-38 -77 -38 -122q59 -68 137 -92q71 79 230 165q14 7 137 52q111 40 111 49zM1387 276q-35 52 -113 139h-7q-70 -67 -162 -116q-166 -87 -278 -87q-21 0 -61.5 10.5t-61.5 10.5q-5 -2 -7 -5 q0 -76 94 -127q78 -42 163 -42q137 0 327 121l57 39q49 42 49 57zM1241 820v9q-136 85 -374 85q-279 0 -491 -130q-249 -153 -249 -414q0 -241 240 -356q74 -35 118 -35q15 0 31 67q14 58 14 86q0 12 -20 40q-25 36 -27 40q-33 65 -33 160q0 166 118.5 283t284.5 117 q247 0 294 -223h14q8 0 24 2t23 2q0 151 0 142q3 42 33 125zM739 348v2q0 6 -4 6h-1q-3 0 -4 -6v-2q1 -4 4 -4h2q3 1 3 4zM723 271v21q-21 0 -21 -21h21zM716 337q-29 -23 -59 -61h28zM980 17q0 4 -6 4h-2q-6 0 -6 -3l2 -4l5 -2q4 0 7 2v3zM935 45q-78 4 -142 37.5 t-96 105.5q-12 27 -12 45q-7 17 -51 17q-69 -69 -69 -92q0 -27 96 -75q91 -45 126 -45q18 0 54 -1.5t54 -1.5q5 0 14.5 1.5t13.5 1.5zM608 254l-111 90v-33q0 -31 16 -78q18 -56 40 -56q16 27 55 77zM954 9h-47q-223 0 -354 111h-4q-9 0 -18 -53q-8 -45 -8 -67v-28 q28 -7 68 -7h81q185 0 282 44zM2662 1302q0 -5 -10 -7q-10 0 -10 7q0 3 8 3h5q4 0 7 -3zM2631 1293q-4 -1 -9.5 -3l-16.5 -6q-4 0 -7 2q4 0 10.5 3.5t8.5 3.5h14zM2584 1278v-2q-1 -3 -3 -4l-4 4q0 6 2 8q5 0 5 -6zM2565 1270v-2q-1 -2 -2 -2q-3 1 -5 3q0 5 2 5h1q4 -1 4 -4 zM2244 1079q-11 -8 -23 -18q12 14 23 18z" />
<glyph unicode="&#xc1;" horiz-adv-x="2047" d="M2852 1258q0 -112 -149 -227q-118 -92 -254 -138l-124 -43l-276 -351q-117 -149 -186 -336v-15h5q4 0 33 8q115 30 212 115h7q-1 -40 -138 -120q-151 -87 -173 -127h-111q-7 21 -45 21h-146q-19 0 -19 23q0 14 8 14h134l49 31v2q0 7 -59 24q-66 19 -181 89 q-372 -289 -782 -289q-22 0 -66.5 2t-65.5 2q0 -209 181 -322q152 -94 375 -94q159 0 292 43q166 55 238 164q26 39 26 94q0 45 -33 97h12q21 0 37 -45q14 -37 14 -64q0 -121 -173 -216q-147 -80 -286 -88q-146 -7 -167 -7q-186 5 -329 86q-169 96 -199 263l-16 92l-7 5 q-169 30 -270 141q-105 116 -105 285v73q0 18 19 76q61 191 255 315q206 132 468 132q200 0 398 -109h7q7 8 14 22q26 46 66 80q20 16 52 30q7 2 21 7v3q0 21 -14 61.5t-14 62.5q0 123 83 192q77 65 202 65q85 0 152 -34q84 -43 84 -119h-7q-40 127 -219 127 q-115 0 -186 -59q-76 -64 -76 -176q0 -87 33 -118q107 -12 207 -115q12 -15 38 -43q32 -30 184 -30q40 48 188 193q359 348 638 348h59q41 0 64 -33q21 -29 21 -70zM2833 1258q0 89 -120 89q-79 0 -155 -24q-91 -29 -127 -82q-9 -14 -29 -40q27 11 124 77q66 46 140 46 q2 0 7 -1.5t7 -1.5l12 -14q-137 0 -158 -42h12q-65 -22 -159 -159l-126 -204l-26 -45h19q186 205 471 436v7q0 13 -11 12l53 9q-79 -70 -247 -252l-158 -176h7q40 0 173 77q106 60 169 106q122 89 122 182zM2388 1178q-14 -22 -45 -62q17 19 45 62zM2358 1201 q-92 -54 -212 -198l75 58l-233 -241h33q47 0 66 23l176 238h-9q-5 0 -10 -2q73 61 114 122zM2229 822q-1 10 -2 10q-13 0 -13 -17q1 -2 2 -2q13 0 13 9zM2058 801h-82l-172 -208q4 -65 19 -103q6 -16 52 -40zM1863 801q-23 0 -69.5 9.5t-69.5 9.5h-7l-7 -7q-6 10 -19 16h-5 q10 -24 31 -45v29l54 -121q3 1 33 31q7 20 59 78zM1729 776v2q-1 6 -4 6h-2q-3 0 -4 -6v-2q1 -6 4 -6h2q3 0 4 6zM1672 857v7q-86 104 -179 104q-3 -1 -9 -2q18 -24 90.5 -66t97.5 -43zM1458 940q-9 28 -24 28q-66 0 -96 -54q56 26 120 26zM1776 499v69l-45 -45zM1748 667 q-2 10 -12 28q-41 68 -51 82q-30 42 -69 66q-58 35 -130 35q-54 0 -99 -20q-57 -24 -68 -69q38 -75 38 -137q0 -14 -3.5 -42t-3.5 -42l144 -12q89 -7 145 -7h10zM1863 424v7q-5 10 -38 19v1l-1 -4l-3 -18q-2 -21 -10 -85q-2 -20 -2 -28v-17zM1792 371v3q0 5 -4 10 q-3 -2 -3 -10v-4q0 -11 3 -14q4 9 4 15zM1783 326v18q0 -11 -10 -40t-9 -40l-2 -5l2 -9q19 7 19 76zM1901 125h-7q-50 0 -57 -36h2q38 0 62 36zM1338 652v24q0 89 -38 89q-28 -59 -28 -204q46 0 59 24q7 15 7 67zM1776 419v45q-35 24 -66 24q-3 0 -233 -234v-4 q83 -67 233 -87q66 143 66 256zM1616 506q-47 29 -186 29h-50q-33 0 -38 -3q-37 -20 -37 -75q0 -30 44.5 -94t70.5 -64zM1679 144q-2 2 -4 2l-3 -2q2 -5 5 -7q2 2 2 7zM1312 532h-33l2 -4q0 -6 2.5 -18t2.5 -18h5zM1649 148q0 5 -5 5q-2 -1 -2 -4v-2q0 -2 1 -2q4 1 6 3z M1623 155q-2 3 -5 3l-2 -3l4 -4q3 2 3 4zM1599 159v3q-1 5 -4 5h-1q-4 0 -4 -5v-3q1 -3 4 -4h1q4 1 4 4zM1579 172q-3 2 -5 2h-2q-4 0 -4 -2q3 -5 5 -7q3 2 6 7zM1561 176v2q0 6 -4 6h-1q-4 0 -4 -6v-3q0 -8 5 -8q4 3 4 9zM1543 181v2q-1 5 -5 5h-1q-3 0 -4 -5v-2q1 -4 4 -4 h2q3 0 4 4zM1531 188v2q-1 5 -4 5h-1q-4 0 -5 -5v-2q1 -4 4 -4h2q4 1 4 4zM1255 450l-33 78h-4q-57 0 -71 -22q-5 -96 -49 -162h7q60 32 80 46q32 22 70 60zM1119 504q-72 0 -195 -49q-126 -49 -175 -99q7 1 13 1q52 0 65 -86q4 -3 18 -3q119 0 193 58q81 63 81 178z M1112 551q0 79 -83 122q-65 34 -153 34q-104 0 -200 -57.5t-141 -150.5q-38 -77 -38 -122q59 -68 137 -92q71 79 230 165q14 7 137 52q111 40 111 49zM1387 276q-35 52 -113 139h-7q-70 -67 -162 -116q-166 -87 -278 -87q-21 0 -61.5 10.5t-61.5 10.5q-5 -2 -7 -5 q0 -76 94 -127q78 -42 163 -42q137 0 327 121l57 39q49 42 49 57zM1241 820v9q-136 85 -374 85q-279 0 -491 -130q-249 -153 -249 -414q0 -241 240 -356q74 -35 118 -35q15 0 31 67q14 58 14 86q0 12 -20 40q-25 36 -27 40q-33 65 -33 160q0 166 118.5 283t284.5 117 q247 0 294 -223h14q8 0 24 2t23 2q0 151 0 142q3 42 33 125zM739 348v2q0 6 -4 6h-1q-3 0 -4 -6v-2q1 -4 4 -4h2q3 1 3 4zM723 271v21q-21 0 -21 -21h21zM716 337q-29 -23 -59 -61h28zM980 17q0 4 -6 4h-2q-6 0 -6 -3l2 -4l5 -2q4 0 7 2v3zM935 45q-78 4 -142 37.5 t-96 105.5q-12 27 -12 45q-7 17 -51 17q-69 -69 -69 -92q0 -27 96 -75q91 -45 126 -45q18 0 54 -1.5t54 -1.5q5 0 14.5 1.5t13.5 1.5zM608 254l-111 90v-33q0 -31 16 -78q18 -56 40 -56q16 27 55 77zM954 9h-47q-223 0 -354 111h-4q-9 0 -18 -53q-8 -45 -8 -67v-28 q28 -7 68 -7h81q185 0 282 44zM2662 1302q0 -5 -10 -7q-10 0 -10 7q0 3 8 3h5q4 0 7 -3zM2631 1293q-4 -1 -9.5 -3l-16.5 -6q-4 0 -7 2q4 0 10.5 3.5t8.5 3.5h14zM2584 1278v-2q-1 -3 -3 -4l-4 4q0 6 2 8q5 0 5 -6zM2565 1270v-2q-1 -2 -2 -2q-3 1 -5 3q0 5 2 5h1q4 -1 4 -4 zM2244 1079q-11 -8 -23 -18q12 14 23 18zM2789 1580q-9 -41 -149 -148q-34 -26 -63 -33l-3 5l7 4q7 3 10 10l44 33q24 21 33 47q15 41 57 115q14 15 38 10q33 -7 26 -43z" />
<glyph unicode="&#xc2;" horiz-adv-x="2047" d="M2852 1258q0 -112 -149 -227q-118 -92 -254 -138l-124 -43l-276 -351q-117 -149 -186 -336v-15h5q4 0 33 8q115 30 212 115h7q-1 -40 -138 -120q-151 -87 -173 -127h-111q-7 21 -45 21h-146q-19 0 -19 23q0 14 8 14h134l49 31v2q0 7 -59 24q-66 19 -181 89 q-372 -289 -782 -289q-22 0 -66.5 2t-65.5 2q0 -209 181 -322q152 -94 375 -94q159 0 292 43q166 55 238 164q26 39 26 94q0 45 -33 97h12q21 0 37 -45q14 -37 14 -64q0 -121 -173 -216q-147 -80 -286 -88q-146 -7 -167 -7q-186 5 -329 86q-169 96 -199 263l-16 92l-7 5 q-169 30 -270 141q-105 116 -105 285v73q0 18 19 76q61 191 255 315q206 132 468 132q200 0 398 -109h7q7 8 14 22q26 46 66 80q20 16 52 30q7 2 21 7v3q0 21 -14 61.5t-14 62.5q0 123 83 192q77 65 202 65q85 0 152 -34q84 -43 84 -119h-7q-40 127 -219 127 q-115 0 -186 -59q-76 -64 -76 -176q0 -87 33 -118q107 -12 207 -115q12 -15 38 -43q32 -30 184 -30q40 48 188 193q359 348 638 348h59q41 0 64 -33q21 -29 21 -70zM2833 1258q0 89 -120 89q-79 0 -155 -24q-91 -29 -127 -82q-9 -14 -29 -40q27 11 124 77q66 46 140 46 q2 0 7 -1.5t7 -1.5l12 -14q-137 0 -158 -42h12q-65 -22 -159 -159l-126 -204l-26 -45h19q186 205 471 436v7q0 13 -11 12l53 9q-79 -70 -247 -252l-158 -176h7q40 0 173 77q106 60 169 106q122 89 122 182zM2388 1178q-14 -22 -45 -62q17 19 45 62zM2358 1201 q-92 -54 -212 -198l75 58l-233 -241h33q47 0 66 23l176 238h-9q-5 0 -10 -2q73 61 114 122zM2229 822q-1 10 -2 10q-13 0 -13 -17q1 -2 2 -2q13 0 13 9zM2058 801h-82l-172 -208q4 -65 19 -103q6 -16 52 -40zM1863 801q-23 0 -69.5 9.5t-69.5 9.5h-7l-7 -7q-6 10 -19 16h-5 q10 -24 31 -45v29l54 -121q3 1 33 31q7 20 59 78zM1729 776v2q-1 6 -4 6h-2q-3 0 -4 -6v-2q1 -6 4 -6h2q3 0 4 6zM1672 857v7q-86 104 -179 104q-3 -1 -9 -2q18 -24 90.5 -66t97.5 -43zM1458 940q-9 28 -24 28q-66 0 -96 -54q56 26 120 26zM1776 499v69l-45 -45zM1748 667 q-2 10 -12 28q-41 68 -51 82q-30 42 -69 66q-58 35 -130 35q-54 0 -99 -20q-57 -24 -68 -69q38 -75 38 -137q0 -14 -3.5 -42t-3.5 -42l144 -12q89 -7 145 -7h10zM1863 424v7q-5 10 -38 19v1l-1 -4l-3 -18q-2 -21 -10 -85q-2 -20 -2 -28v-17zM1792 371v3q0 5 -4 10 q-3 -2 -3 -10v-4q0 -11 3 -14q4 9 4 15zM1783 326v18q0 -11 -10 -40t-9 -40l-2 -5l2 -9q19 7 19 76zM1901 125h-7q-50 0 -57 -36h2q38 0 62 36zM1338 652v24q0 89 -38 89q-28 -59 -28 -204q46 0 59 24q7 15 7 67zM1776 419v45q-35 24 -66 24q-3 0 -233 -234v-4 q83 -67 233 -87q66 143 66 256zM1616 506q-47 29 -186 29h-50q-33 0 -38 -3q-37 -20 -37 -75q0 -30 44.5 -94t70.5 -64zM1679 144q-2 2 -4 2l-3 -2q2 -5 5 -7q2 2 2 7zM1312 532h-33l2 -4q0 -6 2.5 -18t2.5 -18h5zM1649 148q0 5 -5 5q-2 -1 -2 -4v-2q0 -2 1 -2q4 1 6 3z M1623 155q-2 3 -5 3l-2 -3l4 -4q3 2 3 4zM1599 159v3q-1 5 -4 5h-1q-4 0 -4 -5v-3q1 -3 4 -4h1q4 1 4 4zM1579 172q-3 2 -5 2h-2q-4 0 -4 -2q3 -5 5 -7q3 2 6 7zM1561 176v2q0 6 -4 6h-1q-4 0 -4 -6v-3q0 -8 5 -8q4 3 4 9zM1543 181v2q-1 5 -5 5h-1q-3 0 -4 -5v-2q1 -4 4 -4 h2q3 0 4 4zM1531 188v2q-1 5 -4 5h-1q-4 0 -5 -5v-2q1 -4 4 -4h2q4 1 4 4zM1255 450l-33 78h-4q-57 0 -71 -22q-5 -96 -49 -162h7q60 32 80 46q32 22 70 60zM1119 504q-72 0 -195 -49q-126 -49 -175 -99q7 1 13 1q52 0 65 -86q4 -3 18 -3q119 0 193 58q81 63 81 178z M1112 551q0 79 -83 122q-65 34 -153 34q-104 0 -200 -57.5t-141 -150.5q-38 -77 -38 -122q59 -68 137 -92q71 79 230 165q14 7 137 52q111 40 111 49zM1387 276q-35 52 -113 139h-7q-70 -67 -162 -116q-166 -87 -278 -87q-21 0 -61.5 10.5t-61.5 10.5q-5 -2 -7 -5 q0 -76 94 -127q78 -42 163 -42q137 0 327 121l57 39q49 42 49 57zM1241 820v9q-136 85 -374 85q-279 0 -491 -130q-249 -153 -249 -414q0 -241 240 -356q74 -35 118 -35q15 0 31 67q14 58 14 86q0 12 -20 40q-25 36 -27 40q-33 65 -33 160q0 166 118.5 283t284.5 117 q247 0 294 -223h14q8 0 24 2t23 2q0 151 0 142q3 42 33 125zM739 348v2q0 6 -4 6h-1q-3 0 -4 -6v-2q1 -4 4 -4h2q3 1 3 4zM723 271v21q-21 0 -21 -21h21zM716 337q-29 -23 -59 -61h28zM980 17q0 4 -6 4h-2q-6 0 -6 -3l2 -4l5 -2q4 0 7 2v3zM935 45q-78 4 -142 37.5 t-96 105.5q-12 27 -12 45q-7 17 -51 17q-69 -69 -69 -92q0 -27 96 -75q91 -45 126 -45q18 0 54 -1.5t54 -1.5q5 0 14.5 1.5t13.5 1.5zM608 254l-111 90v-33q0 -31 16 -78q18 -56 40 -56q16 27 55 77zM954 9h-47q-223 0 -354 111h-4q-9 0 -18 -53q-8 -45 -8 -67v-28 q28 -7 68 -7h81q185 0 282 44zM2662 1302q0 -5 -10 -7q-10 0 -10 7q0 3 8 3h5q4 0 7 -3zM2631 1293q-4 -1 -9.5 -3l-16.5 -6q-4 0 -7 2q4 0 10.5 3.5t8.5 3.5h14zM2584 1278v-2q-1 -3 -3 -4l-4 4q0 6 2 8q5 0 5 -6zM2565 1270v-2q-1 -2 -2 -2q-3 1 -5 3q0 5 2 5h1q4 -1 4 -4 zM2244 1079q-11 -8 -23 -18q12 14 23 18z" />
<glyph unicode="&#xc3;" horiz-adv-x="2047" d="M2852 1258q0 -112 -149 -227q-118 -92 -254 -138l-124 -43l-276 -351q-117 -149 -186 -336v-15h5q4 0 33 8q115 30 212 115h7q-1 -40 -138 -120q-151 -87 -173 -127h-111q-7 21 -45 21h-146q-19 0 -19 23q0 14 8 14h134l49 31v2q0 7 -59 24q-66 19 -181 89 q-372 -289 -782 -289q-22 0 -66.5 2t-65.5 2q0 -209 181 -322q152 -94 375 -94q159 0 292 43q166 55 238 164q26 39 26 94q0 45 -33 97h12q21 0 37 -45q14 -37 14 -64q0 -121 -173 -216q-147 -80 -286 -88q-146 -7 -167 -7q-186 5 -329 86q-169 96 -199 263l-16 92l-7 5 q-169 30 -270 141q-105 116 -105 285v73q0 18 19 76q61 191 255 315q206 132 468 132q200 0 398 -109h7q7 8 14 22q26 46 66 80q20 16 52 30q7 2 21 7v3q0 21 -14 61.5t-14 62.5q0 123 83 192q77 65 202 65q85 0 152 -34q84 -43 84 -119h-7q-40 127 -219 127 q-115 0 -186 -59q-76 -64 -76 -176q0 -87 33 -118q107 -12 207 -115q12 -15 38 -43q32 -30 184 -30q40 48 188 193q359 348 638 348h59q41 0 64 -33q21 -29 21 -70zM2833 1258q0 89 -120 89q-79 0 -155 -24q-91 -29 -127 -82q-9 -14 -29 -40q27 11 124 77q66 46 140 46 q2 0 7 -1.5t7 -1.5l12 -14q-137 0 -158 -42h12q-65 -22 -159 -159l-126 -204l-26 -45h19q186 205 471 436v7q0 13 -11 12l53 9q-79 -70 -247 -252l-158 -176h7q40 0 173 77q106 60 169 106q122 89 122 182zM2388 1178q-14 -22 -45 -62q17 19 45 62zM2358 1201 q-92 -54 -212 -198l75 58l-233 -241h33q47 0 66 23l176 238h-9q-5 0 -10 -2q73 61 114 122zM2229 822q-1 10 -2 10q-13 0 -13 -17q1 -2 2 -2q13 0 13 9zM2058 801h-82l-172 -208q4 -65 19 -103q6 -16 52 -40zM1863 801q-23 0 -69.5 9.5t-69.5 9.5h-7l-7 -7q-6 10 -19 16h-5 q10 -24 31 -45v29l54 -121q3 1 33 31q7 20 59 78zM1729 776v2q-1 6 -4 6h-2q-3 0 -4 -6v-2q1 -6 4 -6h2q3 0 4 6zM1672 857v7q-86 104 -179 104q-3 -1 -9 -2q18 -24 90.5 -66t97.5 -43zM1458 940q-9 28 -24 28q-66 0 -96 -54q56 26 120 26zM1776 499v69l-45 -45zM1748 667 q-2 10 -12 28q-41 68 -51 82q-30 42 -69 66q-58 35 -130 35q-54 0 -99 -20q-57 -24 -68 -69q38 -75 38 -137q0 -14 -3.5 -42t-3.5 -42l144 -12q89 -7 145 -7h10zM1863 424v7q-5 10 -38 19v1l-1 -4l-3 -18q-2 -21 -10 -85q-2 -20 -2 -28v-17zM1792 371v3q0 5 -4 10 q-3 -2 -3 -10v-4q0 -11 3 -14q4 9 4 15zM1783 326v18q0 -11 -10 -40t-9 -40l-2 -5l2 -9q19 7 19 76zM1901 125h-7q-50 0 -57 -36h2q38 0 62 36zM1338 652v24q0 89 -38 89q-28 -59 -28 -204q46 0 59 24q7 15 7 67zM1776 419v45q-35 24 -66 24q-3 0 -233 -234v-4 q83 -67 233 -87q66 143 66 256zM1616 506q-47 29 -186 29h-50q-33 0 -38 -3q-37 -20 -37 -75q0 -30 44.5 -94t70.5 -64zM1679 144q-2 2 -4 2l-3 -2q2 -5 5 -7q2 2 2 7zM1312 532h-33l2 -4q0 -6 2.5 -18t2.5 -18h5zM1649 148q0 5 -5 5q-2 -1 -2 -4v-2q0 -2 1 -2q4 1 6 3z M1623 155q-2 3 -5 3l-2 -3l4 -4q3 2 3 4zM1599 159v3q-1 5 -4 5h-1q-4 0 -4 -5v-3q1 -3 4 -4h1q4 1 4 4zM1579 172q-3 2 -5 2h-2q-4 0 -4 -2q3 -5 5 -7q3 2 6 7zM1561 176v2q0 6 -4 6h-1q-4 0 -4 -6v-3q0 -8 5 -8q4 3 4 9zM1543 181v2q-1 5 -5 5h-1q-3 0 -4 -5v-2q1 -4 4 -4 h2q3 0 4 4zM1531 188v2q-1 5 -4 5h-1q-4 0 -5 -5v-2q1 -4 4 -4h2q4 1 4 4zM1255 450l-33 78h-4q-57 0 -71 -22q-5 -96 -49 -162h7q60 32 80 46q32 22 70 60zM1119 504q-72 0 -195 -49q-126 -49 -175 -99q7 1 13 1q52 0 65 -86q4 -3 18 -3q119 0 193 58q81 63 81 178z M1112 551q0 79 -83 122q-65 34 -153 34q-104 0 -200 -57.5t-141 -150.5q-38 -77 -38 -122q59 -68 137 -92q71 79 230 165q14 7 137 52q111 40 111 49zM1387 276q-35 52 -113 139h-7q-70 -67 -162 -116q-166 -87 -278 -87q-21 0 -61.5 10.5t-61.5 10.5q-5 -2 -7 -5 q0 -76 94 -127q78 -42 163 -42q137 0 327 121l57 39q49 42 49 57zM1241 820v9q-136 85 -374 85q-279 0 -491 -130q-249 -153 -249 -414q0 -241 240 -356q74 -35 118 -35q15 0 31 67q14 58 14 86q0 12 -20 40q-25 36 -27 40q-33 65 -33 160q0 166 118.5 283t284.5 117 q247 0 294 -223h14q8 0 24 2t23 2q0 151 0 142q3 42 33 125zM739 348v2q0 6 -4 6h-1q-3 0 -4 -6v-2q1 -4 4 -4h2q3 1 3 4zM723 271v21q-21 0 -21 -21h21zM716 337q-29 -23 -59 -61h28zM980 17q0 4 -6 4h-2q-6 0 -6 -3l2 -4l5 -2q4 0 7 2v3zM935 45q-78 4 -142 37.5 t-96 105.5q-12 27 -12 45q-7 17 -51 17q-69 -69 -69 -92q0 -27 96 -75q91 -45 126 -45q18 0 54 -1.5t54 -1.5q5 0 14.5 1.5t13.5 1.5zM608 254l-111 90v-33q0 -31 16 -78q18 -56 40 -56q16 27 55 77zM954 9h-47q-223 0 -354 111h-4q-9 0 -18 -53q-8 -45 -8 -67v-28 q28 -7 68 -7h81q185 0 282 44zM2662 1302q0 -5 -10 -7q-10 0 -10 7q0 3 8 3h5q4 0 7 -3zM2631 1293q-4 -1 -9.5 -3l-16.5 -6q-4 0 -7 2q4 0 10.5 3.5t8.5 3.5h14zM2584 1278v-2q-1 -3 -3 -4l-4 4q0 6 2 8q5 0 5 -6zM2565 1270v-2q-1 -2 -2 -2q-3 1 -5 3q0 5 2 5h1q4 -1 4 -4 zM2244 1079q-11 -8 -23 -18q12 14 23 18zM2871 1510q0 -25 -52 -57.5t-82 -32.5q-39 0 -109 32t-108 32h-35q-40 -17 -62 -69q-37 19 -37 38q0 32 48 61q44 26 79 26q49 0 210 -63q59 0 110 63h7z" />
<glyph unicode="&#xc4;" horiz-adv-x="2047" d="M2852 1258q0 -112 -149 -227q-118 -92 -254 -138l-124 -43l-276 -351q-117 -149 -186 -336v-15h5q4 0 33 8q115 30 212 115h7q-1 -40 -138 -120q-151 -87 -173 -127h-111q-7 21 -45 21h-146q-19 0 -19 23q0 14 8 14h134l49 31v2q0 7 -59 24q-66 19 -181 89 q-372 -289 -782 -289q-22 0 -66.5 2t-65.5 2q0 -209 181 -322q152 -94 375 -94q159 0 292 43q166 55 238 164q26 39 26 94q0 45 -33 97h12q21 0 37 -45q14 -37 14 -64q0 -121 -173 -216q-147 -80 -286 -88q-146 -7 -167 -7q-186 5 -329 86q-169 96 -199 263l-16 92l-7 5 q-169 30 -270 141q-105 116 -105 285v73q0 18 19 76q61 191 255 315q206 132 468 132q200 0 398 -109h7q7 8 14 22q26 46 66 80q20 16 52 30q7 2 21 7v3q0 21 -14 61.5t-14 62.5q0 123 83 192q77 65 202 65q85 0 152 -34q84 -43 84 -119h-7q-40 127 -219 127 q-115 0 -186 -59q-76 -64 -76 -176q0 -87 33 -118q107 -12 207 -115q12 -15 38 -43q32 -30 184 -30q40 48 188 193q359 348 638 348h59q41 0 64 -33q21 -29 21 -70zM2833 1258q0 89 -120 89q-79 0 -155 -24q-91 -29 -127 -82q-9 -14 -29 -40q27 11 124 77q66 46 140 46 q2 0 7 -1.5t7 -1.5l12 -14q-137 0 -158 -42h12q-65 -22 -159 -159l-126 -204l-26 -45h19q186 205 471 436v7q0 13 -11 12l53 9q-79 -70 -247 -252l-158 -176h7q40 0 173 77q106 60 169 106q122 89 122 182zM2388 1178q-14 -22 -45 -62q17 19 45 62zM2358 1201 q-92 -54 -212 -198l75 58l-233 -241h33q47 0 66 23l176 238h-9q-5 0 -10 -2q73 61 114 122zM2229 822q-1 10 -2 10q-13 0 -13 -17q1 -2 2 -2q13 0 13 9zM2058 801h-82l-172 -208q4 -65 19 -103q6 -16 52 -40zM1863 801q-23 0 -69.5 9.5t-69.5 9.5h-7l-7 -7q-6 10 -19 16h-5 q10 -24 31 -45v29l54 -121q3 1 33 31q7 20 59 78zM1729 776v2q-1 6 -4 6h-2q-3 0 -4 -6v-2q1 -6 4 -6h2q3 0 4 6zM1672 857v7q-86 104 -179 104q-3 -1 -9 -2q18 -24 90.5 -66t97.5 -43zM1458 940q-9 28 -24 28q-66 0 -96 -54q56 26 120 26zM1776 499v69l-45 -45zM1748 667 q-2 10 -12 28q-41 68 -51 82q-30 42 -69 66q-58 35 -130 35q-54 0 -99 -20q-57 -24 -68 -69q38 -75 38 -137q0 -14 -3.5 -42t-3.5 -42l144 -12q89 -7 145 -7h10zM1863 424v7q-5 10 -38 19v1l-1 -4l-3 -18q-2 -21 -10 -85q-2 -20 -2 -28v-17zM1792 371v3q0 5 -4 10 q-3 -2 -3 -10v-4q0 -11 3 -14q4 9 4 15zM1783 326v18q0 -11 -10 -40t-9 -40l-2 -5l2 -9q19 7 19 76zM1901 125h-7q-50 0 -57 -36h2q38 0 62 36zM1338 652v24q0 89 -38 89q-28 -59 -28 -204q46 0 59 24q7 15 7 67zM1776 419v45q-35 24 -66 24q-3 0 -233 -234v-4 q83 -67 233 -87q66 143 66 256zM1616 506q-47 29 -186 29h-50q-33 0 -38 -3q-37 -20 -37 -75q0 -30 44.5 -94t70.5 -64zM1679 144q-2 2 -4 2l-3 -2q2 -5 5 -7q2 2 2 7zM1312 532h-33l2 -4q0 -6 2.5 -18t2.5 -18h5zM1649 148q0 5 -5 5q-2 -1 -2 -4v-2q0 -2 1 -2q4 1 6 3z M1623 155q-2 3 -5 3l-2 -3l4 -4q3 2 3 4zM1599 159v3q-1 5 -4 5h-1q-4 0 -4 -5v-3q1 -3 4 -4h1q4 1 4 4zM1579 172q-3 2 -5 2h-2q-4 0 -4 -2q3 -5 5 -7q3 2 6 7zM1561 176v2q0 6 -4 6h-1q-4 0 -4 -6v-3q0 -8 5 -8q4 3 4 9zM1543 181v2q-1 5 -5 5h-1q-3 0 -4 -5v-2q1 -4 4 -4 h2q3 0 4 4zM1531 188v2q-1 5 -4 5h-1q-4 0 -5 -5v-2q1 -4 4 -4h2q4 1 4 4zM1255 450l-33 78h-4q-57 0 -71 -22q-5 -96 -49 -162h7q60 32 80 46q32 22 70 60zM1119 504q-72 0 -195 -49q-126 -49 -175 -99q7 1 13 1q52 0 65 -86q4 -3 18 -3q119 0 193 58q81 63 81 178z M1112 551q0 79 -83 122q-65 34 -153 34q-104 0 -200 -57.5t-141 -150.5q-38 -77 -38 -122q59 -68 137 -92q71 79 230 165q14 7 137 52q111 40 111 49zM1387 276q-35 52 -113 139h-7q-70 -67 -162 -116q-166 -87 -278 -87q-21 0 -61.5 10.5t-61.5 10.5q-5 -2 -7 -5 q0 -76 94 -127q78 -42 163 -42q137 0 327 121l57 39q49 42 49 57zM1241 820v9q-136 85 -374 85q-279 0 -491 -130q-249 -153 -249 -414q0 -241 240 -356q74 -35 118 -35q15 0 31 67q14 58 14 86q0 12 -20 40q-25 36 -27 40q-33 65 -33 160q0 166 118.5 283t284.5 117 q247 0 294 -223h14q8 0 24 2t23 2q0 151 0 142q3 42 33 125zM739 348v2q0 6 -4 6h-1q-3 0 -4 -6v-2q1 -4 4 -4h2q3 1 3 4zM723 271v21q-21 0 -21 -21h21zM716 337q-29 -23 -59 -61h28zM980 17q0 4 -6 4h-2q-6 0 -6 -3l2 -4l5 -2q4 0 7 2v3zM935 45q-78 4 -142 37.5 t-96 105.5q-12 27 -12 45q-7 17 -51 17q-69 -69 -69 -92q0 -27 96 -75q91 -45 126 -45q18 0 54 -1.5t54 -1.5q5 0 14.5 1.5t13.5 1.5zM608 254l-111 90v-33q0 -31 16 -78q18 -56 40 -56q16 27 55 77zM954 9h-47q-223 0 -354 111h-4q-9 0 -18 -53q-8 -45 -8 -67v-28 q28 -7 68 -7h81q185 0 282 44zM2662 1302q0 -5 -10 -7q-10 0 -10 7q0 3 8 3h5q4 0 7 -3zM2631 1293q-4 -1 -9.5 -3l-16.5 -6q-4 0 -7 2q4 0 10.5 3.5t8.5 3.5h14zM2584 1278v-2q-1 -3 -3 -4l-4 4q0 6 2 8q5 0 5 -6zM2565 1270v-2q-1 -2 -2 -2q-3 1 -5 3q0 5 2 5h1q4 -1 4 -4 zM2244 1079q-11 -8 -23 -18q12 14 23 18zM2654 1441q-3 -39 -59 -30q-17 3 -32 21.5t-8 34.5q17 34 59 31q18 -2 30 -20.5t10 -36.5zM2475 1458q0 -41 -61 -35q-40 3 -40 42q0 41 51 41q5 0 10 -1q40 -5 40 -47z" />
<glyph unicode="&#xc5;" horiz-adv-x="2047" d="M2852 1258q0 -112 -149 -227q-118 -92 -254 -138l-124 -43l-276 -351q-117 -149 -186 -336v-15h5q4 0 33 8q115 30 212 115h7q-1 -40 -138 -120q-151 -87 -173 -127h-111q-7 21 -45 21h-146q-19 0 -19 23q0 14 8 14h134l49 31v2q0 7 -59 24q-66 19 -181 89 q-372 -289 -782 -289q-22 0 -66.5 2t-65.5 2q0 -209 181 -322q152 -94 375 -94q159 0 292 43q166 55 238 164q26 39 26 94q0 45 -33 97h12q21 0 37 -45q14 -37 14 -64q0 -121 -173 -216q-147 -80 -286 -88q-146 -7 -167 -7q-186 5 -329 86q-169 96 -199 263l-16 92l-7 5 q-169 30 -270 141q-105 116 -105 285v73q0 18 19 76q61 191 255 315q206 132 468 132q200 0 398 -109h7q7 8 14 22q26 46 66 80q20 16 52 30q7 2 21 7v3q0 21 -14 61.5t-14 62.5q0 123 83 192q77 65 202 65q85 0 152 -34q84 -43 84 -119h-7q-40 127 -219 127 q-115 0 -186 -59q-76 -64 -76 -176q0 -87 33 -118q107 -12 207 -115q12 -15 38 -43q32 -30 184 -30q40 48 188 193q359 348 638 348h59q41 0 64 -33q21 -29 21 -70zM2833 1258q0 89 -120 89q-79 0 -155 -24q-91 -29 -127 -82q-9 -14 -29 -40q27 11 124 77q66 46 140 46 q2 0 7 -1.5t7 -1.5l12 -14q-137 0 -158 -42h12q-65 -22 -159 -159l-126 -204l-26 -45h19q186 205 471 436v7q0 13 -11 12l53 9q-79 -70 -247 -252l-158 -176h7q40 0 173 77q106 60 169 106q122 89 122 182zM2388 1178q-14 -22 -45 -62q17 19 45 62zM2358 1201 q-92 -54 -212 -198l75 58l-233 -241h33q47 0 66 23l176 238h-9q-5 0 -10 -2q73 61 114 122zM2229 822q-1 10 -2 10q-13 0 -13 -17q1 -2 2 -2q13 0 13 9zM2058 801h-82l-172 -208q4 -65 19 -103q6 -16 52 -40zM1863 801q-23 0 -69.5 9.5t-69.5 9.5h-7l-7 -7q-6 10 -19 16h-5 q10 -24 31 -45v29l54 -121q3 1 33 31q7 20 59 78zM1729 776v2q-1 6 -4 6h-2q-3 0 -4 -6v-2q1 -6 4 -6h2q3 0 4 6zM1672 857v7q-86 104 -179 104q-3 -1 -9 -2q18 -24 90.5 -66t97.5 -43zM1458 940q-9 28 -24 28q-66 0 -96 -54q56 26 120 26zM1776 499v69l-45 -45zM1748 667 q-2 10 -12 28q-41 68 -51 82q-30 42 -69 66q-58 35 -130 35q-54 0 -99 -20q-57 -24 -68 -69q38 -75 38 -137q0 -14 -3.5 -42t-3.5 -42l144 -12q89 -7 145 -7h10zM1863 424v7q-5 10 -38 19v1l-1 -4l-3 -18q-2 -21 -10 -85q-2 -20 -2 -28v-17zM1792 371v3q0 5 -4 10 q-3 -2 -3 -10v-4q0 -11 3 -14q4 9 4 15zM1783 326v18q0 -11 -10 -40t-9 -40l-2 -5l2 -9q19 7 19 76zM1901 125h-7q-50 0 -57 -36h2q38 0 62 36zM1338 652v24q0 89 -38 89q-28 -59 -28 -204q46 0 59 24q7 15 7 67zM1776 419v45q-35 24 -66 24q-3 0 -233 -234v-4 q83 -67 233 -87q66 143 66 256zM1616 506q-47 29 -186 29h-50q-33 0 -38 -3q-37 -20 -37 -75q0 -30 44.5 -94t70.5 -64zM1679 144q-2 2 -4 2l-3 -2q2 -5 5 -7q2 2 2 7zM1312 532h-33l2 -4q0 -6 2.5 -18t2.5 -18h5zM1649 148q0 5 -5 5q-2 -1 -2 -4v-2q0 -2 1 -2q4 1 6 3z M1623 155q-2 3 -5 3l-2 -3l4 -4q3 2 3 4zM1599 159v3q-1 5 -4 5h-1q-4 0 -4 -5v-3q1 -3 4 -4h1q4 1 4 4zM1579 172q-3 2 -5 2h-2q-4 0 -4 -2q3 -5 5 -7q3 2 6 7zM1561 176v2q0 6 -4 6h-1q-4 0 -4 -6v-3q0 -8 5 -8q4 3 4 9zM1543 181v2q-1 5 -5 5h-1q-3 0 -4 -5v-2q1 -4 4 -4 h2q3 0 4 4zM1531 188v2q-1 5 -4 5h-1q-4 0 -5 -5v-2q1 -4 4 -4h2q4 1 4 4zM1255 450l-33 78h-4q-57 0 -71 -22q-5 -96 -49 -162h7q60 32 80 46q32 22 70 60zM1119 504q-72 0 -195 -49q-126 -49 -175 -99q7 1 13 1q52 0 65 -86q4 -3 18 -3q119 0 193 58q81 63 81 178z M1112 551q0 79 -83 122q-65 34 -153 34q-104 0 -200 -57.5t-141 -150.5q-38 -77 -38 -122q59 -68 137 -92q71 79 230 165q14 7 137 52q111 40 111 49zM1387 276q-35 52 -113 139h-7q-70 -67 -162 -116q-166 -87 -278 -87q-21 0 -61.5 10.5t-61.5 10.5q-5 -2 -7 -5 q0 -76 94 -127q78 -42 163 -42q137 0 327 121l57 39q49 42 49 57zM1241 820v9q-136 85 -374 85q-279 0 -491 -130q-249 -153 -249 -414q0 -241 240 -356q74 -35 118 -35q15 0 31 67q14 58 14 86q0 12 -20 40q-25 36 -27 40q-33 65 -33 160q0 166 118.5 283t284.5 117 q247 0 294 -223h14q8 0 24 2t23 2q0 151 0 142q3 42 33 125zM739 348v2q0 6 -4 6h-1q-3 0 -4 -6v-2q1 -4 4 -4h2q3 1 3 4zM723 271v21q-21 0 -21 -21h21zM716 337q-29 -23 -59 -61h28zM980 17q0 4 -6 4h-2q-6 0 -6 -3l2 -4l5 -2q4 0 7 2v3zM935 45q-78 4 -142 37.5 t-96 105.5q-12 27 -12 45q-7 17 -51 17q-69 -69 -69 -92q0 -27 96 -75q91 -45 126 -45q18 0 54 -1.5t54 -1.5q5 0 14.5 1.5t13.5 1.5zM608 254l-111 90v-33q0 -31 16 -78q18 -56 40 -56q16 27 55 77zM954 9h-47q-223 0 -354 111h-4q-9 0 -18 -53q-8 -45 -8 -67v-28 q28 -7 68 -7h81q185 0 282 44zM2662 1302q0 -5 -10 -7q-10 0 -10 7q0 3 8 3h5q4 0 7 -3zM2631 1293q-4 -1 -9.5 -3l-16.5 -6q-4 0 -7 2q4 0 10.5 3.5t8.5 3.5h14zM2584 1278v-2q-1 -3 -3 -4l-4 4q0 6 2 8q5 0 5 -6zM2565 1270v-2q-1 -2 -2 -2q-3 1 -5 3q0 5 2 5h1q4 -1 4 -4 zM2244 1079q-11 -8 -23 -18q12 14 23 18zM2881 1619q0 -19 -8 -33q-30 -48 -68 -86l-19 -19q3 0 -50 -40t-102 -40q-26 0 -49 15q-31 20 -31 38q0 13 2.5 38.5t2.5 38.5q0 7 -7 7l56 84q68 98 185 98q31 0 47 -19q6 -7 26 -45q15 -30 15 -37zM2843 1629q0 84 -43 84 q-54 0 -105 -61v-9q18 0 52.5 14t52.5 14q3 0 5 -1l4 -3q-61 -31 -124 -94q-75 -76 -75 -127q0 -3 1 -7v-8l9 -7q72 0 151 87q7 29 65 95q7 8 7 23zM2680 1413v7h-12v-7h12z" />
<glyph unicode="&#xc7;" horiz-adv-x="1244" d="M1738 1126q0 -122 -132 -210q-119 -80 -247 -80q-16 0 -48 3.5t-49 3.5q-110 -57 -165 -82q-108 -51 -167 -66q-25 -8 -75 -21l-240 -45q-125 -151 -125 -349q0 -205 165 -205q1 0 5 1.5t7 1.5q3 132 32 265q9 31 24 93v4q108 177 292 177q172 0 172 -158q0 -74 -52 -162 q-118 -203 -431 -271q7 -41 23 -122q0 -1 1 -3q0 -11 -5 -16q-5 -1 -7 7q-14 44 -38 134q-28 7 -75 7q-12 0 -36.5 -3.5t-36.5 -3.5q-90 0 -144 56t-54 146q0 40 46 194q44 146 67 195q-139 5 -226 103t-87 239q0 122 72 209q60 74 192 120q27 10 56 12q3 0 130 33 q73 19 132 19q151 0 221 -94q14 -19 14 -38h-7q-49 113 -228 113q-73 0 -118 -19q165 -51 198 -66q68 -32 172 -122q327 158 530 158q242 0 242 -158zM1707 1140q0 129 -197 129q-38 0 -66 -7q79 -35 82 -75v-40q0 -109 -144 -219q-28 -19 -77 -61h35q110 0 233 80 q134 89 134 193zM1288 999q0 14 -14 14q-23 0 -39.5 -23.5t-16.5 -47.5v-14q0 -5 7 -5q17 0 40 28.5t23 47.5zM1507 1149v19q-17 -48 -53 -96q34 53 34 108q0 52 -82 52q-214 0 -389 -170v-2q0 -17 36.5 -73t36.5 -78q-3 -2 -11 -5q-35 66 -85 135l-2 -3q-15 -2 -126 -113 q-107 -107 -112 -118l-7 -14h16q224 0 436 113q0 120 94 120q7 -7 7 -25q0 -38 -71 -99l15 -14q29 13 75 51l31 27l-83 -78l-5 -5v-7q79 36 155 114q90 91 90 161zM1236 862h-7q-16 -8 -42 -26q-4 -1 -7 -7q5 5 33 16q24 8 23 17zM1173 821v2q-1 6 -4 6h-1q-4 0 -4 -6l-1 -2 q1 -4 4 -4h2q4 1 4 4zM1159 816v2q-1 6 -4 6h-2q-3 0 -4 -6v-2q1 -6 4 -6h2q3 0 4 6zM1147 809v3q-1 5 -4 5h-1q-4 0 -4 -5v-3q0 -3 4 -4h1q4 1 4 4zM874 999q-1 1 -3 1q-13 0 -13 -12q0 -1 2 -1q14 0 14 12zM829 961q-1 2 -3 2h-2q-2 -2 -2 -5v-2h2h2h2h1v5zM810 942 q-1 2 -3 2h-2q-2 -2 -2 -5v-2h3h1h3v0v5zM1225 874l-14 12h-3q-126 -61 -242 -97q-88 -27 -250 -35q-37 -30 -49 -57h21q280 0 537 177zM935 1107v2q0 13 -31 40q-149 132 -263 120l11 7q-35 8 -106 8q-44 0 -94 -59h3q29 0 82.5 20t84.5 20l7 -3q-136 -35 -172 -58 q-75 -47 -75 -154q0 -85 55 -149.5t140 -83.5q177 182 358 290zM1156 476q0 129 -139 129q-33 0 -81 -14q-55 -16 -69 -38q66 33 134 33h47q7 0 27 -11q64 -36 74 -146q7 21 7 47zM483 1281h-5q-122 0 -218.5 -90t-96.5 -211v-38l7 -12q37 130 143 215q38 21 106 70z M553 787l-7 4q-183 123 -183 255q0 20 10.5 58.5t10.5 58.5q-59 -20 -127.5 -116t-68.5 -159q0 -17 12 -33q46 -63 123 -106q81 -45 155 -45h17q2 0 28.5 37.5t29.5 45.5zM1123 440q0 113 -106 113q-58 0 -106 -30q132 -12 132 -113q0 -100 -112 -202q-90 -83 -203 -130h7 q120 0 253 120q135 124 135 242zM1029 407q0 97 -99 97q-39 0 -52 -7q-27 -15 -85 -104t-58 -117q0 -43 75 -43q17 0 47 13t47 13q-30 -45 -96 -45q-36 0 -85 33q-21 -47 -21 -143q0 -13 2 -22q109 35 209 124q116 103 116 201zM454 636q-3 2 -7 2h-14q-7 0 -11 -2 q4 -5 13 -5h3q10 0 14 5h2zM415 643q-111 19 -196 99v-7q94 -94 186 -94q5 0 10 2zM219 746v2q-1 6 -4 6h-1q-4 0 -4 -6v-2q0 -4 4 -4h1q4 1 4 4zM714 51v2q-1 6 -5 6h-1q-3 0 -4 -6v-2q1 -6 4 -6h1q4 0 5 6zM546 45q-119 42 -150 113q-9 21 -31 63q0 -5 -1 -15.5t-1 -14.5 q0 -67 43.5 -106.5t111.5 -39.5h28zM1454 1072q-31 -47 -104 -108q70 64 104 108z" />
<glyph unicode="&#xc8;" horiz-adv-x="959" d="M1347 1022q0 -87 -75 -136q-64 -43 -156 -43q-111 0 -150 38l-45 52q-144 -83 -257 -128q66 -6 81 -11q38 -12 63 -50q14 -21 14 -26q0 -37 -45 -37q-29 0 -83.5 18.5t-83.5 18.5q-26 0 -104 -44q-278 -161 -278 -382q0 -200 149 -200q0 187 19 258q34 129 155 199 q65 37 141 37q210 0 210 -174q0 -169 -166 -281q-139 -93 -324 -110v-7q0 -18 10.5 -53t10.5 -53q-9 -1 -14 14q-10 33 -33 99q-200 28 -263 150q-20 39 -20 71l1 41q1 194 188 360q57 33 139 94q-15 -1 -32 -1q-206 0 -279 135q-47 88 -47 161q0 141 144 221 q-3 147 76 233.5t225 86.5q113 0 206 -61q105 -69 105 -177q0 -12 -9 -14q-20 148 -174 208q-50 19 -85 19l-43 -1q-116 -1 -191 -58q-82 -63 -84 -175l-1 -26q0 -11 8 -16h4q14 0 38.5 9.5t37.5 9.5h68q141 0 297 -102h19l99 31q85 27 190 71q45 18 97 18q101 0 101 -80 q0 -17 -5 -40q151 -49 151 -167zM1185 1201v64q0 37 -78 37q-101 0 -137 -44q78 -5 102 -50q17 0 52.5 -6t53.5 -6q4 2 7 5zM1041 1208v3q0 23 -64 23q-68 0 -106 -45h10q-26 0 160 19zM1331 1029q0 82 -90 126q-71 34 -162 34q-1 -19 -38 -110v-3l31 -19h7l19 12 q-11 -11 -21 -43q-9 -27 -31 -42q-2 0 -56 -22q-42 -18 -43 -29q52 -64 162 -64q88 0 149 35q73 43 73 125zM1060 1032q-26 -17 -71 -57q71 31 71 57zM1060 1046q-12 12 -38 11q-85 -56 -85 -96q58 0 123 85zM1053 1192h-33q-47 0 -132 -26q-99 -30 -99 -61 q0 -12 15.5 -28.5t15.5 -30.5h-5l-45 42q-23 -18 -51 -57q-31 -44 -31 -68q19 0 59 -6t61 -6q22 0 103 52q142 90 142 189zM921 970v5q-12 -5 -31 -19h12q19 0 19 14zM725 1126q-12 -5 -30 -24q21 10 30 24zM895 933h-12q-32 0 -49 -7q-11 -7 -34 -20q-31 -18 -79 -37 q-83 -33 -83 -38q0 -15 17 -14l4 3q24 -4 120 44q93 46 116 69zM770 926q-28 7 -63 7h-38q-6 -9 -19 -45h9q10 0 111 38zM676 1171q-76 101 -276 101q-87 0 -146 -33q13 -32 19 -42q15 -26 33 -26q117 58 151 56q-50 -22 -146 -75v-7q86 -77 86 -78q60 -47 100 -47 q105 105 179 151zM810 721q-17 -12 -52 -29h14q38 0 38 29zM784 735q-2 2 -7 9h-5q-4 0 -18.5 -15t-21.5 -18q52 1 52 24zM782 756q-24 31 -93 31h-27q-5 0 -17 -5q3 -14 12 -19q7 1 16 1q15 0 45 -4t45 -4h19zM718 711v2q-1 5 -4 5h-1q-3 -1 -4 -5v-2l4 -4h1zM638 763 l-12 12q-1 -5 -2 -7q0 -10 7 -12zM805 541v2q-5 10 -10 13q-3 -2 -4 -6v-2q1 -6 3.5 -6t1.5 -1l4 -4h1zM812 531q-1 6 -4 6h-1q-3 -2 -4 -6v-2q1 -6 4 -6h1q4 1 4 6v2zM261 1149v3l-30 68q-3 1 -7 2q-9 0 -19 -7q-83 -60 -83 -146v-33q0 -14 8 -28l49 57l68 68q10 9 14 16z M480 982l-4 7q-86 49 -104 61q-57 37 -92 76l-12 -5q-115 -108 -115 -158q0 -1 2 -7q97 -106 255 -106q26 0 52 7zM570 725l-5 3l-2 -3l2 -4zM582 744q-9 6 -26 19h-3q-51 0 -115 -56h5q6 0 27 8.5t112 28.5zM551 718h-6q-9 0 -46 -19h5zM492 692v2q-1 5 -4 5h-1 q-4 -1 -4 -5v-2l4 -4h1zM480 685v2q-1 5 -4 5h-1q-3 -1 -4 -5v-2l4 -4h1zM525 777v5q-5 5 -30 23h-3q-17 0 -50.5 -3.5t-50.5 -3.5q-98 0 -160 26q-28 20 -78 40q0 -56 79 -89q62 -26 128 -26q67 0 142 16q23 6 23 12zM153 870q-1 6 -4 6h-1q-4 -2 -4 -6v-2q1 -6 4 -6h1 q4 2 4 6v2zM803 445q0 92 -38 92q-101 0 -221 -90q64 78 200 102l-12 7q-4 0 -14 1t-16 1q-149 0 -259 -254v-3q0 -35 70 -35q11 0 31 6t31 6v-5q0 -10 -38 -19q-9 -7 -30 -7q-14 0 -38.5 9.5t-37.5 9.5l-7 -12q-21 -76 -21 -144v-21q145 0 270 104q130 109 130 252z M864 429q0 99 -51 99q0 -14 4.5 -42.5t4.5 -42.5q0 -120 -139 -264q21 8 42 20q-26 -21 -80 -58q-107 -59 -240 -82v-14q205 0 372 183l-29 -13q116 86 116 214zM669 168v2q0 1 -1 4q-4 -1 -6 -7l2 -2zM382 45q0 26 -80 26h-22q47 -26 102 -26zM275 81l-3 1h-3l-2 -1 q2 -3 4 -8zM1163 1137l-4 -4h-1l-4 4v2q1 5 4 6h1q4 -2 4 -6v-2zM1135 1107q-12 -24 -26 -24l-3 2q1 4 29 22zM508 1241q-3 -4 -11 -5q-11 2 -11 5l8 2h6q1 0 8 -2zM476 1234l-5 -5l-2 5l2 2zM801 549v-1q-1 -6 -4 -6h-1v1q1 5 4 6h1zM537 440l-4 -4h-1l-4 4v2q1 5 4 5h1 q3 -1 4 -5v-2zM1015 1342l-2 -4q-43 10 -126 81q-88 75 -88 112q0 32 39 32q18 0 26 -11q15 -19 43 -85q24 -58 47 -77q15 -12 45 -33q0 -3 16 -15z" />
<glyph unicode="&#xc9;" horiz-adv-x="959" d="M1347 1022q0 -87 -75 -136q-64 -43 -156 -43q-111 0 -150 38l-45 52q-144 -83 -257 -128q66 -6 81 -11q38 -12 63 -50q14 -21 14 -26q0 -37 -45 -37q-29 0 -83.5 18.5t-83.5 18.5q-26 0 -104 -44q-278 -161 -278 -382q0 -200 149 -200q0 187 19 258q34 129 155 199 q65 37 141 37q210 0 210 -174q0 -169 -166 -281q-139 -93 -324 -110v-7q0 -18 10.5 -53t10.5 -53q-9 -1 -14 14q-10 33 -33 99q-200 28 -263 150q-20 39 -20 71l1 41q1 194 188 360q57 33 139 94q-15 -1 -32 -1q-206 0 -279 135q-47 88 -47 161q0 141 144 221 q-3 147 76 233.5t225 86.5q113 0 206 -61q105 -69 105 -177q0 -12 -9 -14q-20 148 -174 208q-50 19 -85 19l-43 -1q-116 -1 -191 -58q-82 -63 -84 -175l-1 -26q0 -11 8 -16h4q14 0 38.5 9.5t37.5 9.5h68q141 0 297 -102h19l99 31q85 27 190 71q45 18 97 18q101 0 101 -80 q0 -17 -5 -40q151 -49 151 -167zM1185 1201v64q0 37 -78 37q-101 0 -137 -44q78 -5 102 -50q17 0 52.5 -6t53.5 -6q4 2 7 5zM1041 1208v3q0 23 -64 23q-68 0 -106 -45h10q-26 0 160 19zM1331 1029q0 82 -90 126q-71 34 -162 34q-1 -19 -38 -110v-3l31 -19h7l19 12 q-11 -11 -21 -43q-9 -27 -31 -42q-2 0 -56 -22q-42 -18 -43 -29q52 -64 162 -64q88 0 149 35q73 43 73 125zM1060 1032q-26 -17 -71 -57q71 31 71 57zM1060 1046q-12 12 -38 11q-85 -56 -85 -96q58 0 123 85zM1053 1192h-33q-47 0 -132 -26q-99 -30 -99 -61 q0 -12 15.5 -28.5t15.5 -30.5h-5l-45 42q-23 -18 -51 -57q-31 -44 -31 -68q19 0 59 -6t61 -6q22 0 103 52q142 90 142 189zM921 970v5q-12 -5 -31 -19h12q19 0 19 14zM725 1126q-12 -5 -30 -24q21 10 30 24zM895 933h-12q-32 0 -49 -7q-11 -7 -34 -20q-31 -18 -79 -37 q-83 -33 -83 -38q0 -15 17 -14l4 3q24 -4 120 44q93 46 116 69zM770 926q-28 7 -63 7h-38q-6 -9 -19 -45h9q10 0 111 38zM676 1171q-76 101 -276 101q-87 0 -146 -33q13 -32 19 -42q15 -26 33 -26q117 58 151 56q-50 -22 -146 -75v-7q86 -77 86 -78q60 -47 100 -47 q105 105 179 151zM810 721q-17 -12 -52 -29h14q38 0 38 29zM784 735q-2 2 -7 9h-5q-4 0 -18.5 -15t-21.5 -18q52 1 52 24zM782 756q-24 31 -93 31h-27q-5 0 -17 -5q3 -14 12 -19q7 1 16 1q15 0 45 -4t45 -4h19zM718 711v2q-1 5 -4 5h-1q-3 -1 -4 -5v-2l4 -4h1zM638 763 l-12 12q-1 -5 -2 -7q0 -10 7 -12zM805 541v2q-5 10 -10 13q-3 -2 -4 -6v-2q1 -6 3.5 -6t1.5 -1l4 -4h1zM812 531q-1 6 -4 6h-1q-3 -2 -4 -6v-2q1 -6 4 -6h1q4 1 4 6v2zM261 1149v3l-30 68q-3 1 -7 2q-9 0 -19 -7q-83 -60 -83 -146v-33q0 -14 8 -28l49 57l68 68q10 9 14 16z M480 982l-4 7q-86 49 -104 61q-57 37 -92 76l-12 -5q-115 -108 -115 -158q0 -1 2 -7q97 -106 255 -106q26 0 52 7zM570 725l-5 3l-2 -3l2 -4zM582 744q-9 6 -26 19h-3q-51 0 -115 -56h5q6 0 27 8.5t112 28.5zM551 718h-6q-9 0 -46 -19h5zM492 692v2q-1 5 -4 5h-1 q-4 -1 -4 -5v-2l4 -4h1zM480 685v2q-1 5 -4 5h-1q-3 -1 -4 -5v-2l4 -4h1zM525 777v5q-5 5 -30 23h-3q-17 0 -50.5 -3.5t-50.5 -3.5q-98 0 -160 26q-28 20 -78 40q0 -56 79 -89q62 -26 128 -26q67 0 142 16q23 6 23 12zM153 870q-1 6 -4 6h-1q-4 -2 -4 -6v-2q1 -6 4 -6h1 q4 2 4 6v2zM803 445q0 92 -38 92q-101 0 -221 -90q64 78 200 102l-12 7q-4 0 -14 1t-16 1q-149 0 -259 -254v-3q0 -35 70 -35q11 0 31 6t31 6v-5q0 -10 -38 -19q-9 -7 -30 -7q-14 0 -38.5 9.5t-37.5 9.5l-7 -12q-21 -76 -21 -144v-21q145 0 270 104q130 109 130 252z M864 429q0 99 -51 99q0 -14 4.5 -42.5t4.5 -42.5q0 -120 -139 -264q21 8 42 20q-26 -21 -80 -58q-107 -59 -240 -82v-14q205 0 372 183l-29 -13q116 86 116 214zM669 168v2q0 1 -1 4q-4 -1 -6 -7l2 -2zM382 45q0 26 -80 26h-22q47 -26 102 -26zM275 81l-3 1h-3l-2 -1 q2 -3 4 -8zM1163 1137l-4 -4h-1l-4 4v2q1 5 4 6h1q4 -2 4 -6v-2zM1135 1107q-12 -24 -26 -24l-3 2q1 4 29 22zM508 1241q-3 -4 -11 -5q-11 2 -11 5l8 2h6q1 0 8 -2zM476 1234l-5 -5l-2 5l2 2zM801 549v-1q-1 -6 -4 -6h-1v1q1 5 4 6h1zM537 440l-4 -4h-1l-4 4v2q1 5 4 5h1 q3 -1 4 -5v-2zM1236 1510q-8 -42 -148 -149q-34 -26 -64 -33l-2 5l7 5q7 2 10 9l44 33q24 22 33 47q15 41 57 116q14 14 38 9q33 -7 25 -42z" />
<glyph unicode="&#xca;" horiz-adv-x="959" d="M1347 1022q0 -87 -75 -136q-64 -43 -156 -43q-111 0 -150 38l-45 52q-144 -83 -257 -128q66 -6 81 -11q38 -12 63 -50q14 -21 14 -26q0 -37 -45 -37q-29 0 -83.5 18.5t-83.5 18.5q-26 0 -104 -44q-278 -161 -278 -382q0 -200 149 -200q0 187 19 258q34 129 155 199 q65 37 141 37q210 0 210 -174q0 -169 -166 -281q-139 -93 -324 -110v-7q0 -18 10.5 -53t10.5 -53q-9 -1 -14 14q-10 33 -33 99q-200 28 -263 150q-20 39 -20 71l1 41q1 194 188 360q57 33 139 94q-15 -1 -32 -1q-206 0 -279 135q-47 88 -47 161q0 141 144 221 q-3 147 76 233.5t225 86.5q113 0 206 -61q105 -69 105 -177q0 -12 -9 -14q-20 148 -174 208q-50 19 -85 19l-43 -1q-116 -1 -191 -58q-82 -63 -84 -175l-1 -26q0 -11 8 -16h4q14 0 38.5 9.5t37.5 9.5h68q141 0 297 -102h19l99 31q85 27 190 71q45 18 97 18q101 0 101 -80 q0 -17 -5 -40q151 -49 151 -167zM1185 1201v64q0 37 -78 37q-101 0 -137 -44q78 -5 102 -50q17 0 52.5 -6t53.5 -6q4 2 7 5zM1041 1208v3q0 23 -64 23q-68 0 -106 -45h10q-26 0 160 19zM1331 1029q0 82 -90 126q-71 34 -162 34q-1 -19 -38 -110v-3l31 -19h7l19 12 q-11 -11 -21 -43q-9 -27 -31 -42q-2 0 -56 -22q-42 -18 -43 -29q52 -64 162 -64q88 0 149 35q73 43 73 125zM1060 1032q-26 -17 -71 -57q71 31 71 57zM1060 1046q-12 12 -38 11q-85 -56 -85 -96q58 0 123 85zM1053 1192h-33q-47 0 -132 -26q-99 -30 -99 -61 q0 -12 15.5 -28.5t15.5 -30.5h-5l-45 42q-23 -18 -51 -57q-31 -44 -31 -68q19 0 59 -6t61 -6q22 0 103 52q142 90 142 189zM921 970v5q-12 -5 -31 -19h12q19 0 19 14zM725 1126q-12 -5 -30 -24q21 10 30 24zM895 933h-12q-32 0 -49 -7q-11 -7 -34 -20q-31 -18 -79 -37 q-83 -33 -83 -38q0 -15 17 -14l4 3q24 -4 120 44q93 46 116 69zM770 926q-28 7 -63 7h-38q-6 -9 -19 -45h9q10 0 111 38zM676 1171q-76 101 -276 101q-87 0 -146 -33q13 -32 19 -42q15 -26 33 -26q117 58 151 56q-50 -22 -146 -75v-7q86 -77 86 -78q60 -47 100 -47 q105 105 179 151zM810 721q-17 -12 -52 -29h14q38 0 38 29zM784 735q-2 2 -7 9h-5q-4 0 -18.5 -15t-21.5 -18q52 1 52 24zM782 756q-24 31 -93 31h-27q-5 0 -17 -5q3 -14 12 -19q7 1 16 1q15 0 45 -4t45 -4h19zM718 711v2q-1 5 -4 5h-1q-3 -1 -4 -5v-2l4 -4h1zM638 763 l-12 12q-1 -5 -2 -7q0 -10 7 -12zM805 541v2q-5 10 -10 13q-3 -2 -4 -6v-2q1 -6 3.5 -6t1.5 -1l4 -4h1zM812 531q-1 6 -4 6h-1q-3 -2 -4 -6v-2q1 -6 4 -6h1q4 1 4 6v2zM261 1149v3l-30 68q-3 1 -7 2q-9 0 -19 -7q-83 -60 -83 -146v-33q0 -14 8 -28l49 57l68 68q10 9 14 16z M480 982l-4 7q-86 49 -104 61q-57 37 -92 76l-12 -5q-115 -108 -115 -158q0 -1 2 -7q97 -106 255 -106q26 0 52 7zM570 725l-5 3l-2 -3l2 -4zM582 744q-9 6 -26 19h-3q-51 0 -115 -56h5q6 0 27 8.5t112 28.5zM551 718h-6q-9 0 -46 -19h5zM492 692v2q-1 5 -4 5h-1 q-4 -1 -4 -5v-2l4 -4h1zM480 685v2q-1 5 -4 5h-1q-3 -1 -4 -5v-2l4 -4h1zM525 777v5q-5 5 -30 23h-3q-17 0 -50.5 -3.5t-50.5 -3.5q-98 0 -160 26q-28 20 -78 40q0 -56 79 -89q62 -26 128 -26q67 0 142 16q23 6 23 12zM153 870q-1 6 -4 6h-1q-4 -2 -4 -6v-2q1 -6 4 -6h1 q4 2 4 6v2zM803 445q0 92 -38 92q-101 0 -221 -90q64 78 200 102l-12 7q-4 0 -14 1t-16 1q-149 0 -259 -254v-3q0 -35 70 -35q11 0 31 6t31 6v-5q0 -10 -38 -19q-9 -7 -30 -7q-14 0 -38.5 9.5t-37.5 9.5l-7 -12q-21 -76 -21 -144v-21q145 0 270 104q130 109 130 252z M864 429q0 99 -51 99q0 -14 4.5 -42.5t4.5 -42.5q0 -120 -139 -264q21 8 42 20q-26 -21 -80 -58q-107 -59 -240 -82v-14q205 0 372 183l-29 -13q116 86 116 214zM669 168v2q0 1 -1 4q-4 -1 -6 -7l2 -2zM382 45q0 26 -80 26h-22q47 -26 102 -26zM275 81l-3 1h-3l-2 -1 q2 -3 4 -8zM1163 1137l-4 -4h-1l-4 4v2q1 5 4 6h1q4 -2 4 -6v-2zM1135 1107q-12 -24 -26 -24l-3 2q1 4 29 22zM508 1241q-3 -4 -11 -5q-11 2 -11 5l8 2h6q1 0 8 -2zM476 1234l-5 -5l-2 5l2 2zM801 549v-1q-1 -6 -4 -6h-1v1q1 5 4 6h1zM537 440l-4 -4h-1l-4 4v2q1 5 4 5h1 q3 -1 4 -5v-2zM1161 1345l-75 5l-66 141l-142 -146h-65l186 221h42z" />
<glyph unicode="&#xcb;" horiz-adv-x="959" d="M1347 1022q0 -87 -75 -136q-64 -43 -156 -43q-111 0 -150 38l-45 52q-144 -83 -257 -128q66 -6 81 -11q38 -12 63 -50q14 -21 14 -26q0 -37 -45 -37q-29 0 -83.5 18.5t-83.5 18.5q-26 0 -104 -44q-278 -161 -278 -382q0 -200 149 -200q0 187 19 258q34 129 155 199 q65 37 141 37q210 0 210 -174q0 -169 -166 -281q-139 -93 -324 -110v-7q0 -18 10.5 -53t10.5 -53q-9 -1 -14 14q-10 33 -33 99q-200 28 -263 150q-20 39 -20 71l1 41q1 194 188 360q57 33 139 94q-15 -1 -32 -1q-206 0 -279 135q-47 88 -47 161q0 141 144 221 q-3 147 76 233.5t225 86.5q113 0 206 -61q105 -69 105 -177q0 -12 -9 -14q-20 148 -174 208q-50 19 -85 19l-43 -1q-116 -1 -191 -58q-82 -63 -84 -175l-1 -26q0 -11 8 -16h4q14 0 38.5 9.5t37.5 9.5h68q141 0 297 -102h19l99 31q85 27 190 71q45 18 97 18q101 0 101 -80 q0 -17 -5 -40q151 -49 151 -167zM1185 1201v64q0 37 -78 37q-101 0 -137 -44q78 -5 102 -50q17 0 52.5 -6t53.5 -6q4 2 7 5zM1041 1208v3q0 23 -64 23q-68 0 -106 -45h10q-26 0 160 19zM1331 1029q0 82 -90 126q-71 34 -162 34q-1 -19 -38 -110v-3l31 -19h7l19 12 q-11 -11 -21 -43q-9 -27 -31 -42q-2 0 -56 -22q-42 -18 -43 -29q52 -64 162 -64q88 0 149 35q73 43 73 125zM1060 1032q-26 -17 -71 -57q71 31 71 57zM1060 1046q-12 12 -38 11q-85 -56 -85 -96q58 0 123 85zM1053 1192h-33q-47 0 -132 -26q-99 -30 -99 -61 q0 -12 15.5 -28.5t15.5 -30.5h-5l-45 42q-23 -18 -51 -57q-31 -44 -31 -68q19 0 59 -6t61 -6q22 0 103 52q142 90 142 189zM921 970v5q-12 -5 -31 -19h12q19 0 19 14zM725 1126q-12 -5 -30 -24q21 10 30 24zM895 933h-12q-32 0 -49 -7q-11 -7 -34 -20q-31 -18 -79 -37 q-83 -33 -83 -38q0 -15 17 -14l4 3q24 -4 120 44q93 46 116 69zM770 926q-28 7 -63 7h-38q-6 -9 -19 -45h9q10 0 111 38zM676 1171q-76 101 -276 101q-87 0 -146 -33q13 -32 19 -42q15 -26 33 -26q117 58 151 56q-50 -22 -146 -75v-7q86 -77 86 -78q60 -47 100 -47 q105 105 179 151zM810 721q-17 -12 -52 -29h14q38 0 38 29zM784 735q-2 2 -7 9h-5q-4 0 -18.5 -15t-21.5 -18q52 1 52 24zM782 756q-24 31 -93 31h-27q-5 0 -17 -5q3 -14 12 -19q7 1 16 1q15 0 45 -4t45 -4h19zM718 711v2q-1 5 -4 5h-1q-3 -1 -4 -5v-2l4 -4h1zM638 763 l-12 12q-1 -5 -2 -7q0 -10 7 -12zM805 541v2q-5 10 -10 13q-3 -2 -4 -6v-2q1 -6 3.5 -6t1.5 -1l4 -4h1zM812 531q-1 6 -4 6h-1q-3 -2 -4 -6v-2q1 -6 4 -6h1q4 1 4 6v2zM261 1149v3l-30 68q-3 1 -7 2q-9 0 -19 -7q-83 -60 -83 -146v-33q0 -14 8 -28l49 57l68 68q10 9 14 16z M480 982l-4 7q-86 49 -104 61q-57 37 -92 76l-12 -5q-115 -108 -115 -158q0 -1 2 -7q97 -106 255 -106q26 0 52 7zM570 725l-5 3l-2 -3l2 -4zM582 744q-9 6 -26 19h-3q-51 0 -115 -56h5q6 0 27 8.5t112 28.5zM551 718h-6q-9 0 -46 -19h5zM492 692v2q-1 5 -4 5h-1 q-4 -1 -4 -5v-2l4 -4h1zM480 685v2q-1 5 -4 5h-1q-3 -1 -4 -5v-2l4 -4h1zM525 777v5q-5 5 -30 23h-3q-17 0 -50.5 -3.5t-50.5 -3.5q-98 0 -160 26q-28 20 -78 40q0 -56 79 -89q62 -26 128 -26q67 0 142 16q23 6 23 12zM153 870q-1 6 -4 6h-1q-4 -2 -4 -6v-2q1 -6 4 -6h1 q4 2 4 6v2zM803 445q0 92 -38 92q-101 0 -221 -90q64 78 200 102l-12 7q-4 0 -14 1t-16 1q-149 0 -259 -254v-3q0 -35 70 -35q11 0 31 6t31 6v-5q0 -10 -38 -19q-9 -7 -30 -7q-14 0 -38.5 9.5t-37.5 9.5l-7 -12q-21 -76 -21 -144v-21q145 0 270 104q130 109 130 252z M864 429q0 99 -51 99q0 -14 4.5 -42.5t4.5 -42.5q0 -120 -139 -264q21 8 42 20q-26 -21 -80 -58q-107 -59 -240 -82v-14q205 0 372 183l-29 -13q116 86 116 214zM669 168v2q0 1 -1 4q-4 -1 -6 -7l2 -2zM382 45q0 26 -80 26h-22q47 -26 102 -26zM275 81l-3 1h-3l-2 -1 q2 -3 4 -8zM1163 1137l-4 -4h-1l-4 4v2q1 5 4 6h1q4 -2 4 -6v-2zM1135 1107q-12 -24 -26 -24l-3 2q1 4 29 22zM508 1241q-3 -4 -11 -5q-11 2 -11 5l8 2h6q1 0 8 -2zM476 1234l-5 -5l-2 5l2 2zM801 549v-1q-1 -6 -4 -6h-1v1q1 5 4 6h1zM537 440l-4 -4h-1l-4 4v2q1 5 4 5h1 q3 -1 4 -5v-2zM1159 1394q-3 -39 -59 -30q-17 2 -32.5 21t-7.5 35q16 34 59 31q17 -2 29 -20.5t11 -36.5zM980 1411q0 -41 -61 -36q-41 4 -41 43q0 41 52 41q5 0 10 -1q40 -5 40 -47z" />
<glyph unicode="&#xcc;" horiz-adv-x="1856" d="M2706 1366q0 -38 -80 -64q-35 -11 -91 -53q-63 -46 -69 -74q-25 -23 -68 -70l-358 -471q52 14 117 61q95 69 109 77v-7q0 -41 -102 -91q-49 -20 -143 -64l-158 -184q-366 -407 -942 -407q-151 0 -271 38q-8 2 -46 21q-34 16 -41 16q-17 0 -57 6l-56 6q-117 12 -207 67 q-113 68 -113 171t99 166q79 51 195 62q21 1 64 5q23 3 80 49q74 59 82 64q221 134 542 139q14 61 42 82v-4q0 -8 -9.5 -31.5t-9.5 -46.5q152 -22 222 -71q27 -18 49 -18q22 10 106 26q78 15 127 44q92 292 594 401q42 6 122 25l78 43q80 43 193 87zM2520 1262v1q-1 6 -4 6 h-1q-4 0 -4 -6v-1q0 -7 4 -7h1q4 0 4 7zM2504 1255q-33 -11 -33 -21l2 -2q9 2 31 23zM2365 1194h-12q-205 -51 -319 -112q-167 -89 -235 -234h14q27 12 76 38zM2440 1206h-9q-16 0 -109 -61l-301 -203q-33 -22 -182 -106q-16 -8 -46 -25q-13 -8 -13 -67q0 -115 114 -115 q4 2 7 5q198 265 360 409zM1328 784q-51 19 -92 19h-21l7 -12q100 -7 83 -7h23zM1875 596v7q-151 35 -163 162h-12q9 0 -101 -30l-101 -31q45 -68 45 -141q0 -164 -219 -293q-149 -88 -365 -145v-3q0 -7 50 -18q45 -10 63 -10h66q226 0 419 151q62 49 162.5 158t143.5 174 q12 18 12 19zM1500 582q0 80 -59 108q-77 5 -96 7q-51 7 -92 26h-17q-156 0 -298 -121q-149 -126 -149 -279q0 -57 40 -117q43 -67 97 -67q62 0 169 42q156 62 165 76h-9q-17 0 -50 -2.5t-49 -2.5q-97 0 -201 57v4q0 10 8 14q113 -51 200 -51q141 0 238 81q103 86 103 225z M1199 791v3q0 11 -7 16h-66q-140 0 -271 -42q-148 -47 -236 -134l-49 -50v-7q146 -19 200 -80q15 9 31 37q19 35 26 43q160 181 369 207zM1276 263v2q0 6 -4 6h-1q-4 0 -4 -6v-2q1 -6 4 -6h1q4 0 4 6zM871 132q-3 1 -7 7l-37 31q-76 61 -76 190q0 19 6 56.5t6 56.5 q0 35 -81 64q-68 24 -114 24q-44 0 -71 -87q-21 -67 -21 -125q0 -161 132 -236h132q10 0 117 12zM1203 68h-113q-29 0 -100 22.5t-88 22.5q-44 0 -132 -9.5t-132 -9.5l7 -7q161 -49 212 -49h91q124 0 255 30zM537 120q-113 99 -113 236q0 49 23 105l48 97q-5 0 -14.5 1.5 t-14.5 1.5q-106 0 -192 -51q-102 -60 -102 -159q0 -110 128 -177q107 -56 228 -56q3 1 9 2zM2657 1444l-3 -5q-43 10 -126 81q-87 75 -87 112q0 32 38 32q19 0 27 -11q14 -18 42 -85q25 -58 47 -77q16 -11 45 -33q1 -3 17 -14z" />
<glyph unicode="&#xcd;" horiz-adv-x="1856" d="M2706 1366q0 -38 -80 -64q-35 -11 -91 -53q-63 -46 -69 -74q-25 -23 -68 -70l-358 -471q52 14 117 61q95 69 109 77v-7q0 -41 -102 -91q-49 -20 -143 -64l-158 -184q-366 -407 -942 -407q-151 0 -271 38q-8 2 -46 21q-34 16 -41 16q-17 0 -57 6l-56 6q-117 12 -207 67 q-113 68 -113 171t99 166q79 51 195 62q21 1 64 5q23 3 80 49q74 59 82 64q221 134 542 139q14 61 42 82v-4q0 -8 -9.5 -31.5t-9.5 -46.5q152 -22 222 -71q27 -18 49 -18q22 10 106 26q78 15 127 44q92 292 594 401q42 6 122 25l78 43q80 43 193 87zM2520 1262v1q-1 6 -4 6 h-1q-4 0 -4 -6v-1q0 -7 4 -7h1q4 0 4 7zM2504 1255q-33 -11 -33 -21l2 -2q9 2 31 23zM2365 1194h-12q-205 -51 -319 -112q-167 -89 -235 -234h14q27 12 76 38zM2440 1206h-9q-16 0 -109 -61l-301 -203q-33 -22 -182 -106q-16 -8 -46 -25q-13 -8 -13 -67q0 -115 114 -115 q4 2 7 5q198 265 360 409zM1328 784q-51 19 -92 19h-21l7 -12q100 -7 83 -7h23zM1875 596v7q-151 35 -163 162h-12q9 0 -101 -30l-101 -31q45 -68 45 -141q0 -164 -219 -293q-149 -88 -365 -145v-3q0 -7 50 -18q45 -10 63 -10h66q226 0 419 151q62 49 162.5 158t143.5 174 q12 18 12 19zM1500 582q0 80 -59 108q-77 5 -96 7q-51 7 -92 26h-17q-156 0 -298 -121q-149 -126 -149 -279q0 -57 40 -117q43 -67 97 -67q62 0 169 42q156 62 165 76h-9q-17 0 -50 -2.5t-49 -2.5q-97 0 -201 57v4q0 10 8 14q113 -51 200 -51q141 0 238 81q103 86 103 225z M1199 791v3q0 11 -7 16h-66q-140 0 -271 -42q-148 -47 -236 -134l-49 -50v-7q146 -19 200 -80q15 9 31 37q19 35 26 43q160 181 369 207zM1276 263v2q0 6 -4 6h-1q-4 0 -4 -6v-2q1 -6 4 -6h1q4 0 4 6zM871 132q-3 1 -7 7l-37 31q-76 61 -76 190q0 19 6 56.5t6 56.5 q0 35 -81 64q-68 24 -114 24q-44 0 -71 -87q-21 -67 -21 -125q0 -161 132 -236h132q10 0 117 12zM1203 68h-113q-29 0 -100 22.5t-88 22.5q-44 0 -132 -9.5t-132 -9.5l7 -7q161 -49 212 -49h91q124 0 255 30zM537 120q-113 99 -113 236q0 49 23 105l48 97q-5 0 -14.5 1.5 t-14.5 1.5q-106 0 -192 -51q-102 -60 -102 -159q0 -110 128 -177q107 -56 228 -56q3 1 9 2zM2892 1611q-9 -41 -148 -148q-34 -27 -64 -33l-2 4l7 5q7 2 9 9q38 29 45 33q24 22 33 48q15 40 57 115q14 14 37 9q34 -7 26 -42z" />
<glyph unicode="&#xce;" horiz-adv-x="1856" d="M2706 1366q0 -38 -80 -64q-35 -11 -91 -53q-63 -46 -69 -74q-25 -23 -68 -70l-358 -471q52 14 117 61q95 69 109 77v-7q0 -41 -102 -91q-49 -20 -143 -64l-158 -184q-366 -407 -942 -407q-151 0 -271 38q-8 2 -46 21q-34 16 -41 16q-17 0 -57 6l-56 6q-117 12 -207 67 q-113 68 -113 171t99 166q79 51 195 62q21 1 64 5q23 3 80 49q74 59 82 64q221 134 542 139q14 61 42 82v-4q0 -8 -9.5 -31.5t-9.5 -46.5q152 -22 222 -71q27 -18 49 -18q22 10 106 26q78 15 127 44q92 292 594 401q42 6 122 25l78 43q80 43 193 87zM2520 1262v1q-1 6 -4 6 h-1q-4 0 -4 -6v-1q0 -7 4 -7h1q4 0 4 7zM2504 1255q-33 -11 -33 -21l2 -2q9 2 31 23zM2365 1194h-12q-205 -51 -319 -112q-167 -89 -235 -234h14q27 12 76 38zM2440 1206h-9q-16 0 -109 -61l-301 -203q-33 -22 -182 -106q-16 -8 -46 -25q-13 -8 -13 -67q0 -115 114 -115 q4 2 7 5q198 265 360 409zM1328 784q-51 19 -92 19h-21l7 -12q100 -7 83 -7h23zM1875 596v7q-151 35 -163 162h-12q9 0 -101 -30l-101 -31q45 -68 45 -141q0 -164 -219 -293q-149 -88 -365 -145v-3q0 -7 50 -18q45 -10 63 -10h66q226 0 419 151q62 49 162.5 158t143.5 174 q12 18 12 19zM1500 582q0 80 -59 108q-77 5 -96 7q-51 7 -92 26h-17q-156 0 -298 -121q-149 -126 -149 -279q0 -57 40 -117q43 -67 97 -67q62 0 169 42q156 62 165 76h-9q-17 0 -50 -2.5t-49 -2.5q-97 0 -201 57v4q0 10 8 14q113 -51 200 -51q141 0 238 81q103 86 103 225z M1199 791v3q0 11 -7 16h-66q-140 0 -271 -42q-148 -47 -236 -134l-49 -50v-7q146 -19 200 -80q15 9 31 37q19 35 26 43q160 181 369 207zM1276 263v2q0 6 -4 6h-1q-4 0 -4 -6v-2q1 -6 4 -6h1q4 0 4 6zM871 132q-3 1 -7 7l-37 31q-76 61 -76 190q0 19 6 56.5t6 56.5 q0 35 -81 64q-68 24 -114 24q-44 0 -71 -87q-21 -67 -21 -125q0 -161 132 -236h132q10 0 117 12zM1203 68h-113q-29 0 -100 22.5t-88 22.5q-44 0 -132 -9.5t-132 -9.5l7 -7q161 -49 212 -49h91q124 0 255 30zM537 120q-113 99 -113 236q0 49 23 105l48 97q-5 0 -14.5 1.5 t-14.5 1.5q-106 0 -192 -51q-102 -60 -102 -159q0 -110 128 -177q107 -56 228 -56q3 1 9 2zM2675 1399l-75 5l-66 141l-141 -146h-66l186 221h42z" />
<glyph unicode="&#xcf;" horiz-adv-x="1856" d="M2706 1366q0 -38 -80 -64q-35 -11 -91 -53q-63 -46 -69 -74q-25 -23 -68 -70l-358 -471q52 14 117 61q95 69 109 77v-7q0 -41 -102 -91q-49 -20 -143 -64l-158 -184q-366 -407 -942 -407q-151 0 -271 38q-8 2 -46 21q-34 16 -41 16q-17 0 -57 6l-56 6q-117 12 -207 67 q-113 68 -113 171t99 166q79 51 195 62q21 1 64 5q23 3 80 49q74 59 82 64q221 134 542 139q14 61 42 82v-4q0 -8 -9.5 -31.5t-9.5 -46.5q152 -22 222 -71q27 -18 49 -18q22 10 106 26q78 15 127 44q92 292 594 401q42 6 122 25l78 43q80 43 193 87zM2520 1262v1q-1 6 -4 6 h-1q-4 0 -4 -6v-1q0 -7 4 -7h1q4 0 4 7zM2504 1255q-33 -11 -33 -21l2 -2q9 2 31 23zM2365 1194h-12q-205 -51 -319 -112q-167 -89 -235 -234h14q27 12 76 38zM2440 1206h-9q-16 0 -109 -61l-301 -203q-33 -22 -182 -106q-16 -8 -46 -25q-13 -8 -13 -67q0 -115 114 -115 q4 2 7 5q198 265 360 409zM1328 784q-51 19 -92 19h-21l7 -12q100 -7 83 -7h23zM1875 596v7q-151 35 -163 162h-12q9 0 -101 -30l-101 -31q45 -68 45 -141q0 -164 -219 -293q-149 -88 -365 -145v-3q0 -7 50 -18q45 -10 63 -10h66q226 0 419 151q62 49 162.5 158t143.5 174 q12 18 12 19zM1500 582q0 80 -59 108q-77 5 -96 7q-51 7 -92 26h-17q-156 0 -298 -121q-149 -126 -149 -279q0 -57 40 -117q43 -67 97 -67q62 0 169 42q156 62 165 76h-9q-17 0 -50 -2.5t-49 -2.5q-97 0 -201 57v4q0 10 8 14q113 -51 200 -51q141 0 238 81q103 86 103 225z M1199 791v3q0 11 -7 16h-66q-140 0 -271 -42q-148 -47 -236 -134l-49 -50v-7q146 -19 200 -80q15 9 31 37q19 35 26 43q160 181 369 207zM1276 263v2q0 6 -4 6h-1q-4 0 -4 -6v-2q1 -6 4 -6h1q4 0 4 6zM871 132q-3 1 -7 7l-37 31q-76 61 -76 190q0 19 6 56.5t6 56.5 q0 35 -81 64q-68 24 -114 24q-44 0 -71 -87q-21 -67 -21 -125q0 -161 132 -236h132q10 0 117 12zM1203 68h-113q-29 0 -100 22.5t-88 22.5q-44 0 -132 -9.5t-132 -9.5l7 -7q161 -49 212 -49h91q124 0 255 30zM537 120q-113 99 -113 236q0 49 23 105l48 97q-5 0 -14.5 1.5 t-14.5 1.5q-106 0 -192 -51q-102 -60 -102 -159q0 -110 128 -177q107 -56 228 -56q3 1 9 2zM2683 1411q-4 -40 -59 -31q-18 3 -33 22t-7 35q16 34 59 30q17 -1 29 -19.5t11 -36.5zM2504 1427q0 -41 -62 -35q-40 4 -40 42q0 42 51 42q6 0 11 -2q40 -4 40 -47z" />
<glyph unicode="&#xd0;" horiz-adv-x="1505" d="M2360 947q0 -140 -110 -228q-103 -83 -246 -83q-74 0 -129 35q-64 41 -64 111q0 31 22 80q24 57 49 57h12q-64 -76 -64 -130q0 -115 170 -115q132 0 233 70q113 78 113 205q0 110 -93 167q-78 47 -195 47q-222 0 -466 -157q-12 -8 -12 -26q0 6 9 -42q10 -55 10 -102 q0 -82 -75 -332q-11 -37 -26 -68q-116 -246 -364 -337q-180 -66 -505 -66q-28 0 -83.5 3.5t-83.5 3.5q-46 0 -138 -13l-9 -1q-88 -12 -197 -12q-45 0 -60 10q-18 13 -16 54l-18 30q0 52 120 52q124 0 226 -40h-19q8 0 -65 12q-81 14 -138 14h-68q-12 0 -28.5 -12.5 t-16.5 -25.5q0 -19 19 -19q24 0 75.5 13t127.5 13q17 0 181 -33l198 94q112 58 172 133l151 186q-75 -7 -120 -7q-39 0 -66 3l-29 -18q-111 -66 -150 -84q-82 -36 -168 -36q-144 0 -232 74q-95 79 -95 221q0 166 110 305q97 122 260 203q218 109 346 109q92 0 264 -26 q30 -11 94 -26q29 -4 141 -24q109 -19 172 -77q25 -24 38 -24l87 50l139 68h14q1 -16 -7 -19q-50 -23 -118 -63q-92 -55 -92 -74q0 -12 14 -25q276 150 493 150h92q15 0 63 -18q151 -56 151 -210zM450 98v-1q-1 -4 -3 -5q-2 2 -2 4v2q1 1 2 1h1q2 0 2 -1zM432 104 q-2 -4 -8 -7q-3 2 -6 7q1 2 5 2h3q3 0 6 -2zM414 111q-3 -7 -9 -10q-6 8 -6 10q1 2 5 2h4q3 0 6 -2zM393 115q-4 -4 -9 -4t-10 4q2 3 8 3h3q7 0 8 -3zM1536 1006v2q0 24 -19 24l-43 -45q0 -12 12 -12h7zM1493 1069q0 36 -90 73q-81 33 -126 33h-17q101 -59 181 -143h5 q10 0 28.5 14t18.5 23zM1561 951q0 17 -7 24q-49 -28 -49 -59q56 0 56 35zM1253 1182v2q-1 0 -2 1h-1q-2 -1 -2 -2v-1q1 -3 3 -4q2 2 2 4zM1465 968h-9q-6 0 -31.5 -29t-25.5 -35q66 22 66 64zM1580 846q0 65 -11 91l-52 -33q26 -73 37 -226q26 94 26 168zM1385 888v5 q0 2 -1 2q-3 0 -6 -7l2 -2zM1072 1206q-28 7 -54 7h-15q10 -14 31 -14q16 0 38 7zM1029 1142q0 21 -23 21q-19 0 -47 -14q32 -7 36 -7h34zM1425 1017v5l-2 3q-109 108 -204 145q-29 12 -34 12h-95q-21 0 -44 -7v-2q0 -35 87 -59q99 -28 115 -52h-7q-120 50 -162 50 q0 -15 3.5 -44t3.5 -43q0 -109 -40 -189v-5q0 -9 3.5 -28t3.5 -28q0 -98 -113 -184q-8 -6 -52 -31q155 95 155 245h-9q-68 -128 -245 -294h1q48 19 87 42l-66 -40q42 5 108 28q87 30 106 35l160 197q30 37 132 138q108 109 108 106zM1517 730q0 124 -21 156h-3 q-13 0 -32 -12q27 20 27 37h-9l-49 -49h2q9 0 21 7q-23 -17 -23 -33q0 -17 5.5 -51.5t5.5 -52.5q0 -135 -69 -272q-68 -133 -176 -222q-28 -24 -56 -54q169 84 268 220q109 148 109 326zM1060 1017q0 92 -26 109q-33 4 -50 4h-75q-193 -87 -264 -174q16 1 31 1q53 0 87 -15 q6 0 45 -19q99 0 119 -3q52 -10 100 -58q33 17 33 155zM984 1194q-17 26 -77 26q-389 0 -582 -245q138 92 316 138l336 74zM1022 848q-45 63 -158 63h-37q63 -82 63 -169q0 -64 -37 -144q169 170 169 250zM1430 758q0 73 -19 73q-11 0 -19 -7q-99 -81 -226 -241 q107 -23 107 -98l-3 -9q-61 31 -158 30h-4l-46 -63q-138 -199 -280 -266l-238 -106q-1 -14 120 -14q426 0 644 312q122 173 122 389zM860 761q0 41 -20 85q-23 54 -58 54q-70 0 -243 -120q66 80 231 131q-17 26 -94 26q-31 0 -57 -7q-122 -115 -162 -214l19 14 q-71 -66 -71 -188q0 -102 127 -102q98 0 186 64q-8 4 -13 9q11 0 23 -1q132 102 132 249zM1133 176v2q-1 6 -4 6h-1q-4 0 -5 -6v-2q1 -4 4 -4h2q4 1 4 4zM1133 150v2q-1 6 -4 6h-1q-4 0 -5 -6v-2q1 -4 4 -4h2q4 1 4 4zM1121 145v2q-1 6 -4 6h-1q-4 0 -4 -6v-2q0 -6 4 -6h1 q4 0 4 6zM1107 138v2q-1 6 -4 6h-1q-4 0 -4 -6v-2q0 -4 4 -4h1q4 1 4 4zM1095 131v2q-1 6 -4 6h-1q-4 0 -4 -6v-2q1 -4 4 -4h1q4 1 4 4zM1083 126v2q0 6 -4 6h-1q-4 0 -4 -6v-2q1 -6 4 -6h1q4 0 4 6zM770 1119h-7q-22 0 -132 -38q-153 -53 -291 -176q-161 -145 -161 -283 q0 -20 13 -54t13 -52q-23 18 -44 70q-20 49 -20 81q1 2 3 7q-1 4 0 4q47 195 249 403q-21 -8 -49 -31q-24 -17 -69 -55q-164 -148 -164 -333q0 -128 76 -203t204 -75q85 0 148 26q-16 -3 -75 -3q-167 0 -226 78h2q113 -63 229 -63q-139 39 -139 174q0 294 440 523zM1069 119 v3q-1 5 -4 5h-1q-4 0 -4 -5v-3q1 -3 4 -4h1q4 1 4 4zM1053 115q-2 3 -5 3l-2 -3l4 -4q3 2 3 4zM1039 107v2q-1 6 -5 6h-1q-3 0 -4 -6v-2q1 -6 4 -6h1q4 0 5 6zM1020 101v2q-1 5 -4 5h-1q-4 0 -5 -5v-2q1 -4 4 -4h2q4 0 4 4zM638 146l-143 -57h11q97 0 132 57zM125 64 q0 12 -10 21h-11q-15 0 -31 -7q5 -14 39 -14h13zM137 45l-85 21q0 -21 16 -21h69zM1291 1032h-5q-3 0 -14 11h7zM1267 1050h-7l-7 5h2l3 2q1 -1 9 -7zM525 773q0 -10 -19 -19h-1q0 8 20 19zM235 489q0 -4 -3 -4h-2q-4 1 -4 4v2v2q-1 -1 -2 -1h-1q-4 1 -4 4v1h-1q-3 0 -4 6v1 h-1h-2q-4 1 -4 4v2q1 6 4 6h1q4 0 5 -6q0 1 1 1h2q3 0 4 -7v0q4 0 4 -6v-2q1 1 2 1h1q4 0 4 -6v-2z" />
<glyph unicode="&#xd1;" horiz-adv-x="1957" d="M1985 1072q-2 -3 -4 -3h-1q-2 1 -2 2v1l1 2h2q3 0 4 -2zM3672 961q0 -184 -205 -294q-170 -90 -372 -90q-323 0 -323 210q0 81 68 136q63 52 146 52q33 0 38 -14q-14 1 -28 1q-84 0 -142 -44q-63 -49 -63 -131q0 -97 108 -141q78 -31 191 -31q206 0 363 71 q205 92 205 273q0 136 -161 195q-110 40 -275 40q-342 0 -556 -132q7 0 20.5 3.5t19.5 3.5q85 0 85 -66q0 -30 -25.5 -51.5t-57.5 -21.5q-29 0 -43 38t-34 38q-95 0 -436 -321q-44 -39 -127 -120l-266 -292q-18 -17 -47 -52l-125 -183q-19 -28 -40 -29q0 31 28 66 q-4 -3 -22 -31q-14 -21 -30 -20v9q64 111 83 200l101 485l-73 -100q-505 -686 -1086 -686q-195 0 -321 83q-148 98 -148 284q0 259 258 432q229 155 501 155q184 0 271 -59q108 -71 108 -245q0 -139 -102 -239q-88 -87 -232 -129q-25 -7 -38 -7h-170l-20 -28 q-13 -16 -29 -16q-17 0 -29.5 16t-22.5 16q-24 0 -24 -40q0 -11 6 -31.5t6 -31.5v-3q-23 15 -23 66q0 16 19 59q-36 18 -106 36q0 -205 282 -205q146 0 279 72q93 50 235 173q88 76 132 120v-7q-21 -27 -139 -132q-76 -67 -150 -118q-32 -17 -88 -59h7q79 13 233 136 q102 81 172 161q45 51 146 188l75 106h-12q19 21 50 64l169 287q69 122 132 184h14q0 -35 -37 -95q-45 -74 -52 -93l19 18q0 -7 -26 -62q-27 -59 -31 -77l-132 -612l358 431q5 6 31 31q209 201 226 215q141 111 283 117q341 165 581 165q167 0 281 -65q139 -79 139 -232z M1642 648l-5 -7q-2 2 -3 4q3 3 8 10v-7zM1611 610l-19 -19v7l19 19v-7zM1566 561q-2 -5 -23 -26h-3q0 4 26 30v-4zM1517 504l-83 -82v7l83 80v-5zM2640 1074q-95 0 -195 -68q-59 -39 -161 -137q-127 -123 -273 -290q283 288 629 495zM2219 749l-238 -233l-113 -131z M1788 817q-4 -1 -8 -7q-30 -54 -49 -80q42 54 57 87zM1691 696v3q-1 5 -4 5h-1q-4 0 -4 -5v-3q0 -3 4 -4h1q4 1 4 4zM1849 358q-21 -10 -21 -18q1 -1 2 -1q19 0 19 19zM1660 188v7l-18 -37v-12q3 2 7 5q11 29 11 37zM1215 471v7q-39 -39 -63 -68q-6 -9 -19 -26 q-87 -90 -269 -151h19q102 0 198 72q91 68 134 166zM1227 565q0 132 -210 132q-185 0 -336 -116q-155 -119 -189 -298q28 -45 120 -45q8 0 23.5 3.5t23.5 3.5t22 -3.5t21 -3.5q124 0 270 75.5t217 176.5q38 53 38 75zM1039 86v3q-1 5 -5 5h-1q-3 0 -4 -5v-3q1 -3 4 -4h2 q3 1 4 4zM1024 82v1q0 6 -4 6h-1q-4 0 -4 -6v-1q1 -7 4 -7h1q4 0 4 7zM1241 667q0 100 -132 145q-90 31 -216 31q-260 0 -489 -139q-263 -160 -263 -403q0 -175 140 -261q115 -71 301 -71q59 0 162 17q114 19 151 40q-19 0 -57.5 -3.5t-57.5 -3.5q-281 0 -318 195l-12 83 q-2 10 -15 33q-11 20 -11 35q0 24 14 24q0 -58 17 -69q43 194 202 317.5t358 123.5q144 0 226 -94zM2650 1364q0 -25 -52 -57.5t-83 -32.5q-38 0 -108 32t-108 32h-36q-40 -17 -61 -69q-38 19 -38 38q0 32 49 61q43 26 79 26q49 0 209 -63q59 0 111 63h7z" />
</font>
</defs>
</svg>
